/* XPM */
static char *_9849db273674ae492d8c041889f62d3hompO7olh7w65Cn0[] = {
/* columns rows colors chars-per-pixel */
"120 34 175 2 ",
"   c None",
".  c #050505",
"X  c #0B0B0B",
"o  c #141414",
"O  c #1A1A1A",
"+  c #252525",
"@  c #2C2C2C",
"#  c #37312F",
"$  c #333232",
"%  c #3B3633",
"&  c #3B3B3B",
"*  c #42362F",
"=  c #4E392E",
"-  c #4E372C",
";  c #51372B",
":  c #523B2E",
">  c #5A3B2B",
",  c #413630",
"<  c #4D3C33",
"1  c #423D3B",
"2  c #483F3B",
"3  c #443933",
"4  c #543D30",
"5  c #663C27",
"6  c #653E2B",
"7  c #41403F",
"8  c #4E423C",
"9  c #564037",
"0  c #55423A",
"q  c #5E4231",
"w  c #66412D",
"e  c #6C412B",
"r  c #794327",
"t  c #7D4529",
"y  c #624331",
"u  c #6D4630",
"i  c #69473A",
"p  c #774C34",
"a  c #7A4D32",
"s  c #754938",
"d  c #444444",
"f  c #4B4644",
"g  c #474847",
"h  c #4B4947",
"j  c #4A4A4A",
"k  c #544B46",
"l  c #5A4C46",
"z  c #514D4B",
"x  c #584A45",
"c  c #53504E",
"v  c #545454",
"b  c #585757",
"n  c #5A5857",
"m  c #585758",
"M  c #5C5C5C",
"N  c #624F47",
"B  c #684F43",
"V  c #655046",
"C  c #6B5144",
"Z  c #725445",
"A  c #7B5644",
"S  c #675D59",
"D  c #745A51",
"F  c #656464",
"G  c #6C6C6C",
"H  c #6B6360",
"J  c #706460",
"K  c #70706F",
"L  c #78706D",
"P  c #727272",
"I  c #7D7D7D",
"U  c #8F4925",
"Y  c #844A2A",
"T  c #804526",
"R  c #934B27",
"E  c #964F2A",
"W  c #984F2A",
"Q  c #994B25",
"!  c #96502A",
"~  c #875233",
"^  c #975731",
"/  c #975933",
"(  c #9A5A34",
")  c #92593C",
"_  c #9C5D3C",
"`  c #AC5224",
"'  c #A2532A",
"]  c #A9582C",
"[  c #B25324",
"{  c #B95726",
"}  c #BC5A27",
"|  c #BE5B28",
" . c #A35E3C",
".. c #A15A31",
"X. c #A5603D",
"o. c #B26335",
"O. c #BE6937",
"+. c #B2643C",
"@. c #BC6533",
"#. c #C05C28",
"$. c #CB632B",
"%. c #D1662C",
"&. c #DA6B2F",
"*. c #C66934",
"=. c #CD6F39",
"-. c #DD6E31",
";. c #D97134",
":. c #E06E31",
">. c #E47233",
",. c #EB7634",
"<. c #EB7936",
"1. c #ED7E3E",
"2. c #F27B36",
"3. c #F47D38",
"4. c #825743",
"5. c #8E5B42",
"6. c #945D40",
"7. c #9E5F41",
"8. c #9A6245",
"9. c #9E6649",
"0. c #96654C",
"q. c #896653",
"w. c #976E58",
"e. c #986F59",
"r. c #97735F",
"t. c #9B7059",
"y. c #A36644",
"u. c #BF7246",
"i. c #BF7D55",
"p. c #947767",
"a. c #987766",
"s. c #997866",
"d. c #947768",
"f. c #947868",
"g. c #A07F6D",
"h. c #EF8040",
"j. c #E7854B",
"k. c #EC864C",
"l. c #F78B4B",
"z. c #F5955C",
"x. c #F29056",
"c. c #F49B66",
"v. c #F89D67",
"b. c #FA9F68",
"n. c #838383",
"m. c #8C8C8C",
"M. c #929292",
"N. c #9C9C9C",
"B. c #A0938C",
"V. c #A39C98",
"C. c #A19A95",
"Z. c #A3A3A3",
"A. c #AAAAAA",
"S. c #B4B0AE",
"D. c #B4B4B4",
"F. c #BDBCBC",
"G. c #C2BFBE",
"H. c #C2C0BE",
"J. c #C3C3C3",
"K. c #CCCCCC",
"L. c #D3D3D3",
"P. c #DEDEDE",
"I. c #DBDBDB",
"U. c #E4E4E4",
"Y. c #EEEEEE",
"T. c #EFEFEF",
"R. c gray93",
"E. c #EDEDED",
"W. c #F6F6F6",
"Q. c #F3F3F3",
"!. c #FBFBFB",
"~. c white",
"^. c #FEFEFE",
"/. c #FDFDFD",
"(. c #FDFEFD",
/* pixels */
"            p a a a a a a a a a a a a a a a a a a a a a                                                                                                                                                                                         ",
"      4 _ i.c.b.b.b.b.b.b.b.b.b.b.b.b.b.b.b.b.b.b.b.b.z.u.W e                                                                                                                                                                                   ",
"    p j.v.c.h.o.( ( ( ( ( ( ( ( ( ( ( ( ( ( ( ( ( ( o.x.z.k.} 6                                                                                                                                                                                 ",
"  q j.b.O.4 < c v v v b v v b b n n b b b n m b v j h < a 1.,.} ;                                                                                                                                                                               ",
"  y.b.=.8 F L H J F F F F F F F F F F F F F F F F F F K g ~ 2.-.t                                                                                                                                                                               ",
"  i.c.y n S v v j g g z c h h h h h h h h h g g j g g c G f @.,.R                                                                                                                                                                               ",
"p c.1.< D l v v g h A  .X. . . . . . . . . .4.h g g g g m v ..3.} 6                                                                                                                                                                             ",
"a b.o.f F v n j g V 0.F.F.F.F.F.F.F.F.F.F.F.t.Z g g g g g F y <.#.6                                                                                                                                                                             ",
"a b.( g n j j c g Z q.!.!.!.!.!.!.!.!.!.!.!.s.A g g g g g g , <.| 6                     j M.M.M.M.M.M.M.M.g         & M.M.F                       + n.M.M.M.M.M.M.M.M.g             + m.M.M.M.M.M.M.M.+         O n.M.M.M.M.M.M.M.M.M.M.M.+     ",
"a b./ j M j g j j Z q.!.!.U.G.H.H.G.G.H.H.H.t.Z g g g g z g , <.#.6                   v N.W.Q.Y.Y.Y.Y.Y.!.P.&       O F.!.N.                    @ I L.W.Y.Y.Y.Y.Y.Y.!.L.          $ I P.Q.Y.Y.Y.Y.Y.!.D.        X I !.W.Y.Y.Y.Y.Y.Y.Y.W.Q.      ",
"a b.( v S l j j g Z q.!.!.V.o.) ) ) ) ) ) ) A z g h g g v g , <.#.6                 F M.J.P.M j j j g @ m.!.K.      o F !.n.                  % m.A.U.M.j j j j g @ A.!.J.      % m.D.P.F j j j g @ Z.!.N.      o + W.M.j j j j j j j G K.      ",
"a b.( g v j j g g Z q.!.!.V.6.h h h h z h h h g g g g g g g , <.| 6               X v L.W.F.@ O O O O o O F.!.n.  . O m.!.F                   $ N.Q.R.F O O O O O o + J.!.F     + m.W.K.@ O O O O o + I.W.v     o g !.N.o o o o o o o o @       ",
"a b./ & v j g g g Z q.!.!.V.6.g g g g g g g g g g g g g g g , <.| 6               X + W.L.@           . O n Y.n.  X O F.!.d                 . O N.!.G             . O n.!.F     O M.!.g           X + P P.&     o F !.n.                        ",
"a b./ & v g g g g Z q.!.!.V.+.A A A A A Z z g g g g j j g d , <.| 6               o d !.Z.            . @ & P d   X + U.U.                  X O J.Q.              . O Z.!.g   X O D.!.o           X + + d     X O m.!.F                         ",
"a b./ & j g g g g Z q.!.!.D.d.d.d.f.f.d.a.6.j j g g g g g d , <.| 6               O F !.n.                        o % W.J.                  X O U.I.              X O J.!.    X O L.Y..                       X O F.!.@                         ",
"a b./ & h g g g g Z q.!.!.!.!.!.!.!.!.!.L. .k g g g g g g d , <.| 6             . O N.!.F                         o v !.m.                  o $ !.D.              o + U.L.    X O M.!.D.M.M.M.M.M.m.+         X O U.!.I I I n.n.I I I $         ",
"a b./ & g g g g g Z q.!.!.W.Q.Q.Q.Q.Q.Q.K._ z g g g g g g d * <.| 6             X O K.U.$                         O P !.F                   o F !.M.              o j W.A.      o + A.Y.Y.Y.Y.Y.Y.!.F.        o @ Q.!.!.!.!.!.!.!.!.R.&         ",
"a l./ & g g g g g Z q.!.!.C.y.8.8.8.8.8.8.A g g g g g g g g , <.| 6             X O Y.K.                        . O N.!.g                   O m.!.n               o P !.P         o & j j j j j @ N.!.M.      o v Y.P M M M M M M I K.          ",
"a 3.^ & g g g g g Z q.!.!.B.7.N N N V N l h g g g g g g g d , <.} 6             o $ !.A.                        X O J.Q.                  X O D.W.@             . O M.!.g         X O O O O O O o + U.!.g     o I !.F O O O O O O O &           ",
"a 3.^ & g g g g g Z q.!.!.B.5.g g g g g g g g g g g g f g d , <.} 6             o v !.m.                        X O U.I.                  X O I.U.              X O D.!.O                       X O I.!.    . O Z.!.g                           ",
"a 3.^ & g g j g g Z q.!.!.B.5.g g g g g g g g g g g g d g d * <.} 6             O I !.G             $ K.I.K.    o $ !.D.                  X + W.J.              X O I.U.    % n.n.F             X + W.L.    X O J.!.                            ",
"a 3.^ & g g g g g Z q.!.!.B.+.4.4.4.4.4.4.4.N h g g g g g 1 * <.} 6           . O N.!.F             $ G !.L.    o F !.M.                  o & !.F.              & & Q.D.    O A.!.N.            O d !.M.    o + U.L.                            ",
"u <./ & l h g g g Z q.!.!.S.g.g.g.g.g.g.g.g.9.N g g g g d 7 * <.} 6           X O F !.L.F F F F F F M.A.!.Z.    O m.!.n.M M M M M M M v   o + I.!.m.F F F F F P N.D.!.M.    o & Y.P.F F F F F F I M.!.G     o g W.J.n M M M M M M M d           ",
"w >./ & h g g c g Z q.!.!.!.!.!.!.!.!.!.!.!.s.A g g h g 7 0 * <.| 6             X O M.!.!.!.!.!.!.L.L.Q.L.$   X O N.!.!.!.!.!.!.!.!.!.F.  . O & R.!.!.!.!.!.!.K.L.W.J.&     X O F W.!.!.!.!.!.U.K.W.J.+     o n Q.!.!.!.!.!.!.!.!.!.M.          ",
"w >.^ % g g g g g C q.W.!.!.!.!.!.!.!.!.!.!.a.A g g f d d 0 = ,.| 6               o + F P P P P P F L.A.      X + j F P P P P P P P J.n.    X O v P P P P P P F P.N.          X O M P P P P P G P.Z.        O d n P P P P P P P P P.P           ",
"w >.*.% f g g g g x 8.e.e.e.w.w.e.w.e.e.w.w.8.l g g g g h & Y 2.| 6               . O + + + + + + + j         X + + + + + + + + + + % &       o + + + + + + + + v               o + + + + + + + v         . + + + + + + + + + + + g &           ",
"w $.<.* 0 f d g g g k V C C C C C B C C C C k g g 8 d d s % Y -.[ 6                                                                                                                                                                             ",
"< ] 2.u % 0 k d f h h h g g g g g g g g g g g k d 7 f i 3 # ' &.Q <                                                                                                                                                                             ",
"  R >.;.4 $ % 2 & 2 0 1 & & & & & & & & & & 1 9 & 2 < % $ t $.$.U                                                                                                                                                                               ",
"  t { >.*.> > % $ $ $ $ $ $ $ $ $ $ $ $ $ $ $ $ $ $ : > r %.:.[ T                                                                                                                                                                               ",
"  = ` { :.-.&.' ! W W W W W W ! ! W W W W W W W W W } &.&.$.{ ` ;                                                                                                                                                                               ",
"    6 ` [ [ $.%.%.%.%.%.%.%.%.%.%.%.%.%.%.%.%.%.%.%.%.%.[ [ ` 6                                                                                                                                                                                 ",
"      : r R ` [ [ [ [ [ [ [ [ [ [ [ [ [ [ [ [ [ [ [ [ ` U r -                                                                                                                                                                                   ",
"            6 5 5 5 5 5 5 5 5 5 5 5 5 5 5 5 5 5 5 5 5 6                                                                                                                                                                                         "
};
