/* XPM */
static char *_3dc0aa18e8c48a6c1ca31ed88f135b0ARJghPSbUVR8tHUC[] = {
/* columns rows colors chars-per-pixel */
"64 64 163 2 ",
"   c #262626",
".  c #282726",
"X  c #2C2C2C",
"o  c #332E2D",
"O  c #36312F",
"+  c #3A322D",
"@  c #343434",
"#  c #3A3634",
"$  c #3B3836",
"%  c #373738",
"&  c #37383A",
"*  c #3C3C3C",
"=  c #45352C",
"-  c #4C362D",
";  c #51372C",
":  c #403632",
">  c #423A37",
",  c #433E3C",
"<  c #4B3F39",
"1  c #503F37",
"2  c #5D3F30",
"3  c #3E403F",
"4  c #44413F",
"5  c #4C423D",
"6  c #574237",
"7  c #5F4436",
"8  c #53433B",
"9  c #5B453C",
"0  c #5C493F",
"q  c #644535",
"w  c #6B4634",
"e  c #624639",
"r  c #64493D",
"t  c #6F4938",
"y  c #734A37",
"u  c #3E3F40",
"i  c #3F4141",
"p  c #434343",
"a  c #4A4644",
"s  c #474847",
"d  c #4D4946",
"f  c #464748",
"g  c #494749",
"h  c #474849",
"j  c #4B4C4C",
"k  c #524742",
"l  c #544A45",
"z  c #5B4C44",
"x  c #524D4B",
"c  c #5A4F4A",
"v  c #4F504F",
"b  c #54514F",
"n  c #5B514D",
"m  c #4E4F50",
"M  c #4F5051",
"N  c #525355",
"B  c #5B5552",
"V  c #565857",
"C  c #5C5956",
"Z  c #555658",
"A  c #57595A",
"S  c #5A5B5D",
"D  c #634F43",
"F  c #655347",
"G  c #6C5243",
"H  c #66554C",
"J  c #69564B",
"K  c #6A584E",
"L  c #70584B",
"P  c #645751",
"I  c #655A53",
"U  c #6B5D55",
"Y  c #645E5A",
"T  c #6C5F58",
"R  c #5F605F",
"E  c #64615E",
"W  c #6A625C",
"Q  c #766154",
"!  c #74655E",
"~  c #5B5F60",
"^  c #5B5E61",
"/  c #5C5D60",
"(  c #5C5E60",
")  c #5D5E60",
"_  c #5D5F61",
"`  c #5D5F60",
"'  c #5C6061",
"]  c #5D6061",
"[  c #5C6161",
"{  c #5E6061",
"}  c #5D6062",
"|  c #5D6162",
" . c #5C6063",
".. c #5E6062",
"X. c #5F6062",
"o. c #5D6262",
"O. c #5F6263",
"+. c #5F6264",
"@. c #5E6162",
"#. c #616162",
"$. c #606163",
"%. c #666562",
"&. c #606264",
"*. c #606465",
"=. c #616565",
"-. c #626565",
";. c #626665",
":. c #616466",
">. c #606566",
",. c #616566",
"<. c #626567",
"1. c #616666",
"2. c #626667",
"3. c #676767",
"4. c #626465",
"5. c #6B6662",
"6. c #636867",
"7. c #676866",
"8. c #696966",
"9. c #636769",
"0. c #646768",
"q. c #636969",
"w. c #656869",
"e. c #656969",
"r. c #666869",
"t. c #65686B",
"y. c #656A6A",
"u. c #666A6B",
"i. c #676B6D",
"p. c #676D6D",
"a. c #676C6C",
"s. c #676C6E",
"d. c #656B6B",
"f. c #686B6A",
"g. c #686A6C",
"h. c #686C6D",
"j. c #696D6E",
"k. c #686E6E",
"l. c #6C6C6C",
"z. c #696D6D",
"x. c #716B66",
"c. c #6B6F70",
"v. c #6A6F70",
"b. c #6C7171",
"n. c #6F7374",
"m. c #6C7272",
"M. c #717171",
"N. c #717575",
"B. c #717576",
"V. c #717778",
"C. c #73797A",
"Z. c #757A7A",
"A. c #747A7C",
"S. c #747A7B",
"D. c #787C7D",
"F. c #797F7F",
"G. c #7D8183",
"H. c #7F8487",
"J. c #7C8283",
"K. c #808182",
"L. c #818686",
"P. c #848A8C",
"I. c gray56",
/* pixels */
"K.N g g d j d j Z j p 0 Z ......,.S A p * Y i.6.C.B.y...S S S S S ..,.....n j j S y.A f.f.,.N j B Z j m n z j A g g j j j j p * ",
"S N 3 j N x d c p j 5 > h N Z S #.Z N j g I S b.j.D.b.S A N n.A j N Z x Z ,.N A ,.S Z j.N N N x Y f.Z N A b N Z g * p N j * * X ",
"3.N d x x b 9 * p & & & p p m N S Z N ..A ,...A N y.( Z Z ( A.Z M f N M N S M ..&.S ....N g p p A j.S ( Z Z N S N p p p @ X * $ ",
"l.Z N n n 5 p p * % p * * g f m Z x N Q S c...( +.S ..Z y.c.C.,.N N N ..,.%.S 9.y.y...S Z p , 5 Z g.A ..N N N S M * p * X % a : ",
"M.Z j M c 0 p * * p j j p g m Z A N n L S ,.^ y.y.9.S S j.j.a.^ N Z ....S y.S q.,.a.( S M p p j N y.Z S N N N j p % % % % * a @ ",
"#.N g p M m p p j Z M N S Z Z N N A m m A S ,.,.J.H.n...a.j.a.,...,.j.i.a.,.S y.A ..Z ( N N N N N Z ( S N Z g p * p * p j j * @ ",
"N N k h m j k j b M A Z A N ..A Z S M m S y.j.j.y.J.J.y.j.j.j.+.S y.a.a.j.j.S S N S A ..N N N N m m ( A ..M f p j p p N N g * X ",
"d A l j N m p p g Z Z S A A S A N Z S S ,.n.D.B.b.P.P.D.b.q...,.S q.b.q.%.a.S N N S A A N N M m M Z Z A ,.N p d N N p N p g * @ ",
"N Z N N N j i l g j N N A S S M N h A a.D.J.b.j.A.J.J.D.j.y.+...-.3.N.I y.i.Z Z N 9.A A N N N N N Z N S y.N N x N N Z p g f * @ ",
"Z N Z N M f u l f m c N Z S A A p M y.a.C.J.c.y.a.y.j.j.C.j.b.b.r.l.%.W U y.Z N M Z S A N N N N S N N N r.N N N Z A A N N j * @ ",
"A Z N A N g u j m m g M N Z N ..N ..c.C.a.j.j.n.S y.a.a.m.a.b.n.A 3.W W K ,.N N Z N Z Z N N M S S Z S Z S N N j Z S Z N N j p % ",
"Z S Z ..A j f M f j 4 p N N Z ..9.b.q.C.b.a.b.b.n.q.y.y.j.a.a.y.j.a.i.y.,.N j j N N N N N N S A N ..y.j Z N N j N A A N N A p X ",
"A A N #.N j p g N N g p N j j ,.A c.V.n.a.a.a.j.j.y.F D 3.y.f.f.B.n.+.A Z N p j j j m N M Z Z ..,...N j S N M N N A N N N A j * ",
"S Z N N g f f m M j M h S N M M c.J.C.^ ,.a.B.M.Y %.H #.8.l.5.l.l.j.a.b.y.i.N j S j f N m ,...y.y.N N m N N N N N N Z Z N Z d # ",
"Z N j A N m p j N N ,.j.V.N +.c.j.c.y.N Z A i.C.U Y 8.y.y.y.c.a.5.a.a.a.a.y.A ( y.,.b.N.J.L.j.! y.j j g N N N A ( S S Z Z Z N + ",
"Z N S Z N m p f f M ( ,.g.b.j.C.,.S A m j m ,.P.y.x.3.,.y.8.a.a.f.a.a.a.i.&.N ,.y.y.j.C.n.S 3.a.Z N N S A A.y.Z ,...Z N N N N * ",
"Z S S A Z j p p p Z ( j.J.C.j.,.y...N b A ,.y.J.,.b.j.q.a.a.a.a.a.a.a.a.a.A N A ,.j.a.a.a.....y.y.q.,.y.y.b.,.A S N M N N N j % ",
"V Z Z S A h p N j S &.y.P.A.Z ..C S S N 9.+.y.b...,.a.j.y.a.q.a.a.a.a.a.a.M N N ..S y.y.' S ..y.a.a.a.V.C.A.c.&.S Z M Z N M p X ",
"Z h Z N N p u N N S ..j.A.j.....l.q...j.j.a.a.a.,...y.y...( i.b.y.r.9.,.y.....S Z A Z A N A ..i.a.a.j.D.D.C.y.,.Z N j n g * p @ ",
"A N Z N Z d q N m N ..( 9...S ..A Z ..C.a.a.a.a.+.q.y.( j.V.c.a.y.y.a.n.y.+.,.S Z y.( +.A S c.j.a.y.a.a.n.i.S ..S N N N & * g % ",
"N Z Z N N N g m j Z A Z A ..S S N Z n n.a.a.a.a.+.y.E y.C.b.b.a.n.i.a.j.y.y.,.q...N N Z y.Z N r.B.y.q.a.n...y.i.A A A V b x N > ",
"N g j a N N N Z N N N N N ,.A A 9.+.Y V.a.a.a.y.Y q.G 7.a.,.y.9.y.B.b.9.,.S ( q.S M M N 9...,.Z b.,.j 5.#.N g S S ..N A S j j p ",
"N j g d n N N ( M h x b S y.q.&...+.,.D.y.q.%.y...I G a.a.a.j.y.y.y.C.q.&.,...9.q.N N ....y.S S a.S x W b N p N N N ,.Z M j x p ",
"N Z N n D Z N N x l Z Z ^ r.A S A S y.C.b.j.y.y.+.K 3.y.a.b.B.a.,.j.D.b.b.J.a.( y.S N ..y.S ..( ,.S M ( N ..A N N 3.#.A S N N p ",
"N A Z N N Z S j j j z A S N N N ..,.j.L.J.B.b.y.+.y.j.a.b.,.y.#.y.j.a.b.j.y.y.A ,...Z S ,.,.&.S S ..N A Z N N A S r.3.#.g.x g * ",
"j A N N N N N j p j A N Z N N N ,.a.J.n.C.C.S S A S y.a.a.a.a.S ,.,.,.a.j.,.a.y.q.y.y...r.Z Z &.&.#.Z N N N ..Z N Z Z ..g.x p @ ",
"j N r N B Z m N Z N N N M N N A ,...y.a.j.j.9.+.A N ,.S q.q...S N A y.a.a.,.,.a.+.S ,...A N S #.....S 3.N N M Z N M N Z A j < + ",
"g r r r t Z Z N Z N N N ..N Z S ..f.y.a.a.,.y.N N N N j y.+.S A N ..,.a.a.a.,.q.A ( S S Z N A ,.A ( y.M N N Z A N m N N N p 4 % ",
"a z y r x Z n N N N N Z N N N h S a.y.a.,...,.A ( ..x j q.+.Z Z A S q.y.q.a.y.y.S ( ^ S N N N S N N A M ..A S A N N g M c x h @ ",
"d n b m Z N S Z S N N A N A Z S j N M ..S y.y.Z Z S j j &.S N N S S ..S g.T B ,.S N &.Z x N N N Z N N B Z N Z N N N l j j p * @ ",
"j Z N S Z Z A S ( Z N Z N N N N Z l ..S ..y.A A N S N Z A N N N S A ..Z ,.B n Z N Z A N N N H b N S E n N N S Z A N j j g p > @ ",
"j N A N Z N j m N N N N N N N &...5 ,.S S ..N A Z S j A N N N N Z Z i.Z Z A Z N N N N N N N n D N N B N N M N N A N j N p p * @ ",
"j N N N &.B z v j j N N N Z N S N v A Z #.S N Z ( Z g p j j k k N Z g.A Z N N N N N N N N S A b N M N N N N j N Z 0 l j g p * @ ",
"j g N N ..N N j Z j N N N Z N N N j m A Z S N N S N Z A j j 9 9 Z A y.A N N N N N Z N N N y.A b r M m Z N j j m N g p g p p * % ",
"j N m p N N m N S &.&.N N N N m j g m N N S Z Z N N N S N p g j N Z ( V S A N N N &.A N Z Y n A n N m j N m N m g j g p p p * @ ",
"j N N p j m N j N N g N Z N Z N j g m N N S Z Z N N N Z A j p g l Z ..&.S Z N N N S N N N N m A A S f j M N N g g g p p * * * @ ",
"j j p g j S g h g j j j j M g m N N j N A #.Z Z N Z Z ,.j.m x E G S ,.A N Z N N g N N N N N m N N N j h h M m m m m v g * 3 * @ ",
"j Z Z j j Z j j g p p M N N S S N N j N Z B N N N Z N ,.b.A C q K a.S N N N N m j m j N V b N Z N Z N N j j m m j M j j p p * O ",
"j Z Z M g Z v M N N g v N Z g.&.N N N A M N b Z Z Z N Z A B R B y.E S Z N N N N N N j m S A S N Z Z Z N M x j j j j g g p p s o ",
"j Z Z j g B N N Z N N N A S i.r.N N m N M N V B N N Z S ..W Y ,.r.x j N N N j N N m j j S A A N N N Z b m j j j j j g g * g p @ ",
"j Z Z p p N g Z N N g N Z V ....A N m N N N N N N N S N ..#.S P a g M N N m f h m N M j S A N N Z g p N j g g d 8 d p d p p * % ",
"j Z j p * p p N M N j N N N N N N N j m N N N N N N H S A N N N m p j m j p M N j N N N S N N Z Z j p j k g p 4 2 5 * p p p p @ ",
"j N h * * p g j h v j N N N N j j N j g p N N N N N J S A N N N N p p j N j N N N N N N S A Z Z N j p M j s * * , d p p p % * * ",
"N M p * p p p p g g p j N M N N v N j p * g j g N N Z S Z N N N N N p j N N N N N N N j ( N g j j p j N p p * p @ * p p p p * @ ",
"j p , * * p * p p p j A S N N N j B j g p p j * j N N S N N N N N j j N N Z Z N N N N N A N p g j g j N g j N j * , g * * p @ X ",
"x 9 8 p p p g p p p j g S j N N N g j p g p N p g m N #.A N N N N g g j N N A Z j N S Z Z g j j m N N Z N B C j > , p p * * X X ",
"j p 5 * p p p p p a j g j V N M j p j g p p #.N p p g A Z N N N N j p N j g N N S Z ( N j j j p j N Z I j N y.N * p p p 4 @ % % ",
"g p * * p p g p 5 w 1 d N Z S j j N p p p g N N N g j j j N N j j N N N g p p j Z Z Z N j j m p N Z N C N B S p p p p p p * * % ",
"j p * * h p j p * h a j g s j j N A j p j g A N j j N j M j j p j p j j j g p p Z Z Z N Z N l z N ..N A v a p p p p p * p d p % ",
"j p * p p * p * * p p p p p a p N N p p p g N j g j j g g p * p p p g g N Z N v Z Z Z Z Z ..x g M S N N x p 5 p p p p p p Z N * ",
"* , * p * * * * p N p * * * 7 p j N j p * * * p d g a p p p * * * * g g j Z Z Z Z Z Z Z Z ..N p m S S N M p p j p * p N g N p @ ",
"$ < * * * * * * * p * * * * p Z g g j j N p p p * * a p p p p 3 g g g g N Z N h Z Z A #.S %.d * j V M N a p p p p p g g j p * @ ",
"p p * p * * * * * * * % * * g j p p j j p N p p N 6 a j j p p j N N N N j v N j N N Z A A #.N g N N g 9 q p p p p * g j p p * X ",
"* * p p * * * * * * * % * p g p p p g j g g p Z Z N N Z j p h N N N g j g j j N N N N N j S Z N N N N a x p p A Z p p p 5 p * X ",
"* * p p * * * * p * p * p p p p * * p p p j * j Z V V N g k v j p g g j j j d p j N j N N S Z N N f j s a p p g g p * * , * @ X ",
"% * * * * * * * g * * * p * p p * * * * * p N j g j p p p 9 j N p p p p p p g p g p p Z A S N N N f p p p p p g p * * * * * @ X ",
"% $ * % * * % * * 3 * g p * p * p p * * * * p p * 4 p p p p p p j p g p * p * p g g N j j A N N g p p p * p * p p * * * * @ *   ",
"@ @ X % * * * * * * * d * * * * p j * * * * p j p p p p p * * * * * * p p * p n z a g j g j N N p * * l p p * p * * * * % X X   ",
"@ @ @ @ @ % @ * * * * , * j j * * * * * * * p N p p 5 p p * * * @ @ @ % * * * N Z g j a a p * s i < , N p * % * * % % % * X X X ",
"@ % X X X @ @ @ * * q , g j p p * * * * % @ % p g p p p p * * * % @ X @ * * * p x p p e 8 * * * * * p * * * X X X X   X @ @ X X ",
"@ * % X X X X % * * * * * p * * % * * % * * @ * p * p * * * * * % % @ @ @ X @ p p p * , # * * % * # @ @ X X X X X .   X X X X   ",
"X @ X X @ % X X @ * * * * * * * % % % @ % * % * * * * * 4 * * * % % % @ * @ * Z g p * * % % % o o = + - X X X X X ; = X X X @   ",
"  @ % X @ % @ @ X X * * * * * % @ X X X % % @ @ X % * * * * p * % % $ $ * * p p * * * * * @ X X o X o @ X X X X @ @ O X X X X f.",
"    X X         @ @ X X X X @ X     X X X X X   X X X X X X X X X X X X . . X X X X X X X X X       X       X   X X       . 3.I."
};
