/* XPM */
static char *_50215c607a344b0ad214cc60ce0f8e5[] = {
/* columns rows colors chars-per-pixel */
"64 64 164 2 ",
"   c #2A2726",
".  c #2C2C2C",
"X  c #332E2D",
"o  c #3A322D",
"O  c #343434",
"+  c #3A3634",
"@  c #373738",
"#  c #393738",
"$  c #37383A",
"%  c #3C3C3C",
"&  c #482D2D",
"*  c #46352C",
"=  c #4C362D",
"-  c #51372C",
";  c #4D3232",
":  c #433C3C",
">  c #4D3C3B",
",  c #523536",
"<  c #523E37",
"1  c #543B3B",
"2  c #5B3C3C",
"3  c #673434",
"4  c #6C3636",
"5  c #643C3C",
"6  c #6C3C3C",
"7  c #733939",
"8  c #7A3C3C",
"9  c #3E403F",
"0  c #44413F",
"q  c #4C423D",
"w  c #574237",
"e  c #53423C",
"r  c #5C433E",
"t  c #644435",
"y  c #61433C",
"u  c #6C413F",
"i  c #64493D",
"p  c #6F4938",
"a  c #714037",
"s  c #734A37",
"d  c #673F40",
"f  c #6A3F40",
"g  c #434343",
"h  c #4B4444",
"j  c #4D4946",
"k  c #464748",
"l  c #494749",
"z  c #474849",
"x  c #4C4C4C",
"c  c #544444",
"v  c #5C4342",
"b  c #554945",
"n  c #5D4943",
"m  c #574748",
"M  c #5A4748",
"N  c #534C4C",
"B  c #5A4B4C",
"V  c #4F504F",
"C  c #54514F",
"Z  c #5B514D",
"A  c #4E4F50",
"S  c #544F51",
"D  c #5D4F50",
"F  c #4F5051",
"G  c #535355",
"H  c #5B5454",
"J  c #565857",
"K  c #5C5855",
"L  c #555658",
"P  c #5B5758",
"I  c #57595A",
"U  c #5B5B5D",
"Y  c #654444",
"T  c #6B4343",
"R  c #644F44",
"E  c #6B494A",
"W  c #714040",
"Q  c #714B47",
"!  c #714C4B",
"~  c #655347",
"^  c #6C5142",
"/  c #66544C",
"(  c #6A544A",
")  c #6A584E",
"_  c #70584B",
"`  c #754F50",
"'  c #635554",
"]  c #6F5151",
"[  c #645954",
"{  c #6B5D55",
"}  c #635758",
"|  c #645C5C",
" . c #6A5C5B",
".. c #715353",
"X. c #725C57",
"o. c #765858",
"O. c #7A5C5C",
"+. c #64615E",
"@. c #6A615C",
"#. c #766154",
"$. c #5D5E60",
"%. c #645F60",
"&. c #5E6062",
"*. c #626464",
"=. c #696162",
"-. c #6B6662",
";. c #6A6465",
":. c #6A6566",
">. c #696667",
",. c #6A6463",
"<. c #676866",
"1. c #696966",
"2. c #696966",
"3. c #636769",
"4. c #676769",
"5. c #636769",
"6. c #696768",
"7. c #636969",
"8. c #656868",
"9. c #676868",
"0. c #656A6A",
"q. c #676B6D",
"w. c #676C6C",
"e. c #666B6B",
"r. c #69696A",
"t. c #6B696A",
"y. c #686B6A",
"u. c gray42",
"i. c #696B6C",
"p. c #696D6E",
"a. c #6C6C6C",
"s. c #6E6C6D",
"d. c #696C6D",
"f. c #716B66",
"g. c #716B6B",
"h. c #6B6F70",
"j. c #6E6F70",
"k. c #6B6F70",
"l. c #6C7171",
"z. c #6F7373",
"x. c #6F7374",
"c. c #6D7272",
"v. c #717171",
"b. c #727273",
"n. c #717575",
"m. c #717576",
"M. c #717576",
"N. c #717778",
"B. c #727778",
"V. c #737879",
"C. c #73797A",
"Z. c #747A7C",
"A. c #73797A",
"S. c #797879",
"D. c #7B7D7E",
"F. c #797C7D",
"G. c #7B7F80",
"H. c #7D7F81",
"J. c #7B7F80",
"K. c #7C8283",
"L. c #7C8182",
"P. c #818585",
"I. c #818585",
"U. c #848A8C",
/* pixels */
"3 3 3 3 3 3 3 3 3 3 3 3 3 3 3 3 3 3 3 3 3 3 3 3 3 3 3 3 3 3 3 3 3 3 3 3 3 3 3 3 3 3 3 3 3 3 3 3 3 3 3 3 3 3 3 3 3 3 3 3 3 3 3 3 ",
"3 3 3 3 3 3 3 3 3 3 3 3 3 3 3 3 3 3 3 3 3 3 3 3 3 3 3 3 3 3 3 3 3 3 3 3 3 3 3 3 3 3 3 3 3 3 3 3 3 3 3 3 3 3 3 3 3 3 3 3 3 3 3 3 ",
"3 3 3 3 r C r % g $ $ $ g g A G U L G &.I *.&.I G 0.$.L L $.Z.L F k G G G U F &.*.U &.&.G l g g I p.U $.L L G U G g g g ; 3 3 3 ",
"3 3 3 3 3 2 g g % @ g % % l k A L N G #.U h.&.$.&.U &.L 0.h.C.*.G G G &.*.,.U 3.0.0.&.U L g : q L i.I &.G G G U F % g , 3 3 3 3 ",
"3 3 2 3 3 3 1 % % g x x g l A L I G Z _ U *.$.0.0.3.U U p.p.w.$.G L &.&.U 0.U 7.*.w.$.U F g g x G 0.L U G G G x g # , 3 3 3 3 3 ",
"3 3 l 1 3 3 3 2 b H N G P L L G G H N N H P *.*.D.H.j.U 0.r.0.*.U *.r.r.0.*.P *.H U L U G G G G G L U P G L l g : 2 3 3 3 2 3 3 ",
"3 3 c l v 3 3 3 5 N H H H S U H H P N N P *.>.>.*.S.S.*.>.>.>.| P *.*.*.>.>.P P S P H U S S S S N N U H U N l h 2 3 3 3 v l 3 3 ",
"3 3 b x G v 3 7 7 4 d T T T T T d Y T T T E ! E E ` ` ! E T T T T T E T T T T d d T T T d d 5 5 5 Y Y T T d 5 4 7 7 3 v g l 3 3 ",
"3 3 G G G b 2 7 4 4 4 4 7 7 7 7 7 7 7 7 7 7 7 7 7 7 7 7 7 7 7 7 7 7 7 7 7 7 7 7 7 7 7 7 7 7 7 7 7 7 7 7 7 4 4 4 4 7 Y h l k 3 3 ",
"3 3 L G F l : 4 4 3 4 6 T E E E 2 Y ] ..o.O...] ..] ....o.......] ..E ! Q ] E Y Y E E E Y Y Y Y E Y Y Y E 6 4 3 7 6 H G G x 3 3 ",
"3 3 G I G l : 5 4 4 7 7 6 B N U H U r.v.*.6.6.s.P *.*.*.r.*.u.s.H *. . .( *.H H H G H H H H N P P H P B 6 4 4 4 4 B L G G x 3 3 ",
"3 3 L &.I x l 5 4 6 7 3 7 6 D $.3.z.7.C.z.w.z.z.z.7.0.0.p.w.w.0.p.w.q.0.*.G x x G G G G G G U I G $.| 5 7 3 3 4 6 B P G G I 3 3 ",
"3 3 G *.G x h 5 7 Y 6 7 7 7 5 } H h.N.x.w.w.w.p.p.0.~ R *.0.r.r.m.x.&.I L G g x x x A G F L L &.*.} 6 7 7 7 6 7 6 B G G G I 3 3 ",
"3 3 G G l l l 5 7 Y m 5 7 7 7 6 >.G.C.$.*.w.m.v.| ,./ *.1.s.-.s.s.p.w.z.0.q.G x U x k G A *.&.0.*.6 7 7 7 6 v 8 7 M L L G L 3 3 ",
"3 3 x I G N h 5 7 Y | =.T 7 7 7 T >.0.G L I q.C.{ | 1.0.0.0.h.w.-.w.w.w.w.0.I $.0.*.z.m.K.P.i.X.T 7 7 7 6 B M 8 W D P L L L 3 3 ",
"3 3 U L G N h 5 7 Y U *. .T 7 7 7 T H N x A *.U.0.f.*.*.0.1.w.w.r.w.w.w.q.*.G *.0.0.p.C.z.P | T 7 7 7 6 D N. .8 W ' L G G G 3 3 ",
"3 3 U I L x h 5 7 E U p.D.g.T 7 7 7 5 M P *.0.K.*.z.p.7.w.w.w.w.w.w.w.w.w.I G I *.p.w.w.0.} f 7 7 7 T *.*.s.} 8 W M S G G G 3 3 ",
"3 3 L U I l h d 7 E | 0.U.V.H T 7 7 7 5 %.%.0.z.&.*.w.p.0.w.7.w.w.w.w.w.w.F G G &.U 0.*.U f 7 7 7 T *.m.C.V. .8 W B S L G F 3 3 ",
"3 3 L G G g : d 7 E U p.Z.p.$.U T 7 4 7 T *.0.w.*.&.0.0.&.$.q.z.0.0.3.*.0.&.&.U L I L H 6 7 4 7 T *.i.D.D.N. .8 7 M x Z l % 3 3 ",
"3 3 L G L j t d 7 Y U $.3.&.U U H 5 7 7 7 T | 0.&.7.0.$.p.N.h.w.0.0.w.x.0.&.*.U L *.P T 7 7 7 T | *.0.w.x.0.D 8 W M G G $ % 3 3 ",
"3 3 L G G G h 5 7 E H L I &.U U G H 6 7 7 7 T *.&.0.+.0.C.z.z.w.x.q.w.p.0.0.*.7.$.N 6 7 7 7 6 %.m.0.7.p.x.$. .8 7 B P J C N 3 3 ",
"3 3 x l G G S Y 7 Y H G G *.I I 3.$.[ T 7 7 7 T [ 7.^ <.w.*.0.3.0.m.z.3.*.U $.7.P 6 7 7 7 T | L z.*.x -.*.G c 8 W ' G I U x 3 3 ",
"3 3 l j Z G S T 7 Y N C U 0.7.*.&.&.*.g.T 7 7 7 T / ^ w.w.w.p.0.0.0.C.7.*.*.U | T 7 7 7 6 | U U w.U N @.C G > 8 7 M *.L F x 3 3 ",
"3 3 G Z R L S d 7 Y H L $.0.I U I U 0.m.>.T 7 7 7 6  .0.w.z.m.w.*.p.D.z.z.L.| 6 7 7 7 T *.P &.$.*.U F $.G $.B 8 7 [ *.I U G 3 3 ",
"3 3 L G G L P 5 7 Y n I U G G G &.*.p.P.G.g.T 7 7 7 T =.s.*.0.*.0.p.w.z.r.| T 7 7 7 d P *.*.*.U U &.G I L G M 8 W } *.*.i.N 3 3 ",
"3 3 G G G G S 5 7 Y H G L G G G *.w.K.x.C.C.P 6 7 4 7 T *.0.w.U *.*.*.0.=.T 7 4 7 6 | $.0.L L *.*.*.L G G G ' 8 f B L &.i.N 3 3 ",
"3 3 i G H L N d 7 Y G G F G G I *.&.0.w.p.p.*.} 6 7 7 7 T | $.U G I 0.=.W 7 7 7 T H *.&.I G U *.&.&.U *.G G m 8 f N G L P x 3 3 ",
"3 3 i i p L H d 7 Y G G &.G L U &.r.0.w.w.*.0.G N 6 7 4 7 T P P G $.| T 7 4 7 T H U U U L G I *.I $.0.F G G B 8 f m G G G g 3 3 ",
"3 3 s i N L B d 7 Y H L G G G z U w.0.w.*.&.*.I U U 6 7 7 7 6 B H H T 7 7 7 T *.P $.$.U G G G U G G I F &.I D 8 7 M l F B N 3 3 ",
"3 3 C A L G P Y 7 Y G I G I L U x G F &.U 0.0.L L U b 5 7 7 7 6 H 6 7 7 7 u B *.U G *.L N G G G L G G H L G B 8 7 M b x x g 3 3 ",
"3 3 G U L L H T 7 E H L G G G G L b &.U &.0.I I G U G H 6 7 4 4 6 4 4 7 T Z Z L G L I G G G / C G U +.Z G G D 8 7 M x x l g 3 3 ",
"3 3 I G L G x 5 7 Y H G G G G *.&.q *.U U &.G I L U x P N 6 4 4 4 4 4 6 B P L G G G G G G G Z R G G H G G S M 8 7 M x G g g 3 3 ",
"3 3 G G *.H n 5 7 Y H G G L G U G V I L *.U G L $.L l g x c 3 4 3 4 4 B L G G G G G G G G U I C G F G G G G c 8 7 y b x l g 3 3 ",
"3 3 G G &.G S 5 7 Y H G G L G G G x A I L U G G U G L P b 6 4 4 4 4 4 6 N G G G G L G G G 0.I C i F A L G x c 8 7 c g l g g 3 3 ",
"3 3 A g G G N d 7 E | G G G G A x l A G G U L L G G G P 6 7 4 4 6 4 4 7 f H G G G *.I G L | Z I Z G A x G x M 8 6 c l g g g 3 3 ",
"3 3 G g x N S 5 7 Y h G L G L G x l A G G U L L G G N 5 7 7 7 6 v 6 7 7 7 5 N G G U G G G G A I I U k x F G M 8 6 c g g % % 3 3 ",
"3 3 g l x P h 5 7 Y x x x F l A G G x G I *.L L G H 6 7 7 7 6 [ ^ H T 7 7 7 6 N l G G G G G A G G G x z z S c 8 6 c N l % 9 3 3 ",
"3 3 L x x L x 5 7 2 g F G G U U G G x G L H G G N 6 7 4 7 Y H t ) r.P 5 7 4 7 5 b x x G J C G L G L G G x x c 8 6 m x x g g 3 3 ",
"3 3 L F l L N 5 7 Y h V G L i.*.G G G I F G N B 6 7 7 7 6 B U H 0.+.U D 6 7 7 7 6 B x A U I U G L L L G F N c 8 6 c l l g g 3 3 ",
"3 3 L x l H S d 7 Y H G I U q.0.G G A G F G H 6 7 4 7 f U @.| *.0.N x G N 6 7 4 7 6 b x U I I G G G L C A x c 8 6 c l l % l 3 3 ",
"3 3 L g g G h Y 7 Y h G L J &.&.I G A G G S 5 7 7 7 6 N U *.U [ l l F G G N 5 7 7 7 5 b U I G G L l g G x l c 8 7 c g j g g 3 3 ",
"3 3 x g % g h d 7 Y x G G G G G G G x N N 6 7 7 7 6 R U I G G G A g x A x g N 6 7 7 7 5 P G G L L x g x c l > 8 7 1 % g g g 3 3 ",
"3 3 z % % g h 5 7 Y x G G G G x x G x c 6 7 7 7 5 N ( U I G G G G g g x G x H N 5 7 7 7 6 H L L G x g F x l > 8 4 c g g g @ 3 3 ",
"3 3 g % g g h 5 7 Y g x G F G G V G b 5 7 7 7 5 S G L U L G G G G G g x G G G G S 6 7 4 7 5 h x x g x G g g > 8 6 > g g g g 3 3 ",
"3 3 : % % g : 5 7 2 x I U G G G x B 5 7 7 7 6 : x G G U G G G G G x x G G L L G G N 6 7 7 7 5 h x l x G l x M 8 4 > l % % g 3 3 ",
"3 3 e g g g h 5 7 2 x l U x G G N 5 7 7 7 5 B g l A G *.I G G G G l l x G G I L x G H 6 7 7 7 5 N G G L G H B 8 4 > g g % % 3 3 ",
"3 3 q % g g h 5 7 y x l x J G N 5 7 4 7 5 h *.G g g l I L G G G G x g G x l G G U L U S 5 7 4 7 5 N L [ x G  .8 4 > g g 0 O 3 3 ",
"3 3 % % g g h 5 7 a < j G L P 5 7 7 7 5 h l G G G l x x x G G x x G G G l g g x L L L H b 5 7 7 7 6 N K G H D 8 6 > g g g % 3 3 ",
"3 3 % % z g x 5 7 Y h x l h 5 7 7 7 5 h x l I G x x G x F x x g x g x x x l g g L L L G L N 5 7 7 7 5 H N h > 8 6 > g % g j 3 3 ",
"3 3 % g g % h 5 7 2 g g > 6 7 7 7 6 h g g l G x l x x l l g % g g g l l G L G V L L L L L U b 5 7 7 7 6 m g 1 8 6 > g g g L 3 3 ",
"3 3 % g % % : 5 7 Y h : 5 7 7 7 5 N x g % % % g j l l g g g % % % % l l x L L L L L L L L $.G h 5 7 7 7 6 h 1 8 6 > g G l G 3 3 ",
"3 3 % % % % : 5 7 5 > 5 7 7 7 6 h l x x G g g g % % l g g g g 9 l l l l G L G z L L I *.U ,.j % b 6 7 7 7 5 1 8 6 > l l x g 3 3 ",
"3 3 % g % % : 2 7 2 5 7 7 7 5 b g g x x g G g g G w l x x g g x G G G G x V G x G G L I I *.G l G B 5 7 7 7 3 7 4 > l x g g 3 3 ",
"3 3 g g % % : 2 4 6 4 3 7 5 c g g g l x l l g L L G G L x g l G G G l x l x x G G G G G x U L G G G B 5 7 3 3 4 6 > g g q g 3 3 ",
"3 3 g g % % : 5 4 4 4 3 3 1 1 > > > > > > c > c B B B M c r c c > c c c c c c > c M c M B H B M M c c 2 3 3 3 4 4 1 % % : % 3 3 ",
"3 3 % % % : : 6 4 3 4 4 7 8 8 8 8 8 8 8 8 8 8 8 8 8 8 8 8 8 8 8 8 8 8 8 8 8 8 8 8 8 8 8 8 8 8 8 8 8 8 8 7 4 4 4 7 5 : % % % 3 3 ",
"3 3 % @ % : , 7 4 7 4 4 4 4 6 4 6 6 4 4 4 4 6 6 4 4 6 6 6 6 6 6 6 6 6 6 4 6 4 6 6 6 7 6 6 7 7 7 6 6 6 6 4 4 4 7 4 7 2 : % O 3 3 ",
"3 3 . @ % 1 3 7 7 5 > c > > > > > c > > > > > c > > > > > > > > > > > > > > > n r e c c c c M M > > > r > > > 6 7 7 3 1 # . 3 3 ",
"3 3 O O ; 3 3 3 2 : % : % x x % % % % % % % g G g g q g g % % % O O O # % % % G L l x l h g % l g > : G g % # : 2 3 3 3 , . 3 3 ",
"3 3 . ; 3 3 3 , : : t : l x g g % % % % @ O @ g l g g g g % % % @ O . O % % % g N g g i e % % % % % g % % % . X X ; 3 3 3 ; 3 3 ",
"3 3 , 3 3 3 ; # % % % % % g % % @ % % @ % % O % g % g % % % % % @ @ O O O . O g g g % : + % % @ % + O O . . . . .   & 3 3 3 3 3 ",
"3 3 3 3 3 , . . O % % % % % % % @ @ @ O @ % @ % % % % % 0 % % % @ @ @ O % O % L l g % % @ @ @ X X * o = . . . . . - * ; 3 3 3 3 ",
"3 3 3 3 3 3 3 3 3 3 3 3 3 3 3 3 3 3 3 3 3 3 3 3 3 3 3 3 3 3 3 3 3 3 3 3 3 3 3 3 3 3 3 3 3 3 3 3 3 3 3 3 3 3 3 3 3 3 3 3 3 3 3 3 ",
"3 3 3 3 3 3 3 3 3 3 3 3 3 3 3 3 3 3 3 3 3 3 3 3 3 3 3 3 3 3 3 3 3 3 3 3 3 3 3 3 3 3 3 3 3 3 3 3 3 3 3 3 3 3 3 3 3 3 3 3 3 3 3 3 "
};
