/* XPM */
static char *b2c05703164342818650264fe597bdf8h37iUON0rWZwG5as[] = {
/* columns rows colors chars-per-pixel */
"64 64 184 2 ",
"   c #362A1E",
".  c #262626",
"X  c #272827",
"o  c #292927",
"O  c #272728",
"+  c #282728",
"@  c #2C2C2C",
"#  c #312F2E",
"$  c #30302F",
"%  c #3B322A",
"&  c #2F2F30",
"*  c #2F3031",
"=  c #343434",
"-  c #393533",
";  c #3A3837",
":  c #373738",
">  c #383738",
",  c #3C3C3C",
"<  c #373839",
"1  c #5B3A1D",
"2  c #643D1C",
"3  c #43352D",
"4  c #4B362C",
"5  c #463522",
"6  c #543A29",
"7  c #433E3B",
"8  c #4D3F39",
"9  c #4E3E37",
"0  c #503D37",
"q  c #603F20",
"w  c #3F403F",
"e  c #5F401F",
"r  c #6A451E",
"t  c #764B1E",
"y  c #70471F",
"u  c #5D4422",
"i  c #45413E",
"p  c #4C423D",
"a  c #5A4032",
"s  c #52443C",
"d  c #57483F",
"f  c #574437",
"g  c #6C4921",
"h  c #684B27",
"j  c #784F20",
"k  c #6D5128",
"l  c #745327",
"z  c #654433",
"x  c #634A3D",
"c  c #6B4A3A",
"v  c #61473A",
"b  c #764B34",
"n  c #605239",
"m  c #7A543F",
"M  c #3F3F40",
"N  c #403F40",
"B  c #3F4040",
"V  c #434344",
"C  c #4B4543",
"Z  c #4D4946",
"A  c #464748",
"S  c #484748",
"D  c #474849",
"F  c #4B4C4C",
"G  c #524A46",
"H  c #5C4C44",
"J  c #534E4B",
"K  c #554B46",
"L  c #4E504F",
"P  c #55514E",
"I  c #5A524E",
"U  c #4D4F50",
"Y  c #4F5152",
"T  c #525455",
"R  c #5A5653",
"E  c #575857",
"W  c #5C5956",
"Q  c #545758",
"!  c #56595A",
"~  c #5A5C5D",
"^  c #624D42",
"/  c #694D40",
"(  c #655247",
")  c #6A5244",
"_  c #63544B",
"`  c #65584E",
"'  c #625A55",
"]  c #6A5C52",
"[  c #665B56",
"{  c #745544",
"}  c #5D605F",
"|  c #64615D",
" . c #6B645E",
".. c #6E6056",
"X. c #74645B",
"o. c #766D49",
"O. c #5C5F60",
"+. c #5E6262",
"@. c #626566",
"#. c #626565",
"$. c #6A6662",
"%. c #656867",
"&. c #6A6967",
"*. c #636768",
"=. c #636869",
"-. c #646868",
";. c #666A6A",
":. c #666B6B",
">. c #696C6D",
",. c #6D6F6F",
"<. c #696D6D",
"1. c #726A65",
"2. c #6C706F",
"3. c #70706E",
"4. c #6A6F70",
"5. c #6D7071",
"6. c #6D7373",
"7. c #717373",
"8. c #707374",
"9. c #727575",
"0. c #717576",
"q. c #717778",
"w. c #757979",
"e. c #747A7A",
"r. c #797E7E",
"t. c #8B5D26",
"y. c #815B26",
"u. c #8C6228",
"i. c #926123",
"p. c #986524",
"a. c #956A2A",
"s. c #9C6B29",
"d. c #956727",
"f. c #9E732D",
"g. c #927839",
"h. c #A16E26",
"j. c #A1742E",
"k. c #AE792B",
"l. c #A7752A",
"z. c #887645",
"x. c #B7812C",
"c. c #B98531",
"v. c #B9923B",
"b. c #C28E34",
"n. c #C59A3E",
"m. c #C89839",
"M. c #D5A138",
"N. c #92854F",
"B. c #988E5E",
"V. c #B39256",
"C. c #A78446",
"Z. c #928A6C",
"A. c #A99D6C",
"S. c #C59F44",
"D. c #CBA343",
"F. c #CFA942",
"G. c #D6A740",
"H. c #D6AC44",
"J. c #DBAB40",
"K. c #DAB44C",
"L. c #D7B757",
"P. c #E4B94A",
"I. c #DBBA62",
"U. c #C9B675",
"Y. c #E6C24F",
"T. c #EECB5E",
"R. c #E9C964",
"E. c #E5CD7A",
"W. c #EDD474",
"Q. c #F3DD7D",
"!. c #F7E278",
"~. c #797F81",
"^. c #7C8283",
"/. c #808282",
"(. c #838787",
"). c #848B8C",
"_. c #818788",
"`. c #909090",
"'. c #E8DC8D",
"]. c #E4D38D",
"[. c #EADC9B",
"{. c #F6E891",
"}. c #F6E9A6",
"|. c #F5EFC9",
/* pixels */
"7.-.*.#.#.~ E 9.>.! #.,.7.9.9.w.9.8.,.J [ /.r.3.(./.9.7.9.7.9.8.6.w.w.9.6.1.%.>./.7.r.r.w.8. .| 7.#.>.6.&.%.,.>.-.>.6.6.,.>.T < ",
"Q F F T T K T E Q Q 7 H +.#.#.#.+.~ D B I %.-.w.w.r.-.+.~ #.O.! +.-.~ ~ | ~ T +.>.~ >.-.~ Q Y W %.Q T E x Q ! F A A T T F A < @ ",
"Q V V T T x Z C A 7 < < D F Y ! ~ T T Q E #.+.~ #.4.! Q T w.#.Y A F J T -.~ T *.~ ! #.! Y D D T >.#.T O.T T ! T V , F V = , V = ",
"#.E I P J C , V < : , < D D Y ~ I T ` #.+.>.~ Q -.-.T ~ >.r.=.Q Y Y T +.~ ~ +.#.#.+.! ~ A , s Y O.+.~ T T T O.T A B V = * , s - ",
"#.T T T b D D , : V A , C A F Q F ! m -.=.*.-.-.~ +.T 6.5.6.=.T T T -.E -.+.#.-.:.:.Q Q V , V T -.~ #.T T T ! F < < , : = Z V 3 ",
"+.F C U J Z V A Y T Y T U T T ! Q U H E ~ +.>.e.>.9.E >.>.>.:.! +.-.=.%.#.~ #.+.~ ~ ! Q Y U T Y ~ ~ O.T T Y B < V , , V D , , @ ",
"! F B A U D J Y Y ! T +.Y ! Q Y ! T F T #.-.=.6.r.).+.=.>.>.#.+.+.>.:.>.:.+.#.! ~ Q +.! T T T T D O.O.Q +., V V , w D Y T V : @ ",
"! J s Y Y V Z D ~ O.~ +.~ +.#.~ ! ! T ~ >.6.w.-.e.).^.6.>.:.-.#.+.5.6.>.:.#.Q T ~ ! ~ T T Y Y Y Y ~ T ! ! D i Y T A T F F , , = ",
"J T F Y Y D D F V T T T O.T O.Y T ! #.6.6.r.r.6.^.^.).5.>.! ~ +.=.6.+.>.>.+.! T ~ ! ! T Y U T F Q T +.+.! T G T T Q D A F , , = ",
"T T ! T F M i G A T T T #.T ~ T A Q :.6._.r.-.:.6.6.5.e.5.4.:.-.,.9... .>.~ ! T ! T ~ T T Y T T Q T Q +.~ T T T T +.F U F , , = ",
"Y T Q T Y V A Y U J Y T O.T +.D Y >.q.>.5.6.e.+.-.:.:.9.:.>.w.*.#. .$.{ &.~ U Y T T ~ T T Y T +.T ! T E E T T Q Q E T T Y V M : ",
"Y T Q ~ Y V D Y A C B F ~ T +.#.-.-.9.w.>.>.6.2.=.:.:.6.:.:.>.+.-.%.-.%.O.T U U ! T T T ! T ~ ! ! -.T T Q T D R Q E Q T ! V , = ",
"T ! ~ #.Q V A Y F F , J T P +.-.#.#.6.>.:.>.:.9.:.| ] | :.:.5.6.e.>.O.#.! F D F F T T T T ~ T +.~ ~ F T T Y T T T Q T T ~ T V : ",
"Q T Y T A V A T F F V F T F Q ! ~.^.w.#.:.5.6.1.-.` ( %.>.>.$.,.6.:.=.#.#.Q Z F Y A Y F T T -.-.~ T U Q T T T T ! T T T T F V : ",
"Y U T U F D V T Y T #.4.#.! +.~ ^.6.+.T #.-.9. .| ] >.:.>.&.:.>.:.:.>.:.:.+.T #.+.O.~ *.).e.X.-.Q Y F T T T T ~ O.~ ~ ! ! ! 8 4 ",
"U T ! T Y D , Y Y T 4.>.:.-.>.6.#.+.Y T Y Q ^.7.>.2.:.:.&.-.:.$.>.:.:.:.-.! ~ -.>.>.^.r.6.| >.=.F T Q Q #.-.! #.-.E T T T Q D 7 ",
"T ~ E T Y A , V F T ! 6.9.e.-.-.-.~ Y F ~ E ^.6.2.2.#.#.:.:.:.:.:.:.:.:.#.! ! +.:.:.:.>.+.+.-.=.+.E =.#.6.-.~ ~ ~ Y F T T Y D , ",
"T E Q ~ Y A D A F +.+._.^.-.#.~ +.+.Y E =.-.6.+.=.5.:.:.:.:.:.:.:.:.:.>.! F ! #.+.=.:.=.-.~ +.:.:.:.:.6.:.e.+.+.T T T T T F < : ",
"F Y Q ! F , A T Q -.*.6.).+.~ | ,.-.+.>.:.:.:.-.~ -.-.-.+.-.5.:.#.#.+.-.~ ! E E T +.+.T Q ~ :.:.:.:.e.^.^.:.-.~ T F R T A V , = ",
"U T T T T a Z ! T T +.#.6.~ #.#.~ +.-.9.:.:.:.:.~ -.=.=.-.-.:.:.:.>.>.:.-.-.+.F #.~ ~ ~ T >.:.:.:.:.>.6.6.#.O.T Q F Q , : D M , ",
"T +.Q T T Z C U T ! ! ~ #.~ +.~ Q Q -.9.:.:.:.:.+.-.#.6.r.6.-.>.-.-.6.:.-.#.#.#.~ ~ Y -.! ! +.6.>.:.>.e.-.-.:.#.+.! E D F Q F V ",
"F D F T T T F F ! T T T ! +.~ ~ +.( :.>.:.:.:.-.+.$.] 5.-.-.>.>.6.:.>.#.-.~ -.} Y U U #.-.~ ! e.6.T =.6.T ! ! +.! T ~ Q I T R V ",
"F D A ^ T Q ~ ! T T I ~ +.-.+.+.:.:.r.4.:.$.-.&.+.) $.:.:.-.#.-.=.r.>.+.+.~ +.=.T T ! ! -.~ ! 6.~ J #.( T B F ~ T +.! Q F T P V ",
"T T T ^ T T Q T p F P Q +.O.~ ~ Y +.6.:.-.:.:.-.' ) %.:.2.r.6.=.:.^.6.>.9.6.=.=.+.Y +.*.-.~ ~ +.+.T #.! ~ O.T Y ~ ,.Q O.T P ! < ",
"T T T I T +.Q T C T T +.! T T ~ +.#.e.9.^.6.-.-.+.6.>.>.*.=.:.#.>.:.>.6.9.>.~ +.+.T T -.-.#.O.! ~ ! ~ T T T T ! #.>.#.6.R T F < ",
"T ! T T T Q F D B R R Q T Y T ! :.~.~.6.^.>.+.~ ~ -.>.>.:.:.#.#.-.+.:.>.-.-.-.-.-.#.#.-.+.T ~ +.~ ~ T T ! ~ #.T ~ #.~ 6.R F A > ",
"F T I T Q T F F T T T Y T Q T +.:.-.>.:.9.-.+.! ! +.-.-.:.=.+.~ Q =.:.:.-.#.>.-.#.+.-.~ T Q +.#.} Q +.E Q D V V A T ! +.E Z 7 , ",
"p H H x R T T Q Q T T T T T T ~ -.+.:.-.-.:.+.! T T F ~ :.~ T Y ! +.:.:.:.-.-.~ ~ ~ #.! T Q #.} +.:.! D o.U.'.'.L.g.p Y T C V < ",
"d H b v J Q P T T T T Q T T T T -.:.-.+.#.+.+.T #.T i O.:.! T ! #.O.:.#.:.:.-.O.~ ~ O.T T T +.! Y E F A.{.R.H.H.G.Y.D.f G Y V < ",
"d T H T Q T Q T ~ T Q Q T Q ! Y ! T +.! -.#.#.T +.~ C #.#.! T ! ~ ~ +.:.:.W #.-.! ! +.I T T ! T T T Z.}.v.g 1 1 e s.c.j.i V , : ",
"P T Q T ! T +.#.! T Q T T T Q T J ! #.T -.+.~ T ! ! D +.Q T T ! ~ ~ ! *.W / ! T T O.T T T R Q T ~ J [.n.q 1 2 2 t 1 a.k.k , 7 M ",
"F T Q T T Y F T T T T T T T ~ +.H T -.E +.~ ! ! ! T T Q T T T T ~ #.! ! T ~ T T T T T T T R T ( T B.E.r 1 j t i.h.p.g n.t.> , , ",
"F Q U ! ~ ^ D T Y Y T T T Y ! ! L Y ~ ~ ! ! Q ! O.Y V F U T H T T #.~ Q T T T T T T T T ! ~ T I T N.I.1 1 i.p.h.x.k.j F.a.> , , ",
"D F Q ~ #.H D Y A F T T Q T T T T F T +.Q Q T ! ~ T Q U T J z J ~ #.! ! T T T T T T T T #.#.T ( U z.K.g r p.x.J.P.P.u.L.s.- , < ",
"D Y D U ! ! U ! *.+.! T T T F Y F A T T T ~ Q T T Q ~ T D A V T T #.~ ! ! T T T ! +.T T #._ ~ H P n D.u.y k.M.T.!.R.C.W.y.> , = ",
"D T A F T T U Y ~ F F T T T Q Y F A T T T ~ T T T T ~ ~ U D V A W T -.~ ! T T T E Q T T T T ~ Q -.< a.b.l t.m.Q.|.V.].S.5 : M : ",
"D F A V ~ F F F D D Y ! T Y U T T D T T ~ ~ ! T T T +.#.Q D ! ] W +.#.T T Q T Y Y T T T T F T ! T A 3 j.m.v.j.f.U.|.L.u @ , M = ",
"F T Y A ! Y D Y D D A F F T ! T T F T T E T T T T T ~ e.! W ' c %.-.T T T T T A F Y T Q I Y T T T T V % f.K.!.{.W.n.k X = V , : ",
"F Q Q F Y T D D T A F Y T #.-.! T F E Y T Y T Q T T T ~ Q #.H #.-.-.! T T T Y T T Y F Q E T T T ~ E Y < @ 6 k k h   O = , A i : ",
"F Q D F F R U Y ~ T F Y T -.-.~ T F T Y T Q Q T T T ! ! %. .+.-.W G T T T U T T Y F Y +.T +.Q T Q ! T F : @ @ @ @ @ = V D D , = ",
"F Q D V F T U T T D Y ! Q ~ #.~ T F T T T Q I T T E ! T ,.` $.R F F Y Y T D D Y Y F F O.! T T Q T A R T D , < = - V A A A V V : ",
"F Q V , F F D T Y Y Y T Q T T T T F T Y T T T T T ( Q ~ ! T T U D F Y T A F Y F Y T T ~ T T T ! A V T Z Z D A a 8 A A A A A M : ",
"F Y V , M V F T F Y Y T T T Y U T F T D T Y T T T ' I ~ T T T T V V D T F F T Y T T T O.! T Q T Y D F Z F < , i G D A A , < B : ",
"F F , , B V V D F F D T T T T F Y F F , V T D Y T Q T ~ T T T T F F V T T T T T T T Y +.! Y U T A A T A V V A ; < A V A V < V : ",
"A , , , w V V C A A U ~ T Y T U T F F A V V D A T T T ! T T T T T D Y T R Q T T Y T T ! T F A Y D V T D A T F , 7 F V V D , = = ",
"f 0 i V , F V A M U F Q ! Y T T F D D A A U F V Y F ! ~ T T T T T D Y T T T T T U ~ ! ~ Y F U F T Y Q T Q W T i i V V , , @ = = ",
"D 9 7 B V V V A V F D P Q T Y U D F F D D Y E A V A Q ~ T T T T T A D T U T T T T ! ~ F F F A A T T ~ T F %.Q V , A V V 7 @ , @ ",
"V , , M B A B A z z V T D ~ Q F T A D A A F E T F F A F F Y Y F T T T U V D F Q T T ! F F T A F T T ' T T *.T M M D V V , , B @ ",
"A , , V A A F , i Z S P F Y Y F ~ Q D A U T T T F Y T F Y Q A F D T D T V V , T T T T T T F G I +.T ~ Y F D V V V V B V V A V @ ",
"D , M V B < A , V A D V V A D F Q F A V F T T F F U F A F , D A V A A T T T A T T T T T %.J P F +.T Q P D C V V M V A A F T A @ ",
", , V M , < M , F F V M M p s D T D A , , V F D F F F D A < , V < D D D T T T T T T T T -.Q D F ~ E ! Q D V D A , V F F Q S V @ ",
"4 , M , , V , , D , M , M V S Q D T T F F A V V V V Z A D < , A D F D F T T D T T T #.T >.P , A E T Q T V V F F V F F E D V , . ",
"V , , , , , , , , < : < , B F F A D U F F Y V D G s F F A V F T Y T T Y F T D Y T T O.T >.T A F T T G c C V V , , A F F A , , . ",
"< V B , , < < , , , , , , A D D B A U F F L A Q R T Y Q A , F T Y F F D D T T T Y T T F +.T T T ! T V K V V T Q D V D V A B , @ ",
"< V D V , < , V M A < B A V V V B M A A F V A ! E E E F Z J T F F F T F F F A D Y T T F ~ T T T F F F D V V T D D , , 7 p < < @ ",
"< , , , , , < V V , , V V V V B M , , V V Q D Y T F D V C H Y D V D A V V F D F A A T T +.T T T F V D V V V F A V , N , , & : @ ",
": , < < , : < < A , A J , V V M V B , , , V F V V V M V V V D T D V A < , A , V F T T D ~ T T T A D D V V V A A V , , , > < = . ",
": = @ < V : < < , , V F < , , V F A : < < V D A V M , V B , , , V , A B , , T ( G D D T U T T Y , < Z V B V , V , , , , = @ @ . ",
"= : = < < : : , , , < 7 V F V , , , , < : V Y T V w i M M , < : = = : , , , D R T A F Z F V F A 7 , I D A < , V , < < < @ @ - @ ",
": = @ @ @ : = : , i f , T V A , , , , : = : V F V V D V , , , : = @ @ < < , V J F V Z z M , , , , , V V A = = @ @ O @ # - @ : @ ",
": < @ @ @ = = : , , , , V V , , < , > < < : : V V B V M , , V : : = = : @ = V A V M 7 7 , , : < , < ; = = @ @ @ @ . + @ : @ @ . ",
"= = @ @ = = @ = : , , , , , , , : , : : : < , , , , M V , , M : : : : : = : F L V M , : : < = - 3 % 6 @ @ @ @ @ 3 6 @ @ @ : @ . ",
"& : = & : $ : @ = = < , : , , < = @ @ = : : : = : , B < w , A : < < < < < A F V V , < , = @ @ @ # % - # @ @ @ # @ ; @ @ @ @ @ >.",
"X @ @ @ . @ X @ : @ = @ @ = @ @ X @ @ @ @ @ @ @ = = = # = @ @ @ @ @ @ @ @ $ : @ @ @ @ @ @ @ @ . @ @ @ X . @ . @ @ @ . . @ . %.`."
};
