/* XPM */
static char *aff8afe47d5b41eaeafc90f8e374f125ScoUUGC3g6byaLDw[] = {
/* columns rows colors chars-per-pixel */
"64 64 222 2 ",
"   c #000000",
".  c #0B0B0B",
"X  c #0D0706",
"o  c #110907",
"O  c #140A08",
"+  c #1A0B0A",
"@  c #1C150C",
"#  c #131409",
"$  c #151A14",
"%  c #1B1D14",
"&  c #1E1D1D",
"*  c #171613",
"=  c #240D0B",
"-  c #2C0D0D",
";  c #310E0D",
":  c #2D110E",
">  c #251B0C",
",  c #24160D",
"<  c #32100F",
"1  c #330F10",
"2  c #241612",
"3  c #2B1311",
"4  c #251B14",
"5  c #2C1B13",
"6  c #281E18",
"7  c #351311",
"8  c #3C1414",
"9  c #331C15",
"0  c #3C1B15",
"q  c #3D1C19",
"w  c #351F19",
"e  c #182619",
"r  c #163413",
"t  c #1B3415",
"y  c #1D3B15",
"u  c #15391D",
"i  c #182109",
"p  c #242215",
"a  c #2D2414",
"s  c #212C16",
"d  c #2A261A",
"f  c #342213",
"g  c #3C2315",
"h  c #33221B",
"j  c #3A251E",
"k  c #36291C",
"l  c #3B2D1E",
"z  c #382A15",
"x  c #223516",
"c  c #233C16",
"v  c #2B3D16",
"b  c #2A3A18",
"n  c #333C18",
"m  c #132F24",
"M  c #0B3426",
"N  c #053B2B",
"B  c #0B3B2A",
"V  c #0B3828",
"C  c #143529",
"Z  c #133C2B",
"A  c #143A26",
"S  c #242324",
"D  c #2B2B2B",
"F  c #3D2720",
"G  c #3D2B23",
"H  c #312E20",
"J  c #3C3321",
"K  c #373926",
"L  c #393939",
"P  c #421615",
"I  c #4A1717",
"U  c #421A16",
"Y  c #4C1917",
"T  c #441B19",
"R  c #4D1A19",
"E  c #541C1A",
"W  c #5A1F1C",
"Q  c #422416",
"!  c #432A16",
"~  c #43251B",
"^  c #4B231B",
"/  c #432A1C",
"(  c #4C2B1B",
")  c #55221D",
"_  c #5D211E",
"`  c #532A1D",
"'  c #4A311C",
"]  c #61221F",
"[  c #442B23",
"{  c #4A2D26",
"}  c #432A24",
"|  c #5D2420",
" . c #532B23",
".. c #5D2C24",
"X. c #582926",
"o. c #433324",
"O. c #4C3226",
"+. c #4E3128",
"@. c #443A28",
"#. c #52332A",
"$. c #55392C",
"%. c #5A3A2D",
"&. c #573424",
"*. c #5E3E32",
"=. c #642422",
"-. c #692624",
";. c #642A24",
":. c #6C2A26",
">. c #6D2C29",
",. c #712C26",
"<. c #732E29",
"1. c #792F2A",
"2. c #66382B",
"3. c #75322C",
"4. c #79332D",
"5. c #713C2C",
"6. c #7B3A34",
"7. c #773732",
"8. c #1D461C",
"9. c #244216",
"0. c #2D4319",
"q. c #2D4B19",
"w. c #284417",
"e. c #334C1A",
"r. c #3C4C1B",
"t. c #374418",
"y. c #2F5119",
"u. c #33521A",
"i. c #3B531B",
"p. c #3A5919",
"a. c #2F631E",
"s. c #05422C",
"d. c #0C432B",
"f. c #0D4C2D",
"g. c #0D4427",
"h. c #154B2E",
"j. c #1A4B2E",
"k. c #154528",
"l. c #12532F",
"z. c #1E5529",
"x. c #0B4C30",
"c. c #1F4D31",
"v. c #0A5332",
"b. c #075132",
"n. c #155131",
"m. c #1A5531",
"M. c #0C522F",
"N. c #21482C",
"B. c #394529",
"V. c #215A32",
"C. c #1C6334",
"Z. c #186637",
"A. c #1C713A",
"S. c #346C26",
"D. c #3B6F2A",
"F. c #387927",
"G. c #226231",
"H. c #276836",
"J. c #2C712C",
"K. c #434B1D",
"L. c #48491A",
"P. c #435516",
"I. c #445B16",
"U. c #4B5A17",
"Y. c #45541C",
"T. c #4B5718",
"R. c #525719",
"E. c #504F18",
"W. c #4B6118",
"Q. c #456317",
"!. c #4F7418",
"~. c #564528",
"^. c #454F25",
"/. c #624032",
"(. c #427622",
"). c #4C4C4C",
"_. c #454545",
"`. c #5A5A5A",
"'. c #4F504F",
"]. c #666666",
"[. c #686969",
"{. c #7D7D7D",
"}. c #747474",
"|. c #706F70",
" X c #843D33",
".X c #833E39",
"XX c #80332D",
"oX c #83413D",
"OX c #8D4439",
"+X c #884034",
"@X c #91453C",
"#X c #944A46",
"$X c #3D892A",
"%X c #57821C",
"&X c #7F7F80",
"*X c #8B8B8B",
"=X c #838383",
"-X c gray59",
";X c #A3A3A3",
":X c #ABABAB",
">X c #BBBBBB",
",X c #B3B3B3",
"<X c #AFB6AF",
"1X c #C5B0AF",
"2X c #C3C3C3",
"3X c #CBCBCB",
"4X c #D6CFCF",
"5X c #D4D0CF",
"6X c #CEDAD5",
"7X c #D6D3D2",
"8X c #DCD2D2",
"9X c #DBDBDB",
"0X c #D4DAD4",
"qX c #CFD0CF",
"wX c #E1D4D3",
"eX c #E6D9D7",
"rX c #D2E1D7",
"tX c #D8E4D4",
"yX c #EAEAEA",
"uX c gray89",
"iX c #F4F4F4",
"pX c #FFFFFF",
/* pixels */
"#.[ +.+.%.%.$./.%.$.$.#.[ { [ [ [ +.[ +.%.~./.*.*.%.$.#.#.#.$.$.#.[ O.} F G [ $.$.$.$.#.[ [ [ [ [ +.[ O.G o.$.$./.%.$.#.#.#.$.$.",
":.=._ E R %.6.#XoXoX.X<.<..X3.3.:.=._ E ^ %.OX#XoXoX.X3.:.;.6.6.>.=._ R R +.6.#XoX+X X3.:.:.:.:.:.=.) R } $.$.6.#X@X4.3.3.;.6.6.",
"=._ =.E 9 @.oX>.:.:.:.-.<.4.:.-.=._ =.E 7 #.@X3.:.:.:.,.>.7.>.-.=._ =.E 7 { OX3.:.:.:.,.:.;.-.=.=...~ R 7 +.2. X<.:.-.-.<.7.>.:.",
"=.=._  .j.n.c.q _ =.=.-.-.=.=.=.=.=._ _ q [ 3.=.=.=.,.:.=.:.=.=.=.=._ _ 8 { 4.-.=.-.,.:.=.=.=._ ~ D.G.9 8 $.2. .| =.=.-.-.:.=.=.",
"=.=.X.c.v.b.N 5 q _ =.-.E =.=.=.=.=.=.&.N.B.O.) =.=.=.-.E =.=.=.=.=.=._ 7 [ <.-.-.<.=.=.-.-.E I 9 C.A.h 5 j.n.h.j _ =.-.E =.=.=.",
"=.=...V.f.N B B.j.j _ E R =.=.=.=.=...H.A.C.C 3 W =.E E E =.=.=.=.=.=.E < { | =.=.:.E E =.W R 9 6 Z V.o.G V b.v.h.g _ E R =.=.=.",
"E | _ 5 @ p V C.A.H.' P P _ _ E E =...D.C.Z H 3 7 8 T I E W E R E _ _ I 7 { ) R Y R R E _ E h h.n.K 4 : + $ M f.m.9 R 8 P _ _ E ",
"8 8 7 - 7 h 4 f.F.$X(.9 8 P q 0 U o.@.k.e $ $ J @.K N.% 9 O O < 8 P 7 < q #.R < ; < 8 P 8 a G.A.Z.M + = = 4 2 * 2 : < < 8 T T 8 ",
"[ { { [ #.{ p k.B.(.!.z F K h.j.K C l.v.f.g.C.H.C.C K j.h.e h [ #.$.#.#.#.#.[ F F j } [ h F.$XF.h.e 6 [ +.+.#.{ { { { } { { { } ",
"4. X4.3.3.>.0 J 5 > > 7 ( H.A.Z.C & M f.m.d S.C.V % m B.H.G.p { 6.#X#X@X6.3.3.;.| E R I g !.F.z.K B.j.@.7.3.6.3.,.,.:.=._ E R $.",
" X>.-.-.-.=.q o.5 5 3 I g S.C.Z 4 3 3 2 9 7 f 9 2 = * C B.F.g.h  XXX4.1.:.:.,.<.=.=.E W _ 9 @ % C C.A.H./ =.:.:.-.-.=.-.=.E 8 +.",
"3.=.=.:.=._ h h.l.k.w 0 9 p % l q 7 7 8 E E E E 7 7 a G.H.Z.V h :.=.,.-.-.:.-.-.=.=.=.=.=.I = 4 * Z C.S.g =.=.=.=.=.=.=.=._ U #.",
"E =._ =.=.~ h.v.b.V K K <X6X0X7X7X8X8X8X8X8X8X8X7X7XtXtXtX6X0X0X7X7X8XwXwXwXwXwXwXwX8XwXwX8X4X7X7X0X7X:X8 _ =.-.E E E _ =.E 7 F ",
"R W =.] =. .V.f.M e h.d.rXpXpXpXpXpXpXpXpXpXpXpXpXpXpXpXpXpXpXpXpXpXpXpXpXpXpXpXpXpXpXpXpXpXpXpXpXpXpX7X9 U | ^ ^ R _ =._ E < [ ",
"R Y E W W _ 9 2 s G.A.Z.6XpXpXpXpXpXpXpXpXpXpXpXpXpXpXpXpXpXpXpXpXpXpXpXpXpXpXpXpXpXpXpXpXpXpXpXpXpXpX6Xj.K @.N.j.k I E W I < F ",
"I < < 7 8 U 8 5 F.$XF.g.qXpXpXpXpXpXpXpXpXpXpXpXpXpXpXpXpXpXpXpXpXpXpXpXpXpXpXpXpXpXpXpXpXpXpXpXpXpXpXrXZ.V C B.H.G.a 8 7 < q O.",
"} } } } } { } o.%XF.z.p 7XpXpXpXpXpXpXpXpXpXpXpXpXpXpXpXpXpXpXpXpXpXpXpXpXpXpXpXpXpXpXpXpXpXpXpXpXpXpXrXV $ % k.F.$XF.l { +.#.#.",
";.<.:.:.=.) R U Q l { X.eXpXpXpXpXpXpXpXpXpXpXpXpXpXpXpXpXpXpXpXpXpXpXpXpXpXpXpXpXpXpXpXpXpXpXpXpXpXpX7X2 4 J p j.F.%X&.<.3.3.=.",
"-.,.] _ W E E P + { .X>.wXpXpXpXpXpXpXpXpXpXpXpXpXpXpXpXpXpXpXpXpXpXpXpXpXpXpXpXpXpXpXpXpXpXpXpXpXpXpX7X2 k.n.K % p ( T _ _ _ _ ",
"=._ W W W W E E - [ 3.=.wXpXpXpXpXpXpXpXpXpXpXpXpXpXpXpXpXpXpXpXpXpXpXpXpXpXpXpXpXpXpXpXpXpXpXpXpXpXpX7X6 N Z.H.G.h | W W W _ =.",
"P E W W W W W R + [ ) _ wXpXpXpXpXpXpXpXpXpXpXpXpXpXpXpXpXpXpXpXpXpXpXpXpXpXpXpXpXpXpXpXpXpXpXpXpXpXpX0Xn.b.d.C.S.k P E W W W | ",
"8 E W E E W W P o [ _ =.wXpXpXpXpXpXpXpXpXpXpXpXpXpXpXpXpXpXpXpXpXpXpXpXpXpXpXpXpXpXpXpXpXpXpXpXpXpXpXrXA.C.4 , > [ R E E W E P ",
"; R E P 8 E R 1 o [ _ R 7XpXpXpX:X{.&X:XpXpXpXpXpXpXpX;X{.,XpXpXpXpXpXpXpXpX,X*X]._.].*X>XpXpXpXpXpXpX6XC.S.9 - - { I 7 7 Y P - ",
"- < < ; ; : O o 3 #.R 7 4XpXpXpX`.    . yXpXpXpXpXpXpX).  ].pXpXpXpXpXpXyXL               ).iXpXpXpXpX5X@ 2 : - q #.q o o O o X ",
"#.{ +.#.+.+.{ { +.#.[ { 8XpXpXpX`.      ].pXpXpXpXpXpX).  ].pXpXpXpXpX3X$   * -X3XiX2X*X.   S 9XpXpXpX7Xw F F F F } [ F } } F F ",
"#X+X.X6.4.6.3.,.,.:.=._ 8XpXpXpX`.  D     9XpXpXpXpXpX).  ].pXpXpXpXiXS   D uXpXpXpXpXpX0X&   L pXpXpXeX:.:.=.) U 8 P R I q %.3.",
":.:.3.>.-.:.:.-.-.=.-.=.8XpXpXpX`.  `.'.  `.pXpXpXpXpX).  ].pXpXpXpX*X    uXpXpXpXpXpXpXpX3X    :XpXpXwX] =.:._ E P R E 7 O $.+X",
"_ =.] =.=.=.=.=.=.=.=.=.8XpXpXpX`.  `.9X    9XpXpXpXpX).  ].pXpXpXyX.   ].pXpXpXpXpXpXpXpXpX_.  & iXpX8X=._ _ W W E W E 7 o [ | ",
"=._ =.=.=.=.-.E E E _ =.8XpXpXpX`.  `.pX`.  ).pXpXpXpX).  ].pXpXpX;X    >XpXpXpXpXpXpXpXpXpX-X    2XpXwX_ W W W W E W W P O j R ",
"W =._ =.=.=.W E E _ =._ 8XpXpXpX`.  `.pX9X    3XpXpXpX).  ].pXpXpX=X    uXpXpXpXpXpXpXpXpXpX2X    ;XpX8XE E W W E W W W E - j R ",
"Y E W W _ | W E W E E W 7XpXpXpX`.  `.pXpX[.  L pXpXpX).  ].pXpXpX[.  . pXpXpXpXpXpXpXpXpXpXiX    *XpX8XP Y E E E E R R U + j R ",
"; < 7 U 8 U T P U P P < 5XpXpXpX`.  `.pXpXyX.   >XpXpX).  ].pXpXpX].  & pXpXpXpXpXpXpXpXpXpXpX    =XpX4X- + : : < < O o O : F R ",
"} { { #.$.#.%.#.#.#.{ } 8XpXpXpX`.  `.pXpXpX}.  D pXpX).  ].pXpXpX*X    iXpXpXpXpXpXpXpXpXpXuX    ;XpX8XF O.#.%.#.+.{ { [ +.#.#.",
"| _ E ^ %.3.OX4.3.3.=.;.wXpXpXpX`.  `.pXpXpXiX.   :XpX).  ].pXpXpX:X    9XpXpXpXpXpXpXpXpXpX>X    3XpX8X$.$.6.#X@X4.3.3.;.6.6.<.",
"_ =.E 7 #.3.>.] _ _ _ =.wXpXpXpX`.  `.pXpXpXpX=X  S pX).  ].pXpXpX7X    -XpXpXpXpXpXpXpXpXpX}.    iXpX7X+.2.+X<.:.-.-.<.7.>.-.-.",
"=._ _ 8 { :._ W W _ =.=.8XpXpXpX`.  `.pXpXpXpXiX*   ;X).  ].pXpXpXpXD   S pXpXpXpXpXpXpXpXiX.   ).pXpX7X#.3.6.-.=.=.-.-.:.=.=.=.",
"=.=._ 7 { I E W W _ _ I 8XpXpXpX`.  `.pXpXpXpXpX-X  & _.  [.pXpXpXpX>X    *XpXpXpXpXpXpXpX|.    0XpXpX4X} =.=.=.=.=.-.E =.=.=.=.",
"=.=.E < { R E E W E P 8 8XpXpXpX`.  `.pXpXpXpXpXiX&       ].pXpXpXpXpX_.    }.pXpXpXpXiX`.    ].pXpXpX4XF ) ] _ =.=.E R =.=.=.=.",
"=._ I 7 { I 7 7 Y P - ; 8XpXpXpX`.  `.pXpXpXpXpXpX-X      ].pXpXpXpXpXyX`.    * _.}._..     |.iXpXpXpX4Xj R E _ _ E 8 P _ _ E R ",
"8 7 ; q #.q O X o o o - 4XpXpXpX`.  `.pXpXpXpXpXpXpXS     ].pXpXpXpXpXpXpX,XL .       . L 2XpXpXpXpXpX7XF R 7 8 7 < < 8 P T P P ",
"} } [ +.O.+.{ j F [ } F 8XpXpXpXpXpXpXpXpXpXpXpXpXpXpXpXpXpXpXpXpXpXpXpXpXpXpXpXuX2XyXpXpXpXpXpXpXpXpX8X#.#.#.#.{ { { { [ { { { ",
"%.3. X4.3.3.<._ >.;.E R 8XpXpXpXpXpXpXpXpXpXpXpXpXpXpXpXpXpXpXpXpXpXpXpXpXpXpXpXpXpXpXpXpXpXpXpXpXpXpXeX.X6.4.6.<.,.:.:.=._ E I ",
"%.6.>.-.-.-.-.=.,.<.=.E 8XpXpXpXpXpXpXpXpXpXpXpXpXpXpXpXpXpXpXpXpXpXpXpXpXpXpXpXpXpXpXpXpXpXpXpXpXpXpXwX3.>.-.:.:.-.-.=.-.=.E ; ",
"%.3.=.=.:.=.=.=.=.-.=._ 8XpXpXpXpXpXpXpXpXpXpXpXpXpXpXpXpXpXpXpXpXpXpXpXpXpXpXpXpXpXpXpXpXpXpXpXpXpXpXwX] =.=.=.=.=.=.=.=.=._ 8 ",
"[ E =._ =.=.=.=._ =.=.E 8XpXpXpXpXpXpXpXpXpXpXpXpXpXpXpXpXpXpXpXpXpXpXpXpXpXpXpXpXpXpXpXpXpXpXpXpXpXpX8X=.=.=.=.-.E E E _ =.E ; ",
"{ R W =._ =._ =.=.=.W E 8XpXpXpXpXpXpXpXpXpXpXpXpXpXpXpXpXpXpXpXpXpXpXpXpXpXpXpXpXpXpXpXpXpXpXpXpXpXpX8X_ =.=.=.W E E _ =._ E ; ",
"[ R Y E W W _ W | _ E R 8XpXpXpXpXpXpXpXpXpXpXpXpXpXpXpXpXpXpXpXpXpXpXpXpXpXpXpXpXpXpXpXpXpXpXpXpXpXpX8XW W _ | W E W E E W I ; ",
"{ R 7 < 7 U T U U T U 8 5XpXpXpXpXpXpXpXpXpXpXpXpXpXpXpXpXpXpXpXpXpXpXpXpXpXpXpXpXpXpXpXpXpXpXpXpXpXpX4X7 U 8 U T P U P 8 7 < 7 ",
"[ [ { } { #.%.%.$.%.$.#.8XpXpXpXpXpXpXpXpXpXpXpXpXpXpXpXpXpXpXpXpXpXpXpXpXpXpXpXpXpXpXpXpXpXpXpXpXpXpX8X{ #.$.#.%.$.#.#.{ } [ [ ",
"3.:.=._ E ) %.6.#XoXoX.XwXpXpXpXpXpXpXpXpXpXpXpXpXpXpXpXpXpXpXpXpXpXpXpXpXpXpXpXpXpXpXpXpXpXpXpXpXpXpX8XP q %.OX#XoXoX.X<.3..X3.",
"-.=._ =.E 7 #.OX<.:.:.:.wXpXpXpXpXpXpXpXpXpXpXpXpXpXpXpXpXpXpXpXpXpXpXpXpXpXpXpXpXpXpXpXpXpXpXpXpXpXpX8XP + #.@X3.:.:.:.-.<.4.:.",
"=.=.=._ _ 8 [ 3.=.=.=.,.1XwXwXwXwXwXwX8X8X7X8XeXwXwXwXwXwXwXwXwX8X7X7X5X7X0X6XtXtX7X8X8XwXwXwX8X8X8X8X1XE - { 3.=.=.=.=.-.-.=.=.",
"=.=.=.=._ 7 { ) _ =.=.=.-.E =.=.=.=.=.=._ 7 [ <.-.-.<.=.=.-.-.E E U 5 4 J ^.l.s > 7 E _ _ I W W W W W W R + [ ) _ =.=.=.-.E =.=.",
"=.=.=.=.E < { _ =.=.-.E E E =.=.=.=.=.=.E < { | =.=.:.E E =.W E } j.n.d.V C.A.G.9 I W E P 8 E W E W W W P o [ _ =.=.=.=.E R =.=.",
"R E _ W P + [ ) R Y R Y I ) R E R E _ _ I 7 { ) R Y R R E |  ./ H.A.Z.N $ N C.S.5 Y E Y = - E E P P E R 1 o [ ) R R W E 8 P W | ",
"8 8 P - + 9 [ R 7 < < 8 7 b # O - 8 P 7 < q #.R 7 ; 7 8 h Z d.d.J.C.N N N N e # o - @ t.# = < < ; - : O o 3 +.^ 7 ; < < < 8 U 8 ",
"k [ { k j F h j F [ } [ k P.k [ [ #.#.+.#.#.#.#.{ } { o.h.b.b.s.l.e e M b.b.h.G j } l I.v k } F { [ { [ j +.} +.{ j j j F o.K.[ ",
"^.2.&.R.` | q 7 U ^ ) E 0 U.&.7.5.6.6.3.6.<.:.,.:.| _ ^ A l.s.Z.A.G.u.p m h.k.~ U U g K.f / ;.E :.>...;.T ) T ^ | ) I 7 7 k ^.2.",
"Y.' Y.R.` >.K.Q U L.` P , I.t.` ~.5.:.| ;.| ;.=.) ^ _ ^ 4 u.l.f.J.a.Q.5 T ..&.E.g P U P.> K.5.R ^ E.Q E P E ^ K.) E E 8 O p Y.( ",
"W.b p.W.Q ` Y.R.^ ! n 8 = e.x U Q L. .^ K.! E.~ ^ K.! b u g.d.$ u q.p.x T I ` Y.n U ! r.> r.&.U Q T.g U 8 T q r.g T Q t.@ 0.U.! ",
"W.9.q.W.t.^ ! T.Q r.i.g > y b 0 q r.b Q R.' Y.v f r.i.z.C.g.N * 4 4 c t q q Q P.0.g T.i.a 0.r.g Q K.g z z E.f r.a t.g r.i I.W.0.",
"e.u.q.p.q.r.g n z 0.I.v P.u.c b z 0.r.! U.v I.v 0 g e.S.C.M N s.B a b s g t.z x v ! U.e.e.k v z T.i.g g r.U.z I.w.t f I.y.q.p.y ",
"u.9.u.p.9.x z v e.c I.9.p.9.q.y e.q.u.0.I.c 9.t f v e.a @ J V b.M.8.t f s q.e.c I.i.c u.w.k v P.p.9.P.v 9.p.c I.w.t x I.y y e.t ",
"y y y u.t t e.y 9.r w.y.y c t t u.y 9.y p.9.r t e.9.t = = o.6 N v.8.r x t u.c p.Q.y r y.y c r y u.y u.c p.y r u.y q.9.u.9.9.y r "
};
