/* XPM */
static char *_674ffa2fd214764cbe3fd8070f50eb0IaRCFW6iO1sXF5Sh[] = {
/* columns rows colors chars-per-pixel */
"120 39 178 2 ",
"   c None",
".  c #060606",
"X  c #0C0C0C",
"o  c #141414",
"O  c #1A1A1A",
"+  c #242424",
"@  c gray17",
"#  c #312F2E",
"$  c #31302F",
"%  c #3C322D",
"&  c #333333",
"*  c #3A3735",
"=  c #3B3B3B",
"-  c #44352D",
";  c #4B362C",
":  c #4C382E",
">  c #5B3827",
",  c #5B3B2B",
"<  c #443730",
"1  c #4C3D35",
"2  c #433F3D",
"3  c #463933",
"4  c #523D35",
"5  c #643E2A",
"6  c #6C3E27",
"7  c #4C423E",
"8  c #504036",
"9  c #5C4131",
"0  c #52423A",
"q  c #5C463D",
"w  c #6D4027",
"e  c #6D402A",
"r  c #744126",
"t  c #7B4327",
"y  c #754329",
"u  c #7B4429",
"i  c #774A2F",
"p  c #7E482C",
"a  c #624432",
"s  c #6B4732",
"d  c #6C4833",
"f  c #66473A",
"g  c #69473A",
"h  c #754934",
"j  c #444343",
"k  c #494644",
"l  c #474847",
"z  c #4A4847",
"x  c #4A4A4A",
"c  c #514642",
"v  c #544A46",
"b  c #5A4D47",
"n  c #524C48",
"m  c #5A4D48",
"M  c #57514F",
"N  c #5B514C",
"B  c #545353",
"V  c #5D5654",
"C  c #585857",
"Z  c #5B5B5B",
"A  c #644F45",
"S  c #6A5146",
"D  c #725344",
"F  c #7C5644",
"G  c #7D5A47",
"H  c #715449",
"J  c #615450",
"K  c #74655F",
"L  c #656565",
"P  c #6B6B6B",
"I  c #756B67",
"U  c #6F706F",
"Y  c #72706F",
"T  c #737373",
"R  c #7C7B7B",
"E  c #7A7371",
"W  c #874626",
"Q  c #8D4D2A",
"!  c #954B26",
"~  c #9F4E25",
"^  c #855131",
"/  c #885234",
"(  c #8D593D",
")  c #995731",
"_  c #975A36",
"`  c #9A5831",
"'  c #935A3D",
"]  c #9A5C3B",
"[  c #925734",
"{  c #A24F25",
"}  c #AE5224",
"|  c #AF592A",
" . c #AA562A",
".. c #B25425",
"X. c #BC5927",
"o. c #B35929",
"O. c #BE5E2A",
"+. c #A45C32",
"@. c #A05E3C",
"#. c #AD5E31",
"$. c #B15E30",
"%. c #A5613F",
"&. c #B76538",
"*. c #C35E29",
"=. c #CE632C",
"-. c #D5692F",
";. c #DB6C2F",
":. c #D0652C",
">. c #C96C35",
",. c #CC6E3A",
"<. c #C46934",
"1. c #D66D31",
"2. c #DC6D30",
"3. c #DA783E",
"4. c #E16F31",
"5. c #E47232",
"6. c #EA7534",
"7. c #EB7836",
"8. c #E77638",
"9. c #EE7C39",
"0. c #F47C37",
"q. c #F57D38",
"w. c #855741",
"e. c #805844",
"r. c #8C5B42",
"t. c #935D42",
"y. c #9A5E40",
"u. c #87614D",
"i. c #8A624D",
"p. c #946046",
"a. c #9C6245",
"s. c #A86240",
"d. c #A16542",
"f. c #9C7F6E",
"g. c #CC7644",
"h. c #DB7C45",
"j. c #D97F4B",
"k. c #93847B",
"l. c #DC8958",
"z. c #E88348",
"x. c #F68B4D",
"c. c #EA925E",
"v. c #F79256",
"b. c #F4935A",
"n. c #F39760",
"m. c #F49862",
"M. c #FA9D67",
"N. c #FAA06A",
"B. c #F7A270",
"V. c #FBA977",
"C. c #858585",
"Z. c #8B8B8B",
"A. c #9E8D84",
"S. c #958D88",
"D. c #949494",
"F. c #999796",
"G. c #9A9A9A",
"H. c #A29188",
"J. c #A49790",
"K. c #A39D9A",
"L. c #A3A3A3",
"P. c #ABABAB",
"I. c #AEA7A3",
"U. c #B4B3B3",
"Y. c #BABABA",
"T. c #C1C0BF",
"R. c #C4C4C4",
"E. c #CCCCCC",
"W. c #C8C6C5",
"Q. c #D4D4D4",
"!. c #DADADA",
"~. c #E4E4E4",
"^. c #ECECEC",
"/. c #F3F3F3",
"(. c white",
"). c #FEFEFE",
"_. c #FDFDFD",
"`. c #FEFEFE",
/* pixels */
"              s s s s s s s s s s s s s s s s s s s s s s s s s                                                                                                                                                                                 ",
"        < / d.c.n.n.n.n.n.n.n.n.n.n.n.n.n.n.n.n.n.n.n.n.n.n.n.z._ p 5                                                                                                                                                                           ",
"      _ j.B.V.x.h.g.g.g.g.g.g.g.g.g.g.g.g.g.g.g.g.g.g.g.g.g.z.N.M.z.o.y                                                                                                                                                                         ",
"    [ x.N.3.+.+.a * * * * * * * * * * * * * * * * * * * * * d +.>.v.8.X.5                                                                                                                                                                       ",
"  1 l.N.,.9 j Z Y R R R R R R R R R R R R R R R R R R R P P Z l 1 &.0.6.! -                                                                                                                                                                     ",
"  ( B.9.a x E I V J B B B B C C B B B B B B B B B B C C Z C Z T C 8 1.0...y                                                                                                                                                                     ",
"  p.V.#.j K m x C x x x x M M n n n n n n v v n n x x x x x j x U Z ^ 0.-.t                                                                                                                                                                     ",
"s c.x.` V H m C C x x A ] @.@.] ] ] ] @.@.] @.] ] r.v x x x x x C L h q.5.} :                                                                                                                                                                   ",
"s m.h.9 P Z C Z x x v ' A.U.U.U.U.U.U.U.U.U.U.U.U.f.w.x x x x x x L 8 &.5...:                                                                                                                                                                   ",
"s m.g.& L B B x B x b ] Y.(.(.(.(.(.(.(.(.(.(.(.(.J.( x x x x x x B & ) 5...:                       O Z L L L L L L L L L =             C L L L L L L L L L L L @           j L L L L L L L L L L L L L @     j L L x                 & L L Z   ",
"s m.g.& P x x x x x m ] Y.(.(.(.(.(.(.(.(.(.(.(.(.J.( x x x j x x x & ) 5...:                     o T Q.(.(.(.(.(.(.(.(.(.!.+         . T /.(.(.(.(.(.(.(.(.(.(.Y.+         B ^.(.(.(.(.(.(.(.(.(.(.(.(.C   . x _.(.!.@               @ ~.(.Q.  ",
"s m.g.& P B x x x x N ] Y.(.(.G.i.u.u.u.u.u.u.u.u.a.H x x x x x B x & ) 5...:                   + T G.E.R.G.G.G.G.G.D.Z.^.(.P.        . O G.^.P.G.G.G.G.G.D.Z.Q.(.L.      . O T /.Y.G.G.G.G.G.G.G.G.R.(.+   . O G.(.(.C.            . o R (.P.  ",
"s m.g.& P m n x x x m ] Y.(.(.S.&.D D D D D D D S A x x x x x x x x & ) 5...:                 o Z.G.Q.^.P.j = = = = & O x ^.(.G.      X O L./.T = = = = = & O & /.(.T     . O R (.D.= = = = = = = = j G.    X O D.(.(.^.            . O C.(.Z.  ",
"s m.g.& C x x x x x m ] Y.(.(.S.] n x x x x x x x x x x x x x x x l & ) 5...:                 X = R.(.!.x X . . . . . o O T (./.      X O E._.Z             X O D.(.L.    X O L.(.R                         X O Y.(.(.(.P           . O P.(.P   ",
"s m.g.# B x x x x x m ] Y.(.(.S.y.x x x x x x x x x x x x x x x x z & ) 5...:                 o @ !.^.B               . O x (.Q.      o & ~.~.&             . O G.(.C.    X + E.(.Z                         o O Q.G.D.(.Q.@         X O E.(.j   ",
"s m.g.$ B x x x x x b ] Y.(.(.S.&.e.F F F F F D n x x x z x x x x z & ) 5...:                 o j ^.!.o               . O P (.P.    . o C /.E.              X O Y.(.L     o = ^./.=                         o & _.L.+ P.(.R         o O ^.^.@   ",
"s m.g.# x x x x x x b ] Y.(.(.F.G G G G G G G r.t.n x x x x x x x l & ) 5...:               . O P _.U.                . O D.(.C.    . O R (.L.              o O ~._.j   . o C (.E.                        . O Z (.U.O j (.!.        o & (.Q.    ",
"s m.g.# j x x x x x b ] Y.(.(././././././././.W.] b x x x x x x x z & ) 5...:               . O Z.(.D.                X O Y.(.P     . O G.(.C.              o @ _.~.    . O T (.Y.= 2 j j j j j j =       . O C.(.Z.X O R.(.L       o C (.Y.    ",
"s m.g.# j x x x x x b ] Y.(.(.(.(.(.(.(.(.(.(.E.] A x x x x x x x z & ) 5...:               X O U.(.T                 o + Q.^.x     X O R.(.L             o @ x (.Q.    . O Z.(.(.(.(.(.(.(.(.(.(./.&     . O L.(.P . o L _.Y.    . O R (.D.    ",
"d b.g.$ j x x x l x b ] Y.(.(.T.K.K.K.K.K.K.K.A.' b x x x x x x x l & ) 5...:               o O !.(.x                 o j ^.!.o     o O ~.(.L.Z.Z.Z.Z.Z.Z.D.D.Y.(.P.    X O P.!.Y.Y.Y.Y.Y.Y.Y.Y.^.!.      X + E.(.x   X O Y._.P   . O L.(.T     ",
"s 9.>.$ j x x j x x m ] Y.(.(.k.,.%.%.%.%.%.%.y.b x x x x x x x x j & ) 5...:               o + /.^.&               . O P _.Y.      o @ ^.(.(.(.(.(.(._._.Q.~._.P.+     o + !.!.x = = = = = = = L G.      o = /.!.&   . O C (.Q.. X + R.(.x     ",
"s 9.>.# j x x x x x b ] Y.(.(.k.y.v n n n n n x x x x x x x l x x j & ) 5...:               o j (.!.                . O Z.(.D.      o j /.L.P P P P P P P T ~.L.        o & /./.o . . . . . . . .         o Z (.Y.      o + E.(.j o & ^.~.&     ",
"d 9.>.$ j x x x x x b ] Y.(.(.k.t.x x x x x x x x x x x x x z c j j & ) 5...:             . O L (.Y.                X O U.(.T     . O P (.Y.@ @ @ @ @ @ @ @ x           O x (.Q.                        . o R (.Z.      . o T (.P.+ B (.Y.      ",
"s 9.>.$ j x x x x x b ] Y.(.(.k.t.x x x x x x x x x x x x x j j j z & ) 5...:             . O Z.(.D.                o O !.(.x     . O D.(.Z.                          . O T (.P.                        . O L.(.P         X @ E.(.P.D.(.Z.      ",
"s 9.>.# j x x x x x b ] Y.(.(.k.s.S S S S S S S A b x x x l j j j j & ) 5...:             X O P.(.R                 + + /./.&     X + Y.(.P                           . O D.(.C.                        X O R.(.B         . O B _././.(.T       ",
"a 6.>.# z v x x x x b ] Y.(.(.S.a.p.p.p.p.p.p.p.t.a.S x x x x j j j & ) 5...:             X O D.(.!.j @ @ @ @ @ @ L Z.C.(.!.      o & !._.x                           X O Y.(.P                         o + ~.(.O           o O P.(.(.(.B       ",
", 1.>.$ k b x x x x b ] Y.(.(./.^.^.^.^.^.^.^.^.^.H.r.x x x x j j k & ) 5.} :             . O + Q.(./.^.^.^.^.^.~.L.Y./.^.G.      o x _.!.                            o + E.(.^.~.~.~.~.~.~.~.~.~.R     o & /.~.            . O x ^.(.(.+       ",
", 1.>.$ j x x x x x b ] Y.(.(.(.(.(.(.(.(.(.(.(.(.J.t.x l z v j = f & ) 5.} :               X O j Y.Q.!.!.!.!.!.E.U./.^.T       . o C /.P.                            o @ D.E.!.!.!.!.!.!.!.!.~.(.P     O j /.Y.              o O R /.^.        ",
", 1.>.$ 2 z x x x x b ' I.!.!.!.!.!.!.!.!.!.!.!.!.A.w.l x x j j j k - $.5.} :                 X @ j j j j j j j j C E.P         . + j D.Z.                          . + = j j j j j j j j j j B ~.x   . + = P.D.              . + j Z.Y.        ",
", -.7.^ * c j x x x x S ] ' ' ' ' ' ' ' ' ' ' ' ' ] A x z j j j v 2 5 2.;.} :                   o O O O O O O O O O @           . O O O @                           . o O O O O O O O O O O O O &     . O O + @                 o O O &         ",
", O.7.+.* q k j j j x x b A A A A A A A A A A A A b x x c 7 j j h 3 , ;.X.} :                                                                                                                                                                   ",
"1 Q 6.<.& * q c j z v x x x x x x x x j l x x x x j c k j j 7 g 3 & u ;...W                                                                                                                                                                     ",
"  y 5.0.i & * = 7 2 j g k j j j j j j j j j j j j 2 f 8 = 0 4 * & : o.;...r                                                                                                                                                                     ",
"  e ..;.8.^ % % * & & & & & & & & & & & & & & & & & & & & & * % , o.4.=.} r                                                                                                                                                                     ",
"  - ~ ..4.2.o.| e ; ; ; ; ; ; ; ; ; ; ; ; ; ; ; ; ; ; ; ; >  .| O.;.-...! -                                                                                                                                                                     ",
"    y ....=.-.6.;.;.;.;.;.;.;.;.;.2.2.2.2.;.2.2.2.2.2.2.2.2.;.6.:.X...} 5                                                                                                                                                                       ",
"      y { ....*.*.*.*.*.*.*.*.*.*.*.*.*.*.*.*.*.*.*.*.*.*.*.*.*...} { t                                                                                                                                                                         ",
"        - w u } ......} } } } } } } } } } } } } } } } } } } } } r 6 %                                                                                                                                                                           ",
"              > > > , > > > > > > > > > > > > > > > > > > > > >                                                                                                                                                                                 "
};
