/* XPM */
static char *_5e98fa292914023c45eb549117dabc68ZykUEsCOwnECShW[] = {
/* columns rows colors chars-per-pixel */
"64 64 235 2 ",
"   c #0C0907",
".  c #110807",
"X  c #140A09",
"o  c #1B0C0A",
"O  c #120707",
"+  c #0B140D",
"@  c #1C150D",
"#  c #14150B",
"$  c #151B13",
"%  c #1B1D15",
"&  c #191813",
"*  c #240C0B",
"=  c #2C0E0D",
"-  c #310E0E",
";  c #23130E",
":  c #2D110E",
">  c #251A0D",
",  c #291C0E",
"<  c #32100F",
"1  c #301C0E",
"2  c #330F10",
"3  c #241512",
"4  c #2B1311",
"5  c #241B14",
"6  c #2C1C14",
"7  c #271E18",
"8  c #351211",
"9  c #3C1514",
"0  c #321C15",
"q  c #3C1B16",
"w  c #341E19",
"e  c #3B1C19",
"r  c #1C241A",
"t  c #172518",
"y  c #163413",
"u  c #1B3415",
"i  c #1D3B15",
"p  c #15391D",
"a  c #182109",
"s  c #242314",
"d  c #2C2314",
"f  c #212C16",
"g  c #23231A",
"h  c #2D241B",
"j  c #2C2C1C",
"k  c #252A1B",
"l  c #342214",
"z  c #3C2315",
"x  c #322B15",
"c  c #33231B",
"v  c #3B241D",
"b  c #34291C",
"n  c #3B2C1D",
"m  c #3D2A16",
"M  c #223516",
"N  c #233C16",
"B  c #2B3D16",
"V  c #2A3719",
"C  c #36361A",
"Z  c #29210F",
"A  c #132F24",
"S  c #0B3426",
"D  c #0C3629",
"F  c #053C2B",
"G  c #0C3B2A",
"H  c #093928",
"J  c #143528",
"K  c #133D2B",
"L  c #143926",
"P  c #3D2720",
"I  c #332B21",
"U  c #3D2A22",
"Y  c #353423",
"T  c #3B3422",
"R  c #353925",
"E  c #3C3A26",
"W  c #343D29",
"Q  c #3F3D29",
"!  c #272E21",
"~  c #421515",
"^  c #4A1717",
"/  c #421916",
"(  c #4B1917",
")  c #441C19",
"_  c #4D1A19",
"`  c #4C1718",
"'  c #541C1A",
"]  c #5A1F1C",
"[  c #432416",
"{  c #432A16",
"}  c #43251B",
"|  c #4C231B",
" . c #432A1C",
".. c #4B2A1B",
"X. c #55211D",
"o. c #5D211E",
"O. c #532A1D",
"+. c #4A311C",
"@. c #61221F",
"#. c #442B23",
"$. c #4B2E26",
"%. c #452A24",
"&. c #562621",
"*. c #5D2421",
"=. c #532B22",
"-. c #5C2B23",
";. c #5B2D2B",
":. c #443324",
">. c #4B3226",
",. c #4E3128",
"<. c #443A28",
"1. c #533324",
"2. c #5A3423",
"3. c #52332A",
"4. c #55382C",
"5. c #5A3A2D",
"6. c #57372A",
"7. c #5E3E32",
"8. c #642422",
"9. c #692624",
"0. c #642A25",
"q. c #6C2A26",
"w. c #6D2C29",
"e. c #712C26",
"r. c #732E29",
"t. c #792F2A",
"y. c #633C2E",
"u. c #683529",
"i. c #75322C",
"p. c #79332D",
"a. c #753B2D",
"s. c #7A3532",
"d. c #7B3A34",
"f. c #753833",
"g. c #1D461C",
"h. c #244216",
"j. c #244118",
"k. c #2D4319",
"l. c #2D4B19",
"z. c #2C4617",
"x. c #324318",
"c. c #334C1A",
"v. c #3C4C1B",
"b. c #3A4517",
"n. c #2F5119",
"m. c #33521A",
"M. c #3B531B",
"N. c #3B591C",
"B. c #395817",
"V. c #2F631E",
"C. c #0D4427",
"Z. c #05422B",
"A. c #0C432C",
"S. c #0D4C2E",
"D. c #04492E",
"F. c #114425",
"G. c #12452B",
"H. c #154B2D",
"J. c #1B4B2E",
"K. c #1B4829",
"L. c #0E512F",
"P. c #13532E",
"I. c #1C522A",
"U. c #1E592A",
"Y. c #074E31",
"T. c #0D4E30",
"R. c #094630",
"E. c #1F4C30",
"W. c #114F30",
"Q. c #0A5332",
"!. c #075132",
"~. c #145231",
"^. c #1A5231",
"/. c #1B5A31",
"(. c #21482C",
"). c #3C4224",
"_. c #32432A",
"`. c #3B4729",
"'. c #215832",
"]. c #39502B",
"[. c #156437",
"{. c #1C6334",
"}. c #1C6936",
"|. c #156438",
" X c #1B6E39",
".X c #1C713A",
"XX c #28652A",
"oX c #336C27",
"OX c #376C28",
"+X c #2E752B",
"@X c #3E7421",
"#X c #3C7B25",
"$X c #327B2C",
"%X c #36732B",
"&X c #236332",
"*X c #2A6434",
"=X c #226C36",
"-X c #236C39",
";X c #257037",
":X c #434B1D",
">X c #48491A",
",X c #435516",
"<X c #4D5517",
"1X c #445B16",
"2X c #4B5A17",
"3X c #45541C",
"4X c #455B1A",
"5X c #4E5618",
"6X c #525719",
"7X c #504F18",
"8X c #4B6118",
"9X c #456317",
"0X c #4E7E18",
"qX c #517E18",
"wX c #506018",
"eX c #414229",
"rX c #564528",
"tX c #475423",
"yX c #624032",
"uX c #427522",
"iX c #457E26",
"pX c #843D33",
"aX c #833E39",
"sX c #80332D",
"dX c #884034",
"fX c #83413D",
"gX c #8C433A",
"hX c #854035",
"jX c #91453C",
"kX c #934946",
"lX c #3D892A",
"zX c #388027",
"xX c #4C851C",
"cX c #55811B",
"vX c #418027",
/* pixels */
"3.#.,.,.5.5.4.yX5.4.4.3.#.$.#.#.#.,.#.,.5.rXyX7.7.5.4.3.3.3.4.4.3.#.>.#.P U #.4.4.5.4.3.#.#.#.#.#.,.#.>.U :.4.4.yX5.4.6.3.3.4.4.",
"q.8.X.' _ 5.d.kXfXfXaXr.r.aXi.i.q.8.X.' | 5.gXkXfXfXaXi.q.0.d.d.w.8.X._ ) ,.d.kXfXdXpXi.q.q.q.q.q.8.X._ #.4.4.d.kXjXp.i.i.0.d.d.",
"8.o.8.' 0 ,.fXw.q.q.q.9.r.p.q.9.8.o.8.' 8 3.jXi.q.q.q.e.w.s.w.9.8.o.8.' 8 $.gXi.q.q.q.e.q.0.9.8.8.-.} _ 8 ,.y.pXr.q.9.9.r.s.w.q.",
"8.8.o.=.J.~.E.e o.8.8.9.9.8.8.8.8.8.o.o.e #.i.8.8.8.e.q.8.q.8.8.8.8.o.o.9 $.p.9.8.9.e.q.8.8.8.o.} OX&Xw 9 4.y.=.*.8.8.9.9.q.8.8.",
"8.8.-.E.Q.!.F 6 e o.8.9.] 8.8.8.8.8.8.1.(.).>.X.8.8.8.9.] 8.8.8.8.8.8.o.8 %.r.9.9.r.8.8.9.9.' ^ 0 {.}.c 6 J.~.H.v o.8.9.] 8.8.8.",
"8.8.-.'.S.F G _.J.v o.' _ 8.8.8.8.8.-.*X.X{.J 4 ] 8.' ' ' 8.8.8.8.8.8.' < $.*.8.8.q.' ' 8.] _ 0 7 K '.:.U G !.Q.H.z o.' _ 8.8.8.",
"' o.X.6 @ g D {..X*X+.~ ~ o.o.' ' 8.2.%X{.K I 4 8 9 ) ^ ' ] ] _ ' o.o.^ 8 $.X._ ` _ _ ' o.] c H.~.R 7 : o $ S S./.w _ 9 ~ o.o.' ",
"9 ~ 8 = 8 c 5 S.$XlXuX0 9 ~ e q / :.<.G.t $ $ T <.E (.% 0 X X < 9 ~ 8 < q 3._ < - < 9 ~ 9 h &X.X[.S o * * 7 3 & 5 : < < 9 / / 9 ",
"%.$.$.%.3.$.g K.`.uX0Xx P Y H.J.W J T.!.S.C.{.-X/.L W J.H.r c #.3.4.3.3.3.3.%.P P v #.%.h @XlX$XG.r 7 #.,.,.3.$.$.$.$.#.$.$.$.#.",
"p.pXp.i.i.w.q T 6 > > 8 ..*X.X[.J % S S./.j oX{.D & A _.&X&Xg $.d.kXkXjXd.i.i.0.&.' _ ( z qX#XU.W ).J.<.f.p.d.i.e.e.q.8.X.' _ 6.",
"pXw.9.9.9.8.q :.6 6 4 ^ z oX{.K 7 4 4 3 0 8 l 0 3 * & L ].%XC.c pXsXp.t.q.q.e.r.8.8.' ] X.0 @ % J {..X*X .8.q.q.9.9.8.9.8.' 9 ,.",
"i.8.8.q.8.X.c H.T.G.w q 0 s % n q 8 8 9 ' ' ' ' 8 8 h &X;X}.D h q.8.e.9.9.q.9.9.8.8.8.8.8.^ * 6 & K {.oXz 8.8.8.8.8.8.8.8.o./ 3.",
"' 8.o.8.8.} H.Q.!.D E E H.H.R 6 q *.] ] ] ] ] ' ~ q uXlX$XH.W c z z *.8.9.8.8.8.8.8.o.8.8.' < c 6 Y d 6 9 X.8.9.' ' ' o.8.' 8 P ",
"_ ] 8.o.8.&.'.S.S t H.G.|..X&X5 8 ' ] ' ' ' ] _ ^ [ qX#XI.$ L W J.H.v *.8.8.o.8.8.o.8.8.8.o.9 k H.^.Y 6 0 / *.| | _ o.8.o.' < #.",
"_ ` ' ] ] X.w 3 f &X.X[.A.{.oXb 8 ~ _ 9 9 ~ _ 8 9 ( 1 , @ O + D |..X&Xn X.' ] *.o.o.8.o.o.' ; {..X|.A.W.J.E <.(.J.c ( ' ] ^ < P ",
"( < < 8 9 / 9 6 @XlX$XC.+ + d >.q o = o = = : X = - = = .   X g G.$XlX@X0 9 8 9 8 9 / 8 < o 5 oX{.A.}..X[.D J _.-X&Xh 9 8 < q >.",
"#.#.#.#.#.$.#.:.cX#XI.g c c ,.6.,.#.,.,.$.#.%.v v P #.3.,.$.v 6 5 `.iXxXx %.#.%.P #.3.3.5.3.>.n b g OX&XD $ % F.$XlX@Xn $.>.3.3.",
"0.r.q.q.8.X._ / [ n $.;.d.aXaXi.q.0.d.d.r.8.X._ ) ,.d.kXfXdXs.) b J.].I.z *.X._ ) 4.4.d.kXjXp.r.q./ #.c 3 7 T s I.#XcX2.r.i.i.8.",
"9.e.@.o.] ' ' ~ o $.aXw.q.q.q.e.w.s.w.9.8.o.8.' 8 $.gXi.q.q.9.} &X.X{.K e *.8.' 8 ,.y.dXr.q.9.9.r.s.0.9 3 G.^.W % s ..) X.o.o.o.",
"8.o.] ] ] ] ' ' = %.i.8.8.8.e.q.8.q.8.8.8.8.o.o.9 $.p.9.8.9.9.} OX{.K T c / o.o.~ 6.i.d.9.8.8.9.9.0.*.q 7 G |.-X&Xh *.] ] ] X.8.",
"~ ' ] ] ] ] ] _ o #.X.o.8.8.8.9.] 8.8.8.8.8.8.o.8 %.r.9.9.r.8.q l 5 5 Q J.T ) ' 0 U 8.8.8.8.8.9._ / :.).^.!.A.{.oXb ~ ' ] ] ] *.",
"9 ' ] ' ' ] ] ~ X #.X.8.8.9.' ' ' 8.8.8.8.8.8.' < $.*.8.8.q.' ( 9 s &X-X[.L E eXH.J.&.@.o.8.8._ 0 T K {..X}.5 ; > %._ ' ' ] ' ~ ",
"- _ ' ~ ~ ' _ 2 X #.X._ ` _ _ ( ' ] ] _ ' o.o.^ 8 $.X._ ` _ _ ' z @XlX$XC.r &X-X[.G :.&.-.o.' v J.`.S.G {.oX0 = = $.( 8 8 ( ~ = ",
"= < < - - : X X 4 3.) 8 < 8 9 - 9 o X < 9 9 8 < q 3._ < - < 9 9 l cX#XI.& @ oX{.G % E ^.J.6 0 &X.X{.D # @ 5 : = q 3.q X . X .   ",
"3.$.,.3.,.,.$.$.>.3.%.$.$.#.I 7 I #.P $.$.P #.$.$.#.$.P v v P #.#.4.b c w 6 b h 6 h J [. X&X`.OX&XK h w w P P P P #.%.P #.#.P P ",
"kXdXaXd.p.d.i.e.e.q.8.X.' / D Z.G.6.q.q.q.) 0.*./ 9 ~ ( ( q 6.i.pXi.r.r.q.' *.*.q.8.7 D }.$XI.k b } w.s.q.q.8.X./ 9 ~ _ ( q 5.i.",
"q.q.i.w.9.q.q.9.9.8.9.8.' 8 S Y.Q.E.&.o.o.] 8.q.' ~ ^ ' ` o ,.d.w.9.9.9.9.8.8.8.q.8.9 r ^.].A.Z.G c *.8.@.8.q.o.' ~ _ ' 8 X 6.dX",
"o.8.@.8.8.8.8.8.8.8.8.8.o.8 % D S.J.&.] ] ] ] o.] ' ' ' ~ X 3.p.9.8.q.8.8.8.8.8.8.X.n &X.X{.F Y.Q.H.e *.8.o.o.] ] ' ] ' 8 . #.*.",
"8.o.8.8.8.8.9.' ' ' o.8.' = g Y c 0 ' ] ] ] ' ] ' ~ _ ' ` = >.i.q.8.8.8.8.8.8._ ) l uXlX$XC.t D S.J.| 8.o.] ] ] ] ' ] ] ~ X v _ ",
"] 8.o.8.8.8.] ' ' o.8.o.' 5 H.^.T 0 ) | ' ] ] ] _ ~ ' ' ( X #.*.8.8.8.8.8.8.$.K A.F.xXvX).@ 6 0 w e *.o.' ' ] ] ' ] ] ] ' = v _ ",
"` ' ] ] o.*.] ' ] ' ' ] } &X.X|.A.F A.K } _ ' ' ^ 9 ~ ~ 2 X #._ ' o._ _ ' &.J.Q.Y.K ).K.@ * %.( ( _ ' ' ~ ` ' ' ' ' _ _ ^ o v _ ",
"- < 8 / 9 / / ~ / ~ ~ < > oX{.A.A.F Y.Q.J.0 < 4 4 ;   X X 4 <.e 8 9 8 9 9 e H.!.K Y ; X o q ,.q o = o = = o : : < < X X X : P _ ",
"#.$.$.6.6.3.5.3.3.3.$.#.P b % & t T.R.!.^.<.:.G S.L.H.T :.Q ^.~.G.k I P P #.j C._.J.r 3 v %.#.%.%.P #.P P >.3.5.6.>.$.$.#.,.3.3.",
"*.X.' | 5.i.gXp.i.i.8.0.r.8.q s &X.X[.G _.'.W D [..X=XC <.*X.X|.D.Z.K P $.y.,.K {..X&Xn 0.q.q.q.8.X._ #.4.4.d.kXjXp.i.i.0.d.d.r.",
"o.8.' 8 3.i.w.@.o.o.o.8.e.o.z @XlX$XC.+ P.|.D & F.$XlXuXC oX{.G F Y.Q.H.! ^.^.W H.$XlXuX} 8.9.9.9.8.' 9 ,.y.dXr.q.9.9.r.s.w.9.9.",
"8.o.o.9 $.q.o.] ] X.8.8.o.' z qX#XI.& # /. XS 3 5 I.#XqXz 6 5 r S.R.Y.L.}. X[.J % I.#XqX[ o.8.8.8.8.o.~ 6.i.d.9.8.8.9.9.q.8.8.8.",
"8.8.o.8 $.( ' ] ] X.o.( ' ] ' z l 0 :   j oX5 8 9 q z l q 8 6 &X X[.D t oX=XA.% 4 3 6 z / ' ' ' o.8.' 8 #.8.8.8.8.8.9.] 8.8.8.8.",
"8.8.' < $._ ' ' ] ' ~ 9 ' ] ' ' ' ' ~ X P z 9 ~ *.' ` _ o.o.z oX{.K Y o s ).~.H.c : 2 9 _ ' ' o.8.o.' < P X.@.o.8.8.' _ 8.8.8.8.",
"8.o.^ 8 $.( 8 8 ( ~ = - _ ' ~ ~ ' _ 2 X #.) ~ ^ _ ` ^ ' ] ] ^ 0 5 3 T @ 6 E {..X&X6 _ ] ] ' ] ' ' ] ^ < v _ ' o.o.' 9 ~ o.o.' _ ",
"9 8 - q 3.q X   X X . = < < = = = X . 4 >.; = < 8 9 8 9 o X = 8 * $ H.H.Y 5 D {.oX6 9 / / 9 / ~ 9 8 < 9 P ) 8 9 8 < < 9 ~ / ~ ~ ",
"#.#.%.,.>.,.$.v P #.#.P %.P P P P P #.$.$.$.$.#.3.#.6.>.P v v v j &X.X|.J 5 h h h v P P $.#.$.$.#.#.3.$.3.3.3.3.$.$.$.$.%.$.$.$.",
"5.i.pXp.i.i.r.X.w.0.' _ ' X.X.) 6.i.pXp.i.i.r.X.8.8.e.q.8.X._ } uXlX$XS.j #.w.r.*.&.' _ ' X.X.=.5.d.kXdXaXd.p.d.r.e.e.q.8.X.' ( ",
"5.d.w.9.9.9.9.8.e.r.8.' ] o.] 8 3.d.w.9.9.9.9.8.8.8.9.8.9.8.' Z xXzXP.Z.Z.G.=.e.r.8.8.' ] 8._ 9 5.pXr.q.i.w.9.q.q.9.9.8.9.8.' - ",
"5.i.8.8.q.8.8.8.8.9.8.o.o.8.' 8 6.p.9.8.q.8.8.8.8.8.8.8.8.8.=.G S.C.t F Y.Q.J.-.9.8.8.8.8.8.` < $.*.o.8.@.8.8.8.8.8.8.8.8.8.o.9 ",
"#.] 8.o.8.8.8.8.o.8.8.' ] 8.] 9 3.i.q.8.8.8.8.8.8.' ' ' o.-.E.Q.Y.F S.!.R.T.J.-.8.8.8.o.8.8.' 8 P _ o.o.8.8.8.8.9.' ' ' o.8.' - ",
"$._ ] 8.o.8.o.8.8.8.] ' o.o.] 8 $.*.8.8.8.8.8.8.] ' ' o.8.&.J.S.F F |..X{.b &.o.8.8.o.8.8.8.o.9 P _ ] 8.o.8.8.8.] ' ' o.8.o.' - ",
"#._ ` ' ] ] o.] *.o.' _ ' ' ~ 8 $.' ' o._ _ ' ] _ _ ] ' ' ] / @ g C.A.{.oXq ` ] *.o.o.8.o.o.' 8 v ( ` ' ] ] o.*.] ' ] ' ' ] ^ - ",
"$.) 8 < 8 / / / / / / 9 8 : o q 3.) 8 9 8 9 9 9 8 9 / ~ 9 8 = ; 6 5 Y 5 $ 3 3 8 9 8 / / 8 < o 8 #.) 8 < 8 / 9 / / ~ / ~ 9 8 < 8 ",
"#.%.$.#.$.6.5.5.6.5.4.3.$.$.#.3.4.3.#.$.P P P %.3.3.3.3.$.#.#.P 6 g J._.G.Q.H.j $.5.3.3.$.$.#.3.3.$.#.%.$.3.6.6.5.4.3.3.$.#.%.%.",
"i.q.8.X.' X.5.d.kXfXfXaXi.q.0.d.d.w.8.X._ ) ,.d.kXfXdXpXi.q.q.q.z &X.X{.A.[..X&X:.hXp.e.q.q.*.d.d.0.X._ ~ q 5.gXkXfXfXaXr.i.aXi.",
"9.8.o.8.' 8 3.gXi.q.q.q.e.w.s.w.9.8.o.8.' 8 $.gXi.q.q.q.e.q.q.8.} OX{.D $ G.$XlXuX..o.o.@.q.s.q.8.] ' ' ~ o 3.jXr.q.q.q.9.r.p.q.",
"8.8.8.o.o.9 %.i.8.8.8.e.q.8.q.8.8.8.8.o.o.9 $.p.9.8.9.e.q.8.8.8.X.z 5 3 4 E /.#X0Xl ' X.8.0.0.o.] ] ] ' ' = $.i.8.8.8.8.9.9.8.8.",
"8.8.8.8.o.8 $.X.o.8.8.8.9.] 8.8.8.8.8.8.o.8 %.r.9.9.r.8.8.9.9.' ' / 6 7 T eXP.f , 8 ' X.o.( ] ] ] ] ] ] _ o #.X.o.8.8.8.9.] 8.8.",
"8.8.8.8.' < $.X.8.8.9.' ' ' 8.8.8.8.8.8.' < $.*.8.8.q.' ' 8.] ' #.J.~.A.D {. X&X0 ^ ] ' ~ 9 ' ] ' ] ] ] ~ X #.X.8.8.8.8.' _ 8.8.",
"_ ' o.] ~ o #.X._ ^ _ ` ^ X._ ] _ ' o.o.^ 8 $.X._ ` _ _ ' &.&. .*X.X|.F $ G {.oX6 ` ' ( * = ' ' ~ ~ ' _ 2 X #.X._ _ ] ' 9 ~ ] *.",
"9 9 ~ = o 0 %.) 8 < < 9 8 V # X = 9 ~ 8 < q 6._ 8 - 8 9 c K A.C.+X{.G F Z.Z.t # X = @ b.# * < < - = : X . 4 >.| 8 - < < < 9 ) 9 ",
"b %.$.b v P c v P %.#.%.b ,Xb #.%.3.3.,.3.3.3.3.$.#.$.:.H.!.Y.D.P.u t S Y.!.H.U v #.n 1XB b P P $.%.$.#.v >.#.3.$.P v v P :.:X#.",
"tXu.2.6XO.&.q 8 / | X.' q 2X1.f.a.d.d.i.d.r.q.e.q.*.X.| L P.D.[..X&Xm.s A H.K.} / / z :Xl  .0.' q.u.-.0./ X.) ..*.X.( 8 8 b tXy.",
"4X+.3X6XO.u.:X[ ) >XO.~ > 1Xb.O.rXa.q.&.0.&.0.8.X.| X.| > m.P.S.+XV.9X6 ) -.2.7Xl ~ ) ,X> :Xa.) | 7X[ ' ~ ' | :XX.' ' 9 X s 3X..",
"8XB N.wX[ O.3X6X| { C 9 ; c.M ) [ >X=.| :X{ 7X} ..:X{ V p F.A.$ p l.B.M ) ( O.3XB ) { v.> v.2./ [ 5Xz / 9 ) q v.z ) [ b.@ k.2X{ ",
"8XN l.8Xx...{ <X[ v.M.z > i B q q v.V [ 5X+.3XB l v.M.U.{.C.H & 7 6 N u q q [ ,Xk.z 5XM.d k.v.[ [ :Xz x m 7Xl v.d b.z v.a 1X8Xk.",
"c.m.l.N.l.v.z C m x.4XB ,Xm.N V z k.M.{ 2XB 1XB q z c.oX{.S F Z.G d B f z b.m M B { 2Xc.c.j B m <XM.z l v.2Xx 1Xk.u l 1Xn.l.N.i ",
"m.j.m.N.j.M z B c.N 1Xh.B.h.l.i c.z.m.x.1XN h.u l B c.d @ Y D Y.L.g.u l f l.c.N 1XM.N m.j.j B ,XN.h.,XB h.B.N 1Xh.u M 1Xi i c.u ",
"u i i m.u u c.i h.y z.n.i N u u m.u h.i B.h.y u c.h.u * * :.7 F Q.g.y M u m.N B.9Xi y n.i N y i m.i m.i B.i y m.i l.h.m.h.j.u y "
};
