/* XPM */
static char *_1f01dc4d80345b4e9e7639cbbc91194KybWLJtp6nNeelR4[] = {
/* columns rows colors chars-per-pixel */
"64 64 220 2 ",
"   c #000000",
".  c #0C0C0C",
"X  c #0D0706",
"o  c #110907",
"O  c #140A08",
"+  c #1A0B0A",
"@  c #1C150C",
"#  c #131409",
"$  c #121212",
"%  c #1B1D14",
"&  c #181A14",
"*  c #240D0B",
"=  c #2C0D0D",
"-  c #310E0D",
";  c #2D110E",
":  c #251B0C",
">  c #24160D",
",  c #32100F",
"<  c #330F10",
"1  c #241612",
"2  c #2B1311",
"3  c #251B14",
"4  c #2C1B13",
"5  c #281E18",
"6  c #351311",
"7  c #3C1414",
"8  c #331C15",
"9  c #3C1B15",
"0  c #3D1C19",
"q  c #351F19",
"w  c #182619",
"e  c #163413",
"r  c #1B3415",
"t  c #1D3B15",
"y  c #15391D",
"u  c #182109",
"i  c #242215",
"p  c #2D2414",
"a  c #212C16",
"s  c #24221A",
"d  c #2D291A",
"f  c #342213",
"g  c #3C2315",
"h  c #33221B",
"j  c #3A251E",
"k  c #36291C",
"l  c #3B2D1E",
"z  c #382A15",
"x  c #223516",
"c  c #233C16",
"v  c #2B3D16",
"b  c #2A3A18",
"n  c #333C18",
"m  c #132F24",
"M  c #0B3426",
"N  c #053B2B",
"B  c #0B3B2A",
"V  c #0B3828",
"C  c #143529",
"Z  c #133C2B",
"A  c #143A26",
"S  c #3D2720",
"D  c #3D2B23",
"F  c #312E20",
"G  c #3C3321",
"H  c #373926",
"J  c #3F3F3F",
"K  c #353535",
"L  c #232323",
"P  c #421615",
"I  c #4A1717",
"U  c #421A16",
"Y  c #4C1917",
"T  c #441B19",
"R  c #4D1A19",
"E  c #541C1A",
"W  c #5A1F1C",
"Q  c #422416",
"!  c #432A16",
"~  c #43251B",
"^  c #4B231B",
"/  c #432A1C",
"(  c #4C2B1B",
")  c #55221D",
"_  c #5D211E",
"`  c #532A1D",
"'  c #4A311C",
"]  c #61221F",
"[  c #442B23",
"{  c #4A2D26",
"}  c #432A24",
"|  c #5D2420",
" . c #532B23",
".. c #5D2C24",
"X. c #582926",
"o. c #433324",
"O. c #4C3226",
"+. c #4E3128",
"@. c #443A28",
"#. c #543324",
"$. c #52332A",
"%. c #55392C",
"&. c #5A3A2D",
"*. c #593425",
"=. c #5E3E32",
"-. c #403F3F",
";. c #642422",
":. c #692624",
">. c #642A24",
",. c #6C2A26",
"<. c #6D2C29",
"1. c #712C26",
"2. c #732E29",
"3. c #792F2A",
"4. c #66382B",
"5. c #75322C",
"6. c #79332D",
"7. c #713C2C",
"8. c #7B3A34",
"9. c #773732",
"0. c #1D461C",
"q. c #244216",
"w. c #2D4319",
"e. c #2D4B19",
"r. c #284417",
"t. c #334C1A",
"y. c #3C4C1B",
"u. c #374418",
"i. c #2F5119",
"p. c #33521A",
"a. c #3B531B",
"s. c #3A5919",
"d. c #2F631E",
"f. c #05422C",
"g. c #0C432B",
"h. c #0D4C2D",
"j. c #0D4427",
"k. c #154B2E",
"l. c #1A4B2E",
"z. c #154528",
"x. c #12532F",
"c. c #1E5529",
"v. c #0B4C30",
"b. c #1F4D31",
"n. c #0A5332",
"m. c #075132",
"M. c #155131",
"N. c #1A5531",
"B. c #0C522F",
"V. c #21482C",
"C. c #394529",
"Z. c #215A32",
"A. c #3F403F",
"S. c #1C6334",
"D. c #186637",
"F. c #1C713A",
"G. c #346C26",
"H. c #3B6F2A",
"J. c #387927",
"K. c #226231",
"L. c #2A6434",
"P. c #216D38",
"I. c #2C712C",
"U. c #434B1D",
"Y. c #48491A",
"T. c #435516",
"R. c #445B16",
"E. c #4B5A17",
"W. c #45541C",
"Q. c #4B5718",
"!. c #525719",
"~. c #504F18",
"^. c #4B6118",
"/. c #456317",
"(. c #4F7418",
"). c #564528",
"_. c #454F25",
"`. c #624032",
"'. c #427622",
"]. c #3F3F40",
"[. c #464646",
"{. c #4C4C4C",
"}. c #525252",
"|. c #5B5B5B",
" X c #7F7F7F",
".X c #727272",
"XX c #843D33",
"oX c #833E39",
"OX c #80332D",
"+X c #83413D",
"@X c #8D4439",
"#X c #884034",
"$X c #91453C",
"%X c #944A46",
"&X c #807F7F",
"*X c #3D892A",
"=X c #57821C",
"-X c #7F807F",
";X c #8D8D8D",
":X c #838383",
">X c #929292",
",X c #BEBEBE",
"<X c #AEB3AE",
"1X c #C5B0AF",
"2X c #CBCBCB",
"3X c #C3C3C3",
"4X c #D6CFCF",
"5X c #D4D0CF",
"6X c #CEDAD5",
"7X c #D4D2D1",
"8X c #DCD2D2",
"9X c #D6DBD6",
"0X c #CFD0CF",
"qX c #E1D4D3",
"wX c #E6D9D7",
"eX c #D2E1D7",
"rX c #D8E4D4",
"tX c #E7E7E7",
"yX c #FFFFFF",
"uX c #F4F4F4",
/* pixels */
"$.[ +.+.&.&.%.`.&.%.%.$.[ { [ [ [ +.[ +.&.).`.=.=.&.%.$.$.$.%.%.$.[ O.[ S D [ %.%.%.%.$.[ [ [ [ [ +.[ O.D o.%.%.`.&.%.$.$.$.%.%.",
",.;._ E R &.8.%X+X+XoX2.2.oX5.5.,.;._ E ^ &.@X%X+X+XoX5.,.>.8.8.<.;._ R R +.8.%X+X#XXX5.,.,.,.,.,.;.) R [ %.%.8.%X$X6.5.5.>.8.8.",
";._ ;.E 8 @.+X<.,.,.,.:.2.6.,.:.;._ ;.E 6 $.$X5.,.,.,.1.<.9.<.:.;._ ;.E 6 { @X5.,.,.,.1.,.>.:.;.;...~ R 6 +.4.XX2.,.:.:.2.9.<.,.",
";.;._  .l.M.b.0 _ ;.;.:.:.;.;.;.;.;._ _ 0 [ 5.;.;.;.1.,.;.,.;.;.;.;._ _ 7 { 6.:.;.:.1.,.;.;.;._ ~ H.L.8 7 %.4. .| ;.;.:.:.,.;.;.",
";.;...b.n.m.N 4 0 _ ;.:.E ;.;.;.;.;.;.#.V.C.O.) ;.;.;.:.E ;.;.;.;.;.;._ 6 [ 2.:.:.2.;.;.:.:.E I 8 S.F.h 4 l.M.k.j _ ;.:.E ;.;.;.",
";.;...Z.h.N B C.l.j _ E R ;.;.;.;.;...L.F.S.C 2 W ;.E E E ;.;.;.;.;.;.E , { | ;.;.,.E E ;.W R 8 5 Z Z.o.D V m.n.k.g _ E R ;.;.;.",
"E _ _ 4 @ s V S.F.L.' P P _ _ E E ;.*.H.S.Z F 2 6 7 T I E W E R E _ _ I 6 { ) R Y R R E _ E h k.M.H 3 ; + & M h.N.8 R 7 P _ _ E ",
"7 7 6 = 6 h 3 h.J.*X'.8 7 P 0 9 U o.@.z.w & & G @.H V.% 8 O O , 7 P 6 , 0 $.R , - , 7 P 7 d K.F.D.M + * * 3 1 @ 3 ; , , 7 T T 7 ",
"[ { { [ $.{ s z.C.'.(.z S H k.l.H C x.m.h.j.S.P.S.C H l.k.w h [ $.%.$.$.$.$.[ S S j } [ d J.*XJ.k.w 5 } +.+.$.{ { { { [ { { { } ",
"6.XX6.5.5.<.9 G 4 : : 6 ( L.F.D.C % M h.N.d G.S.V & m C.K.K.s { 8.%X%X$X8.5.5.>.| E R I g (.J.c.H C.l.@.9.5.8.5.1.1.,.;._ E R %.",
"XX<.:.:.:.;.0 o.4 4 2 I g G.S.Z 3 2 2 1 8 6 f 8 1 * @ C C.J.j.h XXOX6.3.,.,.1.2.;.;.E W _ 8 @ % C S.F.L./ ;.,.,.:.:.;.:.;.E 7 +.",
"5.;.;.,.;._ h k.x.z.q 9 8 i % l 0 6 6 7 E E E E 6 6 d K.P.D.V h ,.;.1.:.:.,.:.:.;.;.;.;.;.I * 3 @ Z S.G.g ;.;.;.;.;.;.;.;._ U $.",
"E ;._ ;.;.~ k.n.m.V H H <X6X9X7X7X8X8X8X8X8X8X8X7X7XrXrXrX6X9X9X7X7X8XqXqXqXqXqXqXqX8XqXqX8X4X7X7X9X7X<X7 _ ;.:.E E E _ ;.E 6 S ",
"R W ;.] ;. .Z.h.M w k.g.eXyXyXyXyXyXyXyXyXyXyXyXyXyXyXyXyXyXyXyXyXyXyXyXyXyXyXyXyXyXyXyXyXyXyXyXyXyXyX7X8 U | ^ ^ R _ ;._ E , [ ",
"R Y E W W _ 8 1 a K.F.D.6XyXyXyXyXyXyXyXyXyXyXyXyXyXyXyXyXyXyXyXyXyXyXyXyXyXyXyXyXyXyXyXyXyXyXyXyXyXyX6Xl.H @.V.l.k I E W I , S ",
"I , , 6 7 U 7 4 J.*XJ.j.0XyXyXyXyXyXyXyXyXyXyXyXyXyXyXyXyXyXyXyXyXyXyXyXyXyXyXyXyXyXyXyXyXyXyXyXyXyXyXeXD.V C C.P.K.d 7 6 , 0 O.",
"[ [ [ [ [ { } o.=XJ.c.s 7XyXyXyXyXyXyXyXyXyXyXyXyXyXyXyXyXyXyXyXyXyXyXyXyXyXyXyXyXyXyXyXyXyXyXyXyXyXyXeXV & % z.J.*XJ.l { +.$.$.",
">.2.,.,.;.) R U Q l { X.wXyXyXyXyXyXyXyXyXyXyXyXyXyXyXyXyXyXyXyXyXyXyXyXyXyXyXyXyXyXyXyXyXyXyXyXyXyXyX7X1 3 G i l.J.=X*.2.5.5.;.",
":.1.] _ W E E P + { oX<.qXyXyXyXyXyXyXyXyXyXyXyXyXyXyXyXyXyXyXyXyXyXyXyXyXyXyXyXyXyXyXyXyXyXyXyXyXyXyX7X1 z.M.H % i ( T _ _ _ _ ",
";._ W W W W E E = [ 5.;.qXyXyXyXyXyXyXyXyXyXyXyXyXyXyXyXyXyXyXyXyXyXyXyXyXyXyXyXyXyXyXyXyXyXyXyXyXyXyX7X5 N D.P.K.d | W W W _ ;.",
"P E W W W W W R + [ ) _ qXyXyXyXyXyXyXyXyXyXyXyXyXyXyXyXyXyXyXyXyXyXyXyXyXyXyXyXyXyXyXyXyXyXyXyXyXyXyX9XM.m.g.S.G.k P E W W W | ",
"7 E W E E W W P o [ _ ;.qXyXyXyXyXyXyXyXyXyXyXyXyXyXyXyXyXyXyXyXyXyXyXyXyXyXyXyXyXyXyXyXyXyXyXyXyXyXyXeXF.D.3 > : [ R E E W E P ",
"- R E P 7 E R < o [ _ R 7XtX X XtXyXyXyXyXyXyX,X X X9XyXyXyXyXyXyX,X X;XyXyXyX<X X X X X X X&X X X&X2X6XS.G.8 = = { I 6 6 Y P = ",
"= , , - - ; O o 2 $.R 6 4XyX.   >XyXyXyXyXyXyX[.    ;XyXyXyXyXyXyX[.  {.yXyXyX|.                    >X5X@ 3 ; = 0 $.0 o o O o X ",
"$.{ +.$.+.+.{ { +.$.[ { 8XyX[.  }.yXyXyXyXyXyX.     {.yXyXyXyXyXyX.   ;XyXyXyX|.  L &X X X X X X&X-X2X7Xq S S S S [ [ S [ [ S S ",
"%X#XoX8.6.8.5.1.1.,.;._ 8XyX;X  $ yXyXyXyXyX2X  {.. . yXyXyXyXyX2X    2XyXyXyX|.  [.yXyXyXyXyXyXyXyXyXwX,.,.;.) U 7 P R I 0 &.5.",
",.,.5.<.:.,.,.:.:.;.:.;.8XyX2X    7XyXyXyXyX;X  ;X{.  2XyXyXyXyX;X  $ yXyXyXyX|.  [.yXyXyXyXyXyXyXyXyXqX] ;.,._ E P R E 6 O %.#X",
"_ ;.] ;.;.;.;.;.;.;.;.;.8XyXyX.   >XyXyXyXyX[.  2X;X  ;XyXyXyXyX{.  }.yXyXyXyX|.  [.yXyXyXyXyXyXyXyXyX8X;._ _ W W E W E 6 o [ | ",
";._ ;.;.;.;.:.E E E _ ;.8XyXyX[.  }.yXyXyXyX. . yX2X  {.yXyXyXyX.   >XyXyXyXyX|.  [.yXyXyXyXyXyXyXyXyXqX_ W W W W E W W P O j R ",
"W ;._ ;.;.;.W E E _ ;._ 8XyXyX;X  $ yXyXyX2X  [.yXyXX . yXyXyX2X    7XyXyXyXyX|.  K ,X,X,X,X,X,X,X,XyX8XE E W W E W W W E = j R ",
"Y E W W _ | W E W E E W 7XyXyX2X    7XyXyX;X  :XyXyX[.  7XyXyX;X  $ yXyXyXyXyX|.                    uX8XP Y E E E E R R U + j R ",
"- , 6 U 7 U T P U P P , 5XyXyXyX.   >XyXyX{.  3XyXyX:X  >XyXyX{.  }.yXyXyXyXyX|.  $ J -.A.J J J ].J uX4X= + ; ; , , O o O ; S R ",
"[ { { $.%.$.&.$.$.$.{ [ 8XyXyXyX[.  }.yXyX. X yXyXyX3X  }.yXyX.   >XyXyXyXyXyX|.  [.yXyXyXyXyXyXyXyXyX8XS O.$.&.$.+.{ { [ +.$.$.",
"| _ E ^ &.5.@X6.5.5.;.>.qXyXyXyX;X  $ yX2X  [.yXyXyXyX  $ yX2X    7XyXyXyXyXyX|.  [.yXyXyXyXyXyXyXyXyX8X%.%.8.%X$X6.5.5.>.8.8.2.",
"_ ;.E 6 $.5.<.] _ _ _ ;.qXyXyXyX2X    7X;X  :XyXyXyXyXJ   7X;X  $ yXyXyXyXyXyX|.  [.yXyXyXyXyXyXyXyXyX7X+.4.#X2.,.:.:.2.9.<.:.:.",
";._ _ 7 { ,._ W W _ ;.;.8XyXyXyXyX.   >X{.  ,XyXyXyXyX X  >X{.  }.yXyXyXyXyXyX|.  [.yXyXyXyXyXyXyXyXyX7X$.5.8.:.;.;.:.:.,.;.;.;.",
";.;._ 6 { I E W W _ _ I 8XyXyXyXyX{.  }..   uXyXyXyXyX,X  }..   >XyXyXyXyXyXyX|.  [.yXyXyXyXyXyXyXyXyX4X[ ;.;.;.;.;.:.E ;.;.;.;.",
";.;.E , { R E E W E P 7 8XyXyXyXyX;X      J yXyXyXyXyXuX        9XyXyXyXyXyXyX|.  [.yXyXyXyXyXyXyXyXyX4XS ) ] _ ;.;.E R ;.;.;.;.",
";._ I 6 { I 6 6 Y P = - 8XyXyXyXyX2X       XyXyXyXyXyXyXK     $ yXyXyXyXyXyXyX|.                    |.4Xj R E _ _ E 7 P _ _ E R ",
"7 6 - 0 $.0 O X o o o = 4XyXyXyXyXyX.     ,XyXyXyXyXyXyX.X    }.yXyXyXyXyXyXyX|.                    |.7XS R 6 7 6 , , 7 P T P P ",
"[ [ [ +.O.+.{ j S [ [ S 8XyXyXyXyXyXyXyXyXyXyXyXyXyXyXyXyXyXyXyXyXyXyXyXyXyXyXyXyXyXyXyXyXyXyXyXyXyXyX8X$.$.$.$.{ { { { [ { { { ",
"&.5.XX6.5.5.2._ <.>.E R 8XyXyXyXyXyXyXyXyXyXyXyXyXyXyXyXyXyXyXyXyXyXyXyXyXyXyXyXyXyXyXyXyXyXyXyXyXyXyXwXoX8.6.8.2.1.,.,.;._ E I ",
"&.8.<.:.:.:.:.;.1.2.;.E 8XyXyXyXyXyXyXyXyXyXyXyXyXyXyXyXyXyXyXyXyXyXyXyXyXyXyXyXyXyXyXyXyXyXyXyXyXyXyXqX5.<.:.,.,.:.:.;.:.;.E - ",
"&.5.;.;.,.;.;.;.;.:.;._ 8XyXyXyXyXyXyXyXyXyXyXyXyXyXyXyXyXyXyXyXyXyXyXyXyXyXyXyXyXyXyXyXyXyXyXyXyXyXyXqX] ;.;.;.;.;.;.;.;.;._ 7 ",
"[ E ;._ ;.;.;.;._ ;.;.E 8XyXyXyXyXyXyXyXyXyXyXyXyXyXyXyXyXyXyXyXyXyXyXyXyXyXyXyXyXyXyXyXyXyXyXyXyXyXyX8X;.;.;.;.:.E E E _ ;.E - ",
"{ R W ;._ ;._ ;.;.;.W E 8XyXyXyXyXyXyXyXyXyXyXyXyXyXyXyXyXyXyXyXyXyXyXyXyXyXyXyXyXyXyXyXyXyXyXyXyXyXyX8X_ ;.;.;.W E E _ ;._ E - ",
"} R Y E W W _ W | _ E R 8XyXyXyXyXyXyXyXyXyXyXyXyXyXyXyXyXyXyXyXyXyXyXyXyXyXyXyXyXyXyXyXyXyXyXyXyXyXyX8XW W _ | W E W E E W I - ",
"{ R 6 , 6 U T U U T U 7 5XyXyXyXyXyXyXyXyXyXyXyXyXyXyXyXyXyXyXyXyXyXyXyXyXyXyXyXyXyXyXyXyXyXyXyXyXyXyX4X6 U 7 U T P U P 7 6 , 6 ",
"[ [ { [ { $.&.&.%.&.%.$.8XyXyXyXyXyXyXyXyXyXyXyXyXyXyXyXyXyXyXyXyXyXyXyXyXyXyXyXyXyXyXyXyXyXyXyXyXyXyX8X{ $.%.$.&.%.$.$.{ [ [ [ ",
"5.,.;._ E ) &.8.%X+X+XoXqXyXyXyXyXyXyXyXyXyXyXyXyXyXyXyXyXyXyXyXyXyXyXyXyXyXyXyXyXyXyXyXyXyXyXyXyXyXyX8XP 0 &.@X%X+X+XoX2.5.oX5.",
":.;._ ;.E 6 $.@X2.,.,.,.qXyXyXyXyXyXyXyXyXyXyXyXyXyXyXyXyXyXyXyXyXyXyXyXyXyXyXyXyXyXyXyXyXyXyXyXyXyXyX8XP + $.$X5.,.,.,.:.2.6.,.",
";.;.;._ _ 7 [ 5.;.;.;.1.1XqXqXqXqXqXqX8X8X7X8XwXqXqXqXqXqXqXqXqX8X7X7X5X7X9X6XrXrX7X8X8XqXqXqX8X8X8X8X1XE = { 5.;.;.;.;.:.:.;.;.",
";.;.;.;._ 6 { ) _ ;.;.;.:.E ;.;.;.;.;.;._ 6 [ 2.:.:.2.;.;.:.,.E E U 4 3 G _.x.a : 6 E _ _ I W W W W W W R + [ ) _ ;.;.;.:.E ;.;.",
";.;.;.;.E , { _ ;.;.:.E E E ;.;.;.;.;.;.E , { | ;.;.,.E E ;.W E [ l.M.g.V S.F.K.8 I W E P 7 E W E W W W P o [ _ ;.;.;.;.E R ;.;.",
"R E _ W P + [ ) R Y R Y I ) R E R E _ _ I 6 { ) R Y R R E |  ./ L.F.D.N & N S.G.4 Y E Y * = E E P P E R < o [ ) R R W E 7 P W | ",
"7 7 P = + 8 [ R 6 , , 7 6 b # O = 7 P 6 , 0 $.R 6 - 6 7 h Z g.g.I.S.N N N N w # o = @ u.# * , , - = ; O o 2 +.^ 6 - , , , 7 U 7 ",
"k [ { k j S h j S [ [ [ k T.k [ [ $.$.+.$.$.$.$.{ [ { o.k.m.m.f.x.w w M m.m.k.D j [ l R.v k S S { [ { [ j +.[ #.{ j j j S o.U.[ ",
"_.4.*.!.` | 0 6 U ^ ) E 9 E.#.9.7.8.8.5.8.2.,.1.,.| _ ^ A x.f.D.F.K.p.i m k.z.~ U U g U.f / >.E ,.<...>.T ) T ^ | ) I 6 6 k _.4.",
"W.' W.!.` <.U.Q U Y.` P > R.u.` ).7.,.| >.| >.;.) ^ _ ^ 3 p.x.h.I.d./.4 T ..*.~.g P U T.: U.7.R ^ ~.Q E P E ^ U.) E E 7 O i W.( ",
"^.b s.^.Q ` W.!.^ ! n 7 * t.x U Q Y. .^ U.! ~.~ ^ U.! b y j.g.& y i.s.x T I ` W.n U ! y.: y.*.U Q Q.g U 7 T 0 y.g T Q u.@ w.E.! ",
"^.q.e.^.u.^ ! Q.Q y.a.g : t b 9 0 y.b Q !.' W.v f y.a.c.S.j.N $ 3 3 c r 0 0 Q T.w.g Q.a.p w.y.Q Q U.g d z ~.f y.p u.g y.u R.^.w.",
"t.p.e.s.e.y.g n z w.R.v T.p.c b z w.y.! E.v R.v 9 g t.G.S.M N f.B p b a g u.z x v ! E.t.t.d v z Q.a.g g y.E.z R.r.r f R.i.e.s.t ",
"p.q.p.s.r.x z v t.c R.q.s.q.e.t t.e.p.w.R.c q.r f v t.p @ G V m.B.0.r f a e.t.c R.a.c p.r.d v T.s.q.T.v q.s.c R.r.r x R.t t t.r ",
"t t t p.r r t.t q.e r.i.t c r r p.t q.t s.q.e r t.q.r * * o.5 N n.0.e x r p.c s./.t e i.t c e t p.t p.c s.t e p.t e.q.p.q.q.t e "
};
