/* XPM */
static char *door[] = {
/* columns rows colors chars-per-pixel */
"64 64 228 2 ",
"   c gray6",
".  c #101010",
"X  c #111111",
"o  c gray7",
"O  c #131313",
"+  c gray10",
"@  c gray11",
"#  c #1E1E1E",
"$  c #202020",
"%  c #222222",
"&  c #232323",
"*  c gray14",
"=  c #252525",
"-  c #272727",
";  c #2A2A2A",
":  c gray17",
">  c #2C2C2C",
",  c #2D2D2D",
"<  c gray18",
"1  c #2F2F2F",
"2  c gray19",
"3  c #313131",
"4  c #323232",
"5  c gray20",
"6  c #343434",
"7  c #353535",
"8  c gray21",
"9  c #373737",
"0  c gray22",
"q  c #393939",
"w  c #3A3A3A",
"e  c gray23",
"r  c #3C3C3C",
"t  c gray24",
"y  c #3E3E3E",
"u  c #3F3F3F",
"i  c gray25",
"p  c #414141",
"a  c gray26",
"s  c #434343",
"d  c #444444",
"f  c gray27",
"g  c #464646",
"h  c gray28",
"j  c #484848",
"k  c #494949",
"l  c gray29",
"z  c #4B4B4B",
"x  c #4C4C4C",
"c  c gray30",
"v  c #4E4E4E",
"b  c gray31",
"n  c #505050",
"m  c #515151",
"M  c gray32",
"N  c #535353",
"B  c gray33",
"V  c #555555",
"C  c #565656",
"Z  c gray34",
"A  c #585858",
"S  c gray35",
"D  c #5A5A5A",
"F  c #5B5B5B",
"G  c gray36",
"H  c #5D5D5D",
"J  c gray37",
"K  c #5F5F5F",
"L  c #606060",
"P  c gray38",
"I  c #626262",
"U  c gray39",
"Y  c #646464",
"T  c #656565",
"R  c gray40",
"E  c #676767",
"W  c #686868",
"Q  c DimGray",
"!  c #6A6A6A",
"~  c gray42",
"^  c #6C6C6C",
"/  c #6D6D6D",
"(  c gray43",
")  c #6F6F6F",
"_  c gray44",
"`  c #717171",
"'  c #727272",
"]  c gray45",
"[  c #747474",
"{  c gray46",
"}  c #767676",
"|  c #777777",
" . c gray47",
".. c #797979",
"X. c gray48",
"o. c #7B7B7B",
"O. c #7C7C7C",
"+. c gray49",
"@. c #7E7E7E",
"#. c gray50",
"$. c #808080",
"%. c #818181",
"&. c gray51",
"*. c #838383",
"=. c #848484",
"-. c gray52",
";. c #868686",
":. c gray53",
">. c #888888",
",. c #898989",
"<. c gray54",
"1. c #8B8B8B",
"2. c gray55",
"3. c #8D8D8D",
"4. c #8E8E8E",
"5. c gray56",
"6. c #909090",
"7. c gray57",
"8. c #929292",
"9. c #939393",
"0. c gray58",
"q. c #959595",
"w. c gray59",
"e. c #979797",
"r. c #989898",
"t. c gray60",
"y. c #9A9A9A",
"u. c #9B9B9B",
"i. c gray61",
"p. c #9D9D9D",
"a. c gray62",
"s. c #9F9F9F",
"d. c #A0A0A0",
"f. c gray63",
"g. c #A2A2A2",
"h. c gray64",
"j. c #A4A4A4",
"k. c #A5A5A5",
"l. c gray65",
"z. c #A7A7A7",
"x. c gray66",
"c. c #A9A9A9",
"v. c #AAAAAA",
"b. c gray67",
"n. c #ACACAC",
"m. c gray68",
"M. c #AEAEAE",
"N. c #AFAFAF",
"B. c gray69",
"V. c #B1B1B1",
"C. c #B2B2B2",
"Z. c gray70",
"A. c #B4B4B4",
"S. c gray71",
"D. c #B6B6B6",
"F. c #B7B7B7",
"G. c gray72",
"H. c #B9B9B9",
"J. c gray73",
"K. c #BBBBBB",
"L. c #BCBCBC",
"P. c gray74",
"I. c gray",
"U. c gray75",
"Y. c #C0C0C0",
"T. c #C1C1C1",
"R. c gray76",
"E. c #C3C3C3",
"W. c gray77",
"Q. c #C5C5C5",
"!. c #C6C6C6",
"~. c gray78",
"^. c #C8C8C8",
"/. c gray79",
"(. c #CACACA",
"). c #CBCBCB",
"_. c gray80",
"`. c #CDCDCD",
"'. c #CECECE",
"]. c gray81",
"[. c #D0D0D0",
"{. c gray82",
"}. c #D2D2D2",
"|. c LightGray",
" X c gray83",
".X c #D5D5D5",
"XX c gray84",
"oX c #D7D7D7",
"OX c #D8D8D8",
"+X c gray85",
"@X c #DADADA",
"#X c gray86",
"$X c gainsboro",
"%X c #DDDDDD",
"&X c gray87",
"*X c #DFDFDF",
"=X c gray88",
"-X c #E1E1E1",
";X c #E2E2E2",
":X c gray89",
">X c #E4E4E4",
",X c gray90",
"<X c #E6E6E6",
"1X c #E7E7E7",
"2X c gray91",
"3X c #E9E9E9",
"4X c #EAEAEA",
"5X c gray92",
"6X c #ECECEC",
"7X c gray93",
"8X c #EEEEEE",
"9X c #EFEFEF",
"0X c gray94",
"qX c #F1F1F1",
"wX c gray95",
"eX c #F3F3F3",
"rX c #F4F4F4",
"tX c gray96",
"yX c #F6F6F6",
"uX c gray97",
"iX c #F8F8F8",
"pX c #F9F9F9",
"aX c gray98",
"sX c #FBFBFB",
"dX c gray99",
"fX c #FDFDFD",
"gX c #FEFEFE",
"hX c white",
/* pixels */
"hXhXhXhXhXhXhXhXhXyXwXwX2X2X,X,X=X@XXXXX|.'.).).Y.P.P.K.Z.N.N.b.z.f.f.a.u.0.0.3.>.>.;.$.+.+.| ] / / Y Y I H S S Z N b j j d r w ",
"aXhXaXyXwXwX6X2X,X=X*X*X*XXX|.|.'.).~.Y.P.P.K.K.D.N.b.b.z.f.a.a.u.0.0.8.3.>.>.;.$.+.X.| ] ] / Q Y Y Y H S Z Z N b j j d a r r 4 ",
"aXwX).b.f.a.a.u.u.u.0.8.8.8.>.>.>.>.;.$.+.+.+.X.X.X.| | ] ] / / / Q Y Y Y I H I H S S Z Z N N b b b j d d d a r r r w w 7 4 7 : ",
"hXwXZ.a : : : : > > > > > > > > 4 7 7 7 7 7 7 7 w w w w w w w w r r r r r r r a a d d d d d d d d d d d d d d d d d d d b 4 4 : ",
"hXyXZ.7 r b b b N N Z S S H H I Y Y Q Q / / ] | | X.X.+.$.$.$.;.;.3.3.3.3.8.0.0.u.u.f.f.f.z.b.b.b.N.D.D.D.D.D.D.D.D.D.D.z.4 > > ",
"hXaXZ.w N Y I Q Q / | | | | +.+.$.;.>.>.>.3.8.0.u.a.a.f.f.z.b.b.Z.D.K.K.K.Y.~.~.~.'.|.|.XXXX@X*X*X,X,X,X2X6X6XwXaXaXaXwXP.> > > ",
"hXyXZ.w b I I I Y Q / / / | | | +.$.$.$.;.>.>.3.8.0.0.0.a.a.a.z.b.b.N.N.Z.D.D.K.P.P.Y.~.~.).).'.|.|.XX@X*X*X=X,X2X2X6X,XZ.: > 4 ",
"hXaXZ.w N Y I Y Q / / ] | | | +.$.$.$.;.>.>.3.8.0.0.u.a.a.f.z.z.b.b.N.Z.D.D.D.P.P.P.~.~.).).'.|.|.XX@X*X*X=X,X,X2X6X6X,XZ.: > 4 ",
"hXhXD.w Z Q Y Q / / / | | X.+.+.$.$.;.>.>.3.8.0.0.u.a.a.a.z.z.b.b.N.Z.D.D.K.P.P.P.~.~.).).'.|.|.XX@X*X*X=X,X,X2X6X6XwX,XD.> 4 4 ",
"hXhXD.r Z Q Q Q / / | | X.+.+.$.$.;.>.>.3.8.0.0.0.a.a.a.z.z.b.b.N.Z.Z.D.K.P.P.Y.~.~.).).'.|.|.XX@X*X*X=X,X,X2X6X6X6X6X2XP.> 4 4 ",
"hXhXD.r S / / / ] | | X.+.+.$.$.;.>.>.3.8.0.0.u.a.a.a.z.z.b.b.N.Z.D.D.D.P.P.Y.~.~.).).'.|.|.XX@X*X*X=X,X,X2X6X6X6X6XyXyXP.> 4 7 ",
"hXhXD.r S ] / ] | | X.+.+.$.$.;.>.>.3.8.0.0.0.u.a.a.f.z.b.b.N.Z.Z.D.D.P.P.Y.~.~.).).'.|.|.XX@X*X*X=X,X2X2X6XwX6X6XyXhXyXP.> 7 w ",
"hXhXK.r S ] ] | | X.+.$.$.$.;.>.>.3.8.0.0.u.a.a.a.z.z.b.b.N.Z.D.D.D.K.P.Y.~.~.).).'.|.|.XX@X@X*X=X,X,X2X6XwX6X6XwXhXhXyXP.4 w w ",
"hXhXK.r H | | | X.+.+.$.$.;.>.>.3.8.0.0.u.u.a.a.f.z.b.b.N.Z.Z.D.K.P.P.P.Y.~.).).'.|.|.XX@X@X*X*X=X,X2X6X6XwX6XyXaXhXhXyXP.4 w w ",
"hXhXK.r I X.| | X.$.$.$.;.>.>.3.8.8.0.u.a.a.a.f.z.b.b.N.Z.Z.D.D.P.P.P.~.~.).).'.|.|.|.@X@X*X*X=X,X,X2X6X6X6XwXhXhXhXhXyXK.4 r r ",
"hXhXK.r I +.| X.+.$.$.;.>.>.3.8.8.0.0.u.a.f.f.z.b.b.N.Z.Z.D.D.K.P.Y.Y.~.).).'.|.|.XX@X@X*X*X=X,X,X2X6X6X6XwXhXhXhXhXhX6XD.4 r r ",
"hXhXK.a Y +.X.+.$.$.;.>.>.3.8.8.0.0.u.a.a.f.z.b.b.N.Z.Z.D.D.K.P.P.Y.~.).).'.|.|.XX@X*X*X*X=X,X,X2X6X6X6XwXaXhXhXhXhXaX,XD.7 r a ",
"hXhXD.d Y $.+.$.$.;.>.>.3.8.8.0.0.u.a.a.f.z.b.b.N.Z.Z.D.D.K.P.P.Y.~.).).'.|.|.XX@X*X*X=X=X,X,X2X6X6X6XwXaXhXhXhXhXaXwX,XD.7 a a ",
"hXhXD.d Q ;.$.$.;.>.>.3.8.8.0.0.u.a.a.f.z.b.b.N.Z.D.D.D.K.P.P.Y.~.).).).|.|.|.@X*X*X*X,X,X,X2X6X6X6XwXaXhXhXhXhXaXwXwX,XZ.7 a d ",
"hXaXD.d / ;.$.;.>.>.3.8.8.0.0.u.a.a.f.z.z.b.b.Z.Z.D.D.K.P.P.Y.~.~.).'.|.|.|.@X@X*X=X=X,X,X2X6XwX6XwXaXhXhXhXhXaXwX6X6X*XN.7 a d ",
"hXyXD.j / >.;.>.>.3.8.8.0.0.u.a.a.f.z.b.b.b.Z.Z.D.D.K.P.P.Y.~.).).'.|.|.|.@X@X*X*X=X,X,X2X6XwXwXwXaXhXhXhXhXaXwX6X6X2X*XN.7 d j ",
"hXwXZ.j ] >.>.>.3.8.8.0.0.u.a.a.f.z.b.b.b.Z.Z.D.D.K.P.P.Y.~.).).).|.|.XX@X@X*X*X=X,X,X2X6X6X6XwXaXhXhXhXhXaXwX6X6X2X2X@Xb.7 j j ",
"yXwXZ.j ] 3.>.3.8.8.0.0.u.a.a.f.z.b.b.b.Z.Z.D.D.K.P.P.Y.~.).).'.|.|.|.@X@X*X*X=X,X,X2X6X6XwXyXhXhXhXhXhXhXyXwX6X2X,X,XXXb.7 b b ",
"6XwXN.j | 8.3.8.8.0.0.u.a.f.f.z.z.b.b.Z.Z.D.D.K.P.P.Y.~.).).'.|.|.|.@X@X*X*X=X,X2X2X6XwXwX2X0.>.>.>.>.>.;.P.2X2X,X,X=XXXb.w b N ",
"6X6XN.b | 8.8.8.0.0.u.a.a.f.z.b.b.N.Z.Z.D.D.K.P.P.Y.~.~.).'.|.|.XX@X*X*X*X=X,X,X2X6X6X6XwX=Xr % * % % % # Y f.=X,X*X*X|.z.w N N ",
"2X2XN.b | 0.8.0.0.u.a.a.f.z.b.b.b.Z.Z.D.D.K.P.P.Y.~.~.).).|.|.|.@X*X*X*X=X,X,X2X6X6X6XwXhX2XN r r r r r 4 j +.*X=X*X@X'.f.w N Z ",
",X=Xb.b X.u.0.0.u.a.a.f.z.z.b.N.N.Z.D.D.K.P.P.Y.~.~.).'.|.|.|.@X@X*X*X=X,X,X2X6X6X6XwXaXhX6XQ N H u.I j a b X.XX*X@XXX).f.w N Z ",
"=X=Xz.b $.a.0.u.a.a.f.z.z.b.N.Z.Z.D.D.K.P.P.Y.~.~.).).'.|.|.XX@X*X*X=X,X,X2X6X6X6X6XyXhXhX6X+.Q +.@XI a N Z | XX@XXX|.).u.w Z Z ",
"*X*Xz.b $.a.u.a.a.f.z.z.b.b.N.Z.D.D.K.P.P.Y.~.~.).).|.|.XXXX@X*X*X*X,X,X2X6XwXwXwXyXhXhXhXwX8.$.8.'.N r I H | |.XX|.|.Y.u.w Z S ",
"@XXXz.N $.a.a.a.f.z.z.b.b.N.Z.D.D.K.P.P.P.~.~.).).'.|.|.XX@X*X*X=X,X,X2X6XwX6XwXyXhXhXhXhXyXb.u.z.'.N d | I | '.|.|.).Y.u.w S H ",
"XXXXf.N $.f.a.f.z.z.b.b.N.Z.D.D.K.P.P.P.~.~.).).'.|.|.XX@X*X*X=X,X,X2X6X6X6XwXaXhXhXhXhXhXwXP.D.K.'.Z N ;.Q ] '.|.'.).P.0.w S H ",
"|.|.a.N ;.z.f.z.z.b.b.N.Z.D.D.D.P.P.P.~.).).).'.|.|.XX@X*X*X=X,X,X2X6X6X6X6XaXhXhXhXhXhXyXwXXX).'.|.S H 0.] ] ).'.).~.K.8.r H H ",
"'.'.u.N >.z.z.z.b.b.N.Z.D.D.K.P.P.Y.~.~.).).'.|.|.XX@X*X*X=X,X2X2X6X6X6X6XyXhXhXhXhXhXyX6XyX2X=X,XXXI Q b.X.] ~.).~.~.K.8.r I I ",
").~.u.N >.N.z.b.b.N.Z.D.D.K.P.P.Y.~.~.).).'.|.|.XX@X*X*X=X,X,X2X6X6X6X6XyXhXhXhXhXhXyX6X6XyXhXaXyXXXY | P.+./ Y.).Y.P.D.3.r I I ",
"~.Y.0.N 3.Z.b.b.N.Z.D.D.D.P.P.Y.~.~.).).'.|.|.XX@X*X*X=X,X2X2X6X6X6X6XyXhXhXhXhXhXyX6X6X6XyXhXhXhXXXQ $.|.;.Q Y.Y.P.P.Z.3.r Y Y ",
"Y.Y.8.Z 3.Z.b.N.Z.D.D.D.P.P.P.~.~.).).'.|.|.XX@X*X*X=X,X,X2X6X6X6X6XyXhXhXhXhXhXyX6X6X6X,XwXhXhXaXXXY X.~.$.Q P.Y.P.K.N.3.r Y Q ",
"P.P.8.Z 8.Z.N.Z.Z.D.K.P.P.Y.~.~.).).'.|.|.XX@X*X*X=X,X2X2X6X6X6X6XyXhXhXhXhXhXyX6X6X6X2X,X6XwX6X6XXXI / Z.X.Q K.P.K.D.N.>.r Y Q ",
"K.K.8.Z 8.D.Z.D.D.D.P.P.P.~.~.).).'.|.|.XX@X*X*X=X,X,X2X6XwX6X6XyXhXhXhXhXhXyX6X6X6X,X,X=X2XXX'.|.|.S I u.Q Y D.K.D.Z.z.;.a Q / ",
"D.D.>.Z 0.P.D.D.D.P.P.Y.~.~.).).'.|.|.XX@X@X*X=X,X2X2X6X6X6X6XyXhXhXhXhXhXyX6X6X6X,X,X=X*X,XK.N.D.'.Z N $.I I Z.D.D.Z.f.$.d / / ",
"Z.D.>.S u.P.D.D.P.P.Y.~.~.).).'.|.|.XX@X@X*X=X,X,X2X6X6X6X6XyXhXhXhXhXhXyX6X6X6X,X,X=X*X*X*Xa.8.a.'.N a Q Z I N.D.Z.N.f.$.d / / ",
"N.N.>.S u.P.K.K.P.P.~.~.).).'.|.|.XX@X*X*X=X,X,X2X6X6X6X6XyXhXhXhXhXhXyX6X6X6X2X,X=X*X*X@XXX$.] $.).j 4 Z b I N.Z.b.b.f.+.a / ] ",
"b.b.;.S a.P.P.P.P.Y.~.).).'.|.|.XX@X*X*X=X,X,X2X6X6X6X6XyXhXhXhXhXhXyX6X6X6X2X,X=X*X*X@XXX|.Y N S X.> * r a I b.N.b.z.u.+.d ] ] ",
"z.z.$.S a.~.P.Y.~.~.).).'.|.|.XX@X*X*X*X,X,X,X6X6X6XwXwXaXhXhXhXhXyX6XwX6X2X,X=X*X*X@XXX|.).j 4 4 # o # * w H z.b.z.f.u.X.d | | ",
"z.f.+.S f.~.P.~.~.).).'.|.|.XX@X@X*X*X=X,X,X2X6X6X6XyXhXhXhXhXhXyX6XwX6X2X,X=X*X*X@XXX|.'.Y.> o o o o o   > H f.z.f.a.0.| d | X.",
"f.f.+.H z.).Y.~.).).'.|.|.XX@X@X*X*X=X,X2X2X6XwX6XyXhXhXhXhXhXyX6X6X6X2X,X,X=X*X@XXX|.'.).~.S * # # # # + : Z f.f.a.a.8.| j | X.",
"u.a.+.I z.).~.).).'.|.|.XX@X@X*X*X=X,X,X2X6XwX6XwXhXhXhXhXhXaXwX6X6X2X,X=X*X*X@XXX|.'.).).Y.3.Z j j j j d d ] f.a.a.u.3.| j | X.",
"u.0.| H b.|.).).).|.|.XX@X@X*X*X=X,X2X2X6XwX6XwXaXhXhXhXhXaXwX6X6X2X,X=X*X*X@XXX|.'.).).~.P.K.Z.N.b.b.f.f.a.a.a.a.u.0.3.] j X.+.",
"0.0.| I N.|.).).|.|.|.@X@X*X*X=X,X,X2X6XwX6XwXaXhXhXhXhXaXwX6X6X2X,X=X*X*X@XXX|.'.).).~.Y.P.K.D.D.Z.N.b.z.f.a.a.u.0.8.>.] j +.$.",
"3.3.| I N.XX).|.|.XX@X*X*X=X=X,X2X2X6X6X6XwXaXhXhXhXhXaXwXwX6X2X,X,X*X*X@XXX|.'.).).~.Y.P.K.D.D.Z.N.b.z.f.a.a.u.0.8.3.;.] j $.$.",
"3.>./ I N.XX|.|.XX@X*X*X=X=X,X,X2X6X6X6XwXaXhXhXhXhXaXwX6X6X2X,X,X*X*X@XXX|.'.).).~.P.P.K.D.D.Z.N.b.z.f.a.a.u.0.8.3.>.$./ j $.$.",
">.>./ I Z.@X|.|.@X@X*X*X=X,X2X2X6X6X6XwXaXhXhXhXhXaXwX6X6X2X,X,X*X*X@XXX|.'.).).~.Y.P.K.D.D.Z.N.b.z.z.a.a.u.0.8.3.>.>.+.Q j $.;.",
"$.$./ I D.*X|.@X@X*X*X=X,X2X2X6X6X6XwXaXhXhXhXhXaXwX6X6X2X,X,X=X*X@XXX|.|.).).~.Y.P.K.D.D.Z.N.b.z.z.f.a.u.0.8.3.>.>.;.+.Y j ;.>.",
"$.+.Q Y D.*X@X@X*X*X=X,X,X2X6XwX6XwXaXhXhXhXhXaXwX6X6X2X,X,X=X*X@XXX|.|.).).~.Y.P.K.D.D.Z.N.b.z.z.a.a.u.0.0.3.>.>.;.$.X.Y b >.>.",
"+.+.Q Y D.=X*X*X*X=X,X,X2X6XwXwXwXaXhXhXhXhXaXwX6X6X2X,X,X=X*X@XXX|.|.).).~.Y.P.K.D.D.Z.N.b.z.z.f.a.u.0.0.8.3.>.;.$.+.| I b >.3.",
"| X.Y Y K.,X*X*X=X,X,X2X6X6XwXwXaXhXhXhXhXaXwX6X6X2X,X,X=X*X@XXX|.|.).).~.Y.P.P.D.D.Z.N.b.z.z.a.a.u.0.8.8.>.>.;.$.+.X.] I N >.3.",
"| ] I Y P.,X*X=X,X,X2X6X6X6XwXaXhXhXhXhXhXwX6X6X2X,X,X=X*X@XXX|.|.'.).~.Y.P.P.D.D.Z.N.b.z.z.a.a.u.0.8.8.>.>.;.$.$.+.X.] H b 3.3.",
"] / H Y Y.2X=X,X,X2X6X6X6XwXaXhXhXhXhXaXwX6X6X2X,X,X=X*X@XXX|.|.).).~.Y.P.P.D.D.Z.N.b.z.z.a.a.u.0.0.8.3.>.;.$.+.+.| | / H b 3.3.",
"/ / S Y ~.6X,X,X2X6X6X6XwXaXhXhXhXhXhXwX6X6X2X,X,X*X*X@XXX|.|.'.).~.Y.P.P.D.D.Z.N.b.b.z.a.a.u.0.8.8.3.>.;.$.$.+.X.| / Q S b 8.8.",
"Q Q S Q ~.wX,X2X6X6X6XwXyXhXhXhXhXaXwX6X6X2X,X,X=X*X@XXX|.|.'.).).Y.Y.P.D.D.Z.N.b.b.z.f.a.u.0.0.8.3.>.;.$.$.+.X.| ] / Y S N 8.0.",
"Y Y Z Q Y.,X@X*X*X*X*X,XwXwXwXwX6X=X*X*X@XXXXX|.|.'.).~.Y.P.P.K.D.Z.Z.N.b.z.f.a.a.u.0.0.8.3.>.;.;.$.X.| | | ] / Q Y Y H N N u.u.",
"I I N ] b.N.b.b.b.b.N.D.D.D.D.D.Z.N.N.b.b.z.f.f.f.a.u.0.0.0.8.3.3.>.;.;.;.$.+.+.X.| | ] ] ] / Q Q Y Y I I H S S Z N N b b Z a.a.",
"H H b a 7 4 4 4 > 4 4 4 4 7 7 7 7 7 7 7 7 w w w w w w w w r r r r r r r r r a d a d d d d d d d j j j j d a a a a a a r a Z N.f.",
"S S Z N d d d d d j j b b N N Z Z S H I I I Y Q / / ] ] | | | X.+.+.$.;.;.>.>.3.8.8.0.0.0.0.0.u.a.a.a.a.a.u.u.u.u.u.u.u.a.N.'.z.",
"Z j r a a a a d d j j b b N N N Z S H I I I Y Q Q / / ] | | | X.+.+.$.;.;.>.3.3.8.8.8.0.0.u.u.u.a.f.z.z.z.z.f.a.a.a.a.u.a.a.u.8."
};
