/* XPM */
static char *door_in[] = {
/* columns rows colors chars-per-pixel */
"64 64 64 1 ",
"  c black",
". c #070707",
"X c #0B0B0B",
"o c #0C0C0C",
"O c #121212",
"+ c #171717",
"@ c #1A1A1A",
"# c #1F1F1F",
"$ c #212121",
"% c #262626",
"& c #282828",
"* c #2F2F2F",
"= c #313131",
"- c #353535",
"; c #3B3B3B",
": c #3F3F3F",
"> c #414141",
", c #464646",
"< c #4B4B4B",
"1 c #4F4F4F",
"2 c #505050",
"3 c #545454",
"4 c #5A5A5A",
"5 c #5E5E5E",
"6 c #606060",
"7 c #646464",
"8 c #6A6A6A",
"9 c #6D6D6D",
"0 c #707070",
"q c #777777",
"w c #797979",
"e c #7D7D7D",
"r c #828282",
"t c #848484",
"y c #8B8B8B",
"u c #8C8C8C",
"i c #909090",
"p c #949494",
"a c #9A9A9A",
"s c #9C9C9C",
"d c #A2A2A2",
"f c #A7A7A7",
"g c #ABABAB",
"h c #AFAFAF",
"j c #B3B3B3",
"k c #B4B4B4",
"l c #BABABA",
"z c #BCBCBC",
"x c #C2C2C2",
"c c #C4C4C4",
"v c #CBCBCB",
"b c #CCCCCC",
"n c #D2D2D2",
"m c #D6D6D6",
"M c #DADADA",
"N c #DFDFDF",
"B c #E3E3E3",
"V c #E4E4E4",
"C c #EBEBEB",
"Z c #EEEEEE",
"A c #F2F2F2",
"S c #F4F4F4",
"D c #F8F8F8",
"F c #FDFDFD",
/* pixels */
"<1245680qeryipadfhklxcbnmNBZM<=--=<CFFFFFFFFFFFFFFFFFFFFFFFFFFFF",
":<23467890wrtyipssdghkzxcvnmg@....$MFFFFFFFFFFFFFFFFFFFFFFFFFFFN",
";>>><1234567890weetyuipasdfdqX    +xNMMNBVVZZAASSDFFFFFFFFFFFFCp",
">,>>,,<1234567890qwerrtyuipi9X    +lncxcvbnmMNBVCZAASFFFFFFFSAmy",
",<,>,<<122345677890qwerryipp9X    +zMvccxxcvbnmmMNNBZZZZZZZAAZmy",
",1<,<<>:::>,<11233455679rasa0o    +xMbvxhdassdddfffghhhhgjmAAZmy",
"131<1<>OXooOO++@@##$$%%<efdsqo    +xNnvch01<1111111111112rxDAZmy",
"231112>oo++#$%%*=-;:>,,17ffdqo    @cBmnvh6rffghjjkkkkkkklfpSAZmu",
"342133>o+#$&*=;:><1345426ggdwo    @vVMnbh7hNMBVZASDDFFFFAfuSAAmy",
"453343,O+$%&*-;:,<1245326hhfwo    @bCMmnh7hmnmNBVCZADFFFBduSAAmy",
"564344<+#&&*-;:,<12356527jhgeo    @nZNMnj8hMmMBVCZADFFFFNsuSSZnt",
"675455<+$**-;:,<124567637jjheo    @mABNmj8kBMBVCZAFFFFFDmauSACbt",
"7965651@%=-;:><1245678748lkhro    @mSVNMj9lVBVCZADFFFFDAmauSZVbt",
"8976762#&;;:><12456890858lljto    @MDCVMk9zCVCZADFFFFDAZmauACVbt",
"9087873#*::><12456790q959zzkto    @NFZVNk0xZCZADFFFFDAAZmauACVbt",
"0w98983$=>><12346780qw069xxlyo    @BFACBl0cSZADFFFFFAZAZmayACVbt",
"qe08994$-,<12456790qweq70cxzyo    @BFAZBl0cDADFFFFFSZZAZnpyACVvr",
"wrq9005%;<12446780qwrrw70vczuo    @BFSZVzqcFDFFFFFSZZZACbpyACBcr",
"etq0q06&:12446780qwrrte8qbvxuo    #BFDAZx0cFFFFFFSZZZZZVbpyAVNcr",
"ttwqwq6&>3456789qwrtyur9qnbciO    #BFDDAx0cFFFFFAZZZZZCVbpyZBNcr",
"tueqww7*,446799qwrryuit9wnnvpO    #BFFFAx0cFFFFAZZZZZCVVbpyCBNcr",
"yireee7*<56790qweryuppy0wmmvaO    #BFFFAx0cFFFSZZZZZCVVVvitCBNxr",
"uptere8=17799qwrtyuiaaiqwMmbaO    #VFFFAxqcFDSZZZZZCVVVNcitCBNxr",
"iayrtt9-3899qwrtyuipsdpqeNMnaO    #VFFFAx0cFSZAAZZCVVVBNcitCNMxr",
"psutyt0-400qwrtyuipsdfawrBNmsO    @BFFFAz0cDAZAAZCVCVBBNxutVNMxe",
"sduyuy0;5qqwrryuipsdggserVBmdO    #BFFFAx0cDAZAZCVVVBBNMxutVNMxw",
"sfpuuuq;6wweryuipsdfghdetVVMdO    @BFFFZzqcDAZZCVVVBNNNMxutVNMl9",
"dgaiiuq:7reryuipsdfgjjfrtCCNfO    #BFFFVlqcDAZCVVVBNNNMMzytVNnf6",
"ghaipie>8tryuipsdfgjkkgttZCBfO    #BFFSBlqcDZCVVVBNNNMMmhetBnkp6",
"hjdpape>9yyuipsdfgjklzhyyAAVfO    #BFDZBlqcDCVVVBNNNMMmxpwrNxfi5",
"hkfasar,0iuipsdfgjklzxjyySAVgO    #VFDZBl0cSVVVBNNNMMmcguqrbhfu5",
"klfsdst,qpipsdfgjklzcckuuSACjO    #BFDZBl0cAVVBNNNMMmcgsu0qjgdu5",
"kzgdfst<wapsdfgjklzcvvliuSDAjO    #BFDZBl0cAVBNNNMMmcgdsy88hfsu4",
"lxhfgdy1essdfgjklzcvbnxpuSFSjO    #BFDZBl0cABNNNMMmcgddat77gdsy4",
"zcjfgfu1rfdfgjklzcvbmmcpuSFAjO    #BFDABlqcANNNMMmcgdsspr66fdat3",
"cvkghgu2tgfgjklzcvbnMMvapDFSjO    #BFDABkqxCNNMMmcgdsspir56fspt3",
"vnlhjgi2yhgjklzcvbnMNNbspDFSjO    #BFDZNkqxCNMMMcgdsspiue56dapr2",
"bnljkhp3ujjklzcvbnMNBVnspDFSjO    #BFSCMk0xCMMMchfsspiiyw55sair2",
"nmxkkjp3ilklzcvbnMNBVCmspDFSjO    @BFAVMk0zVMMcgfdsppiutq45spie2",
"mNcklka4azlzxvbnMNBVZZMfpDFAhO    #BFAVMk0zVMcgfdsapiuyr034aiue1",
"MBclzls5sxzcvbnMNBCZZABfpDFZfO    #VFAVMk0zVcgfssppiuyre934puyw1",
"NVvzxzs5dvcvbnMNBVZZSDBfpDDVfO    #VFAVMj0lnhfdsppiyyrrw834iuyq1",
"BCbxczd6fbvbnMNBVZZSFFBfpSAVfO    #BFAVmj0gkfdsppiyyrreq723iyrq<",
"VZncvxf7gnbnMNBVZZSFFFBfiSAVfO    #BFABnj8ihdsppiyyrrew0612utr0<",
"CAmvvcf7hmnMNBVCASFFFFBfuSAVfO    #BFZNmh5ugsppiuyrrewq9612ytr0,",
"CSMvbvg8jNmNBVCZSFFFFFNsuSAVfO    #BFCNmh4yfppiuyrreqq985<2yre9,",
"ASNbnvh8kBNBVCZSFFFFFSmauSAVfO    #BFCNnh3tspiuyrrewq9974<1trw8,",
"SDBnmbh9lVBVZZAFFFFFDZmauSAVfO    @BFVNng3rsiuyrrewq09863,1teq8>",
"SDVmMnj9zCVCZADFFFFDAZmauSAVdO    @BFVMng3eauyrreqq998752>1rwq7>",
"SDVMNmj0xACZADFFFFDAZZmauSABdO    @BFVMng2eiyrreqq9987641><ew06:",
"DFCNNMk0cSZADFFFFDAZZZmauSZMdO    @BDVMnf2wurrewq99876531:<eq96:",
"DFZNBMk0cDAFFFFFFAZAZZnauACNdO    @NDVMbs1qyrewq09866543<:<w096:",
"FFABVNlqcFDFFFFDAZZZZCbpuACNdO    @NDVmci<0tewq098765432,;,q085;",
"FFAVCBlqcFFFFFDAZZZAZVbpyACNdO    @NDBnht<9rwq0987654321>;,0984;",
"FFSCZBlqcFFFFDAZZZAZCVbpyACNsO    @NSMksr,9eq0987654321<:->0974;",
"FFSZZVl0cFDDSZCCCCCVBBvpyACMaO    @MZzfse,8w9987644321<,;->9763-",
"FFDAZCxwcVMmbvvvvvcccxliyACmaO    @mMhfae>57543211<,>:;;==>8762-",
"FFDASAcsdpuyttttttttrrrqyZVmaO    @cxhdpe42,>>::;;--==**&*:7752=",
"FFDSFSVxrwwqqqqqqqq0000wlABmaO    +hzgspyq2<,,,>>>:;;;----28541=",
"FFFFFFFFSSSSSSSSSSAAAAAASZBmaO    +gkfspsdsppiuyytreeqq09897441=",
"FFFFFFFFFDSSSSSSSAZZZZCVBBNnaO    +dkfapppiuuttrrwwq0098776543<*",
"FFFFFFFFDAZZZZZZZCVVVVBNNNNnao    Odjdppiuyytrrewqq99887654443,*",
"FFCMMMMmbbbbbbbbvccccxzzzzlku+....+isteewqq0099876555433211<<,:&",
"Fvtwwwwq000000009999988888886;=--==85<,,>>>:::;;;---==***&&&%%%$"
};
