/* XPM */
static char *door[] = {
/* columns rows colors chars-per-pixel */
"64 64 228 2 ",
"   c #0F0F0F",
".  c #101010",
"X  c #111111",
"o  c #121212",
"O  c #131313",
"+  c #1A1A1A",
"@  c #1C1C1C",
"#  c #1E1E1E",
"$  c #202020",
"%  c #222222",
"&  c #232323",
"*  c #242424",
"=  c #252525",
"-  c #272727",
";  c #2A2A2A",
":  c #2B2B2B",
">  c #2C2C2C",
",  c #2D2D2D",
"<  c #2E2E2E",
"1  c #2F2F2F",
"2  c #303030",
"3  c #313131",
"4  c #323232",
"5  c #333333",
"6  c #343434",
"7  c #353535",
"8  c #363636",
"9  c #373737",
"0  c #383838",
"q  c #393939",
"w  c #3A3A3A",
"e  c #3B3B3B",
"r  c #3C3C3C",
"t  c #3D3D3D",
"y  c #3E3E3E",
"u  c #3F3F3F",
"i  c #404040",
"p  c #414141",
"a  c #424242",
"s  c #434343",
"d  c #444444",
"f  c #454545",
"g  c #464646",
"h  c #474747",
"j  c #484848",
"k  c #494949",
"l  c #4A4A4A",
"z  c #4B4B4B",
"x  c #4C4C4C",
"c  c #4D4D4D",
"v  c #4E4E4E",
"b  c #4F4F4F",
"n  c #505050",
"m  c #515151",
"M  c #525252",
"N  c #535353",
"B  c #545454",
"V  c #555555",
"C  c #565656",
"Z  c #575757",
"A  c #585858",
"S  c #595959",
"D  c #5A5A5A",
"F  c #5B5B5B",
"G  c #5C5C5C",
"H  c #5D5D5D",
"J  c #5E5E5E",
"K  c #5F5F5F",
"L  c #606060",
"P  c #616161",
"I  c #626262",
"U  c #636363",
"Y  c #646464",
"T  c #656565",
"R  c #666666",
"E  c #676767",
"W  c #686868",
"Q  c #696969",
"!  c #6A6A6A",
"~  c #6B6B6B",
"^  c #6C6C6C",
"/  c #6D6D6D",
"(  c #6E6E6E",
")  c #6F6F6F",
"_  c #707070",
"`  c #717171",
"'  c #727272",
"]  c #737373",
"[  c #747474",
"{  c #757575",
"}  c #767676",
"|  c #777777",
" . c #787878",
".. c #797979",
"X. c #7A7A7A",
"o. c #7B7B7B",
"O. c #7C7C7C",
"+. c #7D7D7D",
"@. c #7E7E7E",
"#. c #7F7F7F",
"$. c #808080",
"%. c #818181",
"&. c #828282",
"*. c #838383",
"=. c #848484",
"-. c #858585",
";. c #868686",
":. c #878787",
">. c #888888",
",. c #898989",
"<. c #8A8A8A",
"1. c #8B8B8B",
"2. c #8C8C8C",
"3. c #8D8D8D",
"4. c #8E8E8E",
"5. c #8F8F8F",
"6. c #909090",
"7. c #919191",
"8. c #929292",
"9. c #939393",
"0. c #949494",
"q. c #959595",
"w. c #969696",
"e. c #979797",
"r. c #989898",
"t. c #999999",
"y. c #9A9A9A",
"u. c #9B9B9B",
"i. c #9C9C9C",
"p. c #9D9D9D",
"a. c #9E9E9E",
"s. c #9F9F9F",
"d. c #A0A0A0",
"f. c #A1A1A1",
"g. c #A2A2A2",
"h. c #A3A3A3",
"j. c #A4A4A4",
"k. c #A5A5A5",
"l. c #A6A6A6",
"z. c #A7A7A7",
"x. c #A8A8A8",
"c. c #A9A9A9",
"v. c #AAAAAA",
"b. c #ABABAB",
"n. c #ACACAC",
"m. c #ADADAD",
"M. c #AEAEAE",
"N. c #AFAFAF",
"B. c #B0B0B0",
"V. c #B1B1B1",
"C. c #B2B2B2",
"Z. c #B3B3B3",
"A. c #B4B4B4",
"S. c #B5B5B5",
"D. c #B6B6B6",
"F. c #B7B7B7",
"G. c #B8B8B8",
"H. c #B9B9B9",
"J. c #BABABA",
"K. c #BBBBBB",
"L. c #BCBCBC",
"P. c #BDBDBD",
"I. c #BEBEBE",
"U. c #BFBFBF",
"Y. c #C0C0C0",
"T. c #C1C1C1",
"R. c #C2C2C2",
"E. c #C3C3C3",
"W. c #C4C4C4",
"Q. c #C5C5C5",
"!. c #C6C6C6",
"~. c #C7C7C7",
"^. c #C8C8C8",
"/. c #C9C9C9",
"(. c #CACACA",
"). c #CBCBCB",
"_. c #CCCCCC",
"`. c #CDCDCD",
"'. c #CECECE",
"]. c #CFCFCF",
"[. c #D0D0D0",
"{. c #D1D1D1",
"}. c #D2D2D2",
"|. c #D3D3D3",
" X c #D4D4D4",
".X c #D5D5D5",
"XX c #D6D6D6",
"oX c #D7D7D7",
"OX c #D8D8D8",
"+X c #D9D9D9",
"@X c #DADADA",
"#X c #DBDBDB",
"$X c #DCDCDC",
"%X c #DDDDDD",
"&X c #DEDEDE",
"*X c #DFDFDF",
"=X c #E0E0E0",
"-X c #E1E1E1",
";X c #E2E2E2",
":X c #E3E3E3",
">X c #E4E4E4",
",X c #E5E5E5",
"<X c #E6E6E6",
"1X c #E7E7E7",
"2X c #E8E8E8",
"3X c #E9E9E9",
"4X c #EAEAEA",
"5X c #EBEBEB",
"6X c #ECECEC",
"7X c #EDEDED",
"8X c #EEEEEE",
"9X c #EFEFEF",
"0X c #F0F0F0",
"qX c #F1F1F1",
"wX c #F2F2F2",
"eX c #F3F3F3",
"rX c #F4F4F4",
"tX c #F5F5F5",
"yX c #F6F6F6",
"uX c #F7F7F7",
"iX c #F8F8F8",
"pX c #F9F9F9",
"aX c #FAFAFA",
"sX c #FBFBFB",
"dX c #FCFCFC",
"fX c #FDFDFD",
"gX c #FEFEFE",
"hX c #FFFFFF",
/* pixels */
"w r d j j b N Z S S H I Y Y / / ] | +.+.$.;.>.>.3.0.0.u.a.f.f.z.b.N.N.Z.K.P.P.Y.).).'.|.XXXX@X=X,X,X2X2XwXwXyXhXhXhXhXhXhXhXhXhX",
"4 r r a d j j b N Z Z S H Y Y Y Q / ] ] | X.+.$.;.>.>.3.8.0.0.u.a.a.f.z.b.b.N.D.K.K.P.P.Y.~.).'.|.|.XX*X*X*X=X,X2X6XwXwXyXaXhXaX",
": 7 4 7 w w r r r a d d d j b b b N N Z Z S S H I H I Y Y Y Q / / / ] ] | | X.X.X.+.+.+.$.;.>.>.>.>.8.8.8.0.u.u.u.a.a.f.b.).wXaX",
": 4 4 b d d d d d d d d d d d d d d d d d d d a a r r r r r r r w w w w w w w w 7 7 7 7 7 7 7 4 > > > > > > > > : : : : a Z.wXhX",
"> > 4 z.D.D.D.D.D.D.D.D.D.D.N.b.b.b.z.f.f.f.u.u.0.0.8.3.3.3.3.;.;.$.$.$.+.X.X.| | ] / / Q Q Y Y I H H S S Z N N b b b r 7 Z.yXhX",
"> > > P.wXaXaXaXwX6X6X2X,X,X,X*X*X@XXXXX|.|.'.~.~.~.Y.K.K.K.D.Z.b.b.z.f.f.a.a.u.0.8.3.>.>.>.;.$.+.+.| | | | / Q Q I Y N w Z.aXhX",
"4 > : Z.,X6X2X2X,X=X*X*X@XXX|.|.'.).).~.~.Y.P.P.K.D.D.Z.N.N.b.b.z.a.a.a.0.0.0.8.3.>.>.;.$.$.$.+.| | | / / / Q Y I I I b w Z.yXhX",
"4 > : Z.,X6X6X2X,X,X=X*X*X@XXX|.|.'.).).~.~.P.P.P.D.D.D.Z.N.b.b.z.z.f.a.a.u.0.0.8.3.>.>.;.$.$.$.+.| | | ] / / Q Y I Y N w Z.aXhX",
"4 4 > D.,XwX6X6X2X,X,X=X*X*X@XXX|.|.'.).).~.~.P.P.P.K.D.D.Z.N.b.b.z.z.a.a.a.u.0.0.8.3.>.>.;.$.$.+.+.X.| | / / / Q Y Q Z w D.hXhX",
"4 4 > P.2X6X6X6X6X2X,X,X=X*X*X@XXX|.|.'.).).~.~.Y.P.P.K.D.Z.Z.N.b.b.z.z.a.a.a.0.0.0.8.3.>.>.;.$.$.+.+.X.| | / / Q Q Q Z r D.hXhX",
"7 4 > P.yXyX6X6X6X6X2X,X,X=X*X*X@XXX|.|.'.).).~.~.Y.P.P.D.D.D.Z.N.b.b.z.z.a.a.a.u.0.0.8.3.>.>.;.$.$.+.+.X.| | ] / / / S r D.hXhX",
"w 7 > P.yXhXyX6X6XwX6X2X2X,X=X*X*X@XXX|.|.'.).).~.~.Y.P.P.D.D.Z.Z.N.b.b.z.f.a.a.u.0.0.0.8.3.>.>.;.$.$.+.+.X.| | ] / ] S r D.hXhX",
"w w 4 P.yXhXhXwX6X6XwX6X2X,X,X=X*X@X@XXX|.|.'.).).~.~.Y.P.K.D.D.D.Z.N.b.b.z.z.a.a.a.u.0.0.8.3.>.>.;.$.$.$.+.X.| | ] ] S r K.hXhX",
"w w 4 P.yXhXhXaXyX6XwX6X6X2X,X=X*X*X@X@XXX|.|.'.).).~.Y.P.P.P.K.D.Z.Z.N.b.b.z.f.a.a.u.u.0.0.8.3.>.>.;.$.$.+.+.X.| | | H r K.hXhX",
"r r 4 K.yXhXhXhXhXwX6X6X6X2X,X,X=X*X*X@X@X|.|.|.'.).).~.~.P.P.P.D.D.Z.Z.N.b.b.z.f.a.a.a.u.0.8.8.3.>.>.;.$.$.$.X.| | X.I r K.hXhX",
"r r 4 D.6XhXhXhXhXhXwX6X6X6X2X,X,X=X*X*X@X@XXX|.|.'.).).~.Y.Y.P.K.D.D.Z.Z.N.b.b.z.f.f.a.u.0.0.8.8.3.>.>.;.$.$.+.X.| +.I r K.hXhX",
"a r 7 D.,XaXhXhXhXhXaXwX6X6X6X2X,X,X=X*X*X*X@XXX|.|.'.).).~.Y.P.P.K.D.D.Z.Z.N.b.b.z.f.a.a.u.0.0.8.8.3.>.>.;.$.$.+.X.+.Y a K.hXhX",
"a a 7 D.,XwXaXhXhXhXhXaXwX6X6X6X2X,X,X=X=X*X*X@XXX|.|.'.).).~.Y.P.P.K.D.D.Z.Z.N.b.b.z.f.a.a.u.0.0.8.8.3.>.>.;.$.$.+.$.Y d D.hXhX",
"d a 7 Z.,XwXwXaXhXhXhXhXaXwX6X6X6X2X,X,X,X*X*X*X@X|.|.|.).).).~.Y.P.P.K.D.D.D.Z.N.b.b.z.f.a.a.u.0.0.8.8.3.>.>.;.$.$.;.Q d D.hXhX",
"d a 7 N.*X6X6XwXaXhXhXhXhXaXwX6XwX6X2X,X,X=X=X*X@X@X|.|.|.'.).~.~.Y.P.P.K.D.D.Z.Z.b.b.z.z.f.a.a.u.0.0.8.8.3.>.>.;.$.;./ d D.aXhX",
"j d 7 N.*X2X6X6XwXaXhXhXhXhXaXwXwXwX6X2X,X,X=X*X*X@X@X|.|.|.'.).).~.Y.P.P.K.D.D.Z.Z.b.b.b.z.f.a.a.u.0.0.8.8.3.>.>.;.>./ j D.yXhX",
"j j 7 b.@X2X2X6X6XwXaXhXhXhXhXaXwX6X6X6X2X,X,X=X*X*X@X@XXX|.|.).).).~.Y.P.P.K.D.D.Z.Z.b.b.b.z.f.a.a.u.0.0.8.8.3.>.>.>.] j Z.wXhX",
"b b 7 b.XX,X,X2X6XwXyXhXhXhXhXhXhXyXwX6X6X2X,X,X=X*X*X@X@X|.|.|.'.).).~.Y.P.P.K.D.D.Z.Z.b.b.b.z.f.a.a.u.0.0.8.8.3.>.3.] j Z.wXyX",
"N b w b.XX=X,X,X2X2XP.;.>.>.>.>.>.0.2XwXwX6X2X2X,X=X*X*X@X@X|.|.|.'.).).~.Y.P.P.K.D.D.Z.Z.b.b.z.z.f.f.a.u.0.0.8.8.3.8.| j N.wX6X",
"N N w z.|.*X*X,X=Xf.Y # % % % * % r =XwX6X6X6X2X,X,X=X*X*X*X@XXX|.|.'.).~.~.Y.P.P.K.D.D.Z.Z.N.b.b.z.f.a.a.u.0.0.8.8.8.| b N.6X6X",
"Z N w f.'.@X*X=X*X+.j 4 r r r r r N 2XhXwX6X6X6X2X,X,X=X*X*X*X@X|.|.|.).).~.~.Y.P.P.K.D.D.Z.Z.b.b.b.z.f.a.a.u.0.0.8.0.| b N.2X2X",
"Z N w f.).XX@X*XXXX.b a j I u.H N Q 6XhXaXwX6X6X6X2X,X,X=X*X*X@X@X|.|.|.'.).~.~.Y.P.P.K.D.D.Z.N.N.b.z.z.f.a.a.u.0.0.u.X.b b.=X,X",
"Z Z w u.).|.XX@XXX| Z N a I @X+.Q +.6XhXhXyX6X6X6X6X2X,X,X=X*X*X@XXX|.|.'.).).~.~.Y.P.P.K.D.D.Z.Z.N.b.z.z.f.a.a.u.0.a.$.b z.=X=X",
"S Z w u.Y.|.|.XX|.| H I r N '.8.$.8.wXhXhXhXyXwXwXwX6X2X,X,X*X*X*X@XXXXX|.|.).).~.~.Y.P.P.K.D.D.Z.N.b.b.z.z.f.a.a.u.a.$.b z.*X*X",
"H S w u.Y.).|.|.'.| I | d N '.z.u.b.yXhXhXhXhXyXwX6XwX6X2X,X,X=X*X*X@XXX|.|.'.).).~.~.P.P.P.K.D.D.Z.N.b.b.z.z.f.a.a.a.$.N z.XX@X",
"H S w 0.P.).'.|.'.] Q ;.N Z '.K.D.P.wXhXhXhXhXhXaXwX6X6X6X2X,X,X=X*X*X@XXX|.|.'.).).~.~.P.P.P.K.D.D.Z.N.b.b.z.z.f.a.f.$.N f.XXXX",
"H H r 8.K.~.).'.).] ] 0.H S |.'.).XXwXyXhXhXhXhXhXaX6X6X6X6X2X,X,X=X*X*X@XXX|.|.'.).).).~.P.P.P.D.D.D.Z.N.b.b.z.z.f.z.;.N a.|.|.",
"I I r 8.K.~.~.).~.] X.b.Q I XX,X=X2XyX6XyXhXhXhXhXhXyX6X6X6X6X2X2X,X=X*X*X@XXX|.|.'.).).~.~.Y.P.P.K.D.D.Z.N.b.b.z.z.z.>.N u.'.'.",
"I I r 3.D.P.Y.).Y./ +.P.| Y XXyXaXhXyX6X6XyXhXhXhXhXhXyX6X6X6X6X2X,X,X=X*X*X@XXX|.|.'.).).~.~.Y.P.P.K.D.D.Z.N.b.b.z.N.>.N u.~.).",
"Y Y r 3.Z.P.P.Y.Y.Q ;.|.$.Q XXhXhXhXyX6X6X6XyXhXhXhXhXhXyX6X6X6X6X2X2X,X=X*X*X@XXX|.|.'.).).~.~.Y.P.P.D.D.D.Z.N.b.b.Z.3.N 0.Y.~.",
"Q Y r 3.N.K.P.Y.P.Q $.~.X.Y XXaXhXhXwX,X6X6X6XyXhXhXhXhXhXyX6X6X6X6X2X,X,X=X*X*X@XXX|.|.'.).).~.~.P.P.P.D.D.D.Z.N.b.Z.3.Z 8.Y.Y.",
"Q Y r >.N.D.K.P.K.Q X.Z./ I XX6X6XwX6X,X2X6X6X6XyXhXhXhXhXhXyX6X6X6X6X2X2X,X=X*X*X@XXX|.|.'.).).~.~.Y.P.P.K.D.Z.Z.N.Z.8.Z 8.P.P.",
"/ Q a ;.z.Z.D.K.D.Y Q u.I S |.|.'.XX2X=X,X,X6X6X6XyXhXhXhXhXhXyX6X6XwX6X2X,X,X=X*X*X@XXX|.|.'.).).~.~.P.P.P.D.D.D.Z.D.8.Z 8.K.K.",
"/ / d $.f.Z.D.D.Z.I I $.N Z '.D.N.K.,X*X=X,X,X6X6X6XyXhXhXhXhXhXyX6X6X6X6X2X2X,X=X*X@X@XXX|.|.'.).).~.~.Y.P.P.D.D.D.P.0.Z >.D.D.",
"/ / d $.f.N.Z.D.N.I Z Q a N '.a.8.a.*X*X*X=X,X,X6X6X6XyXhXhXhXhXhXyX6X6X6X6X2X,X,X=X*X@X@XXX|.|.'.).).~.~.Y.P.P.D.D.P.u.S >.D.Z.",
"] / a +.f.b.b.Z.N.I b Z 4 j ).$.] $.XX@X*X*X=X,X2X6X6X6XyXhXhXhXhXhXyX6X6X6X6X2X,X,X=X*X*X@XXX|.|.'.).).~.~.P.P.K.K.P.u.S >.N.N.",
"] ] d +.u.z.b.N.b.I a r * > X.S N Y |.XX@X*X*X=X,X2X6X6X6XyXhXhXhXhXhXyX6X6X6X6X2X,X,X=X*X*X@XXX|.|.'.).).~.Y.P.P.P.P.a.S ;.b.b.",
"| | d X.u.f.z.b.z.H w * # o # 4 4 j ).|.XX@X*X*X=X,X2X6XwX6XyXhXhXhXhXaXwXwX6X6X6X,X,X,X*X*X*X@XXX|.|.'.).).~.~.Y.P.~.a.S $.z.z.",
"X.| d | 0.a.f.z.f.H >   o o o o o > Y.'.|.XX@X*X*X=X,X2X6XwX6XyXhXhXhXhXhXyX6X6X6X2X,X,X=X*X*X@X@XXX|.|.'.).).~.~.P.~.f.S +.f.z.",
"X.| j | 8.a.a.f.f.Z : + # # # # * S ~.).'.|.XX@X*X=X,X,X2X6X6X6XyXhXhXhXhXhXyX6XwX6X2X2X,X=X*X*X@X@XXX|.|.'.).).~.Y.).z.H +.f.f.",
"X.| j | 3.u.a.a.f.] d d j j j j Z 3.Y.).).'.|.XX@X*X*X=X,X2X6X6XwXaXhXhXhXhXhXwX6XwX6X2X,X,X=X*X*X@X@XXX|.|.'.).).~.).z.I +.a.u.",
"+.X.j ] 3.0.u.a.a.a.a.f.f.b.b.N.Z.K.P.~.).).'.|.XX@X*X*X=X,X2X6X6XwXaXhXhXhXhXaXwX6XwX6X2X2X,X=X*X*X@X@XXX|.|.).).).|.b.H | 0.u.",
"$.+.j ] >.8.0.u.a.a.f.z.b.N.Z.D.D.K.P.Y.~.).).'.|.XX@X*X*X=X,X2X6X6XwXaXhXhXhXhXaXwX6XwX6X2X,X,X=X*X*X@X@X|.|.|.).).|.N.I | 0.0.",
"$.$.j ] ;.3.8.0.u.a.a.f.z.b.N.Z.D.D.K.P.Y.~.).).'.|.XX@X*X*X,X,X2X6XwXwXaXhXhXhXhXaXwX6X6X6X2X2X,X=X=X*X*X@XXX|.|.).XXN.I | 3.3.",
"$.$.j / $.>.3.8.0.u.a.a.f.z.b.N.Z.D.D.K.P.P.~.).).'.|.XX@X*X*X,X,X2X6X6XwXaXhXhXhXhXaXwX6X6X6X2X,X,X=X=X*X*X@XXX|.|.XXN.I / >.3.",
";.$.j Q +.>.>.3.8.0.u.a.a.z.z.b.N.Z.D.D.K.P.Y.~.).).'.|.XX@X*X*X,X,X2X6X6XwXaXhXhXhXhXaXwX6X6X6X2X2X,X=X*X*X@X@X|.|.@XZ.I / >.>.",
">.;.j Y +.;.>.>.3.8.0.u.a.f.z.z.b.N.Z.D.D.K.P.Y.~.).).|.|.XX@X*X=X,X,X2X6X6XwXaXhXhXhXhXaXwX6X6X6X2X2X,X=X*X*X@X@X|.*XD.I / $.$.",
">.>.b Y X.$.;.>.>.3.0.0.u.a.a.z.z.b.N.Z.D.D.K.P.Y.~.).).|.|.XX@X*X=X,X,X2X6X6XwXaXhXhXhXhXaXwX6XwX6X2X,X,X=X*X*X@X@X*XD.Y Q +.$.",
"3.>.b I | +.$.;.>.3.8.0.0.u.a.f.z.z.b.N.Z.D.D.K.P.Y.~.).).|.|.XX@X*X=X,X,X2X6X6XwXaXhXhXhXhXaXwXwXwX6X2X,X,X=X*X*X*X=XD.Y Q +.+.",
"3.>.N I ] X.+.$.;.>.>.8.8.0.u.a.a.z.z.b.N.Z.D.D.P.P.Y.~.).).|.|.XX@X*X=X,X,X2X6X6XwXaXhXhXhXhXaXwXwX6X6X2X,X,X=X*X*X,XK.Y Y X.| ",
"3.3.b H ] X.+.$.$.;.>.>.8.8.0.u.a.a.z.z.b.N.Z.D.D.P.P.Y.~.).'.|.|.XX@X*X=X,X,X2X6X6XwXhXhXhXhXhXaXwX6X6X6X2X,X,X=X*X,XP.Y I ] | ",
"3.3.b H / | | +.+.$.;.>.3.8.0.0.u.a.a.z.z.b.N.Z.D.D.P.P.Y.~.).).|.|.XX@X*X=X,X,X2X6X6XwXaXhXhXhXhXaXwX6X6X6X2X,X,X=X2XY.Y H / ] ",
"8.8.b S Q / | X.+.$.$.;.>.3.8.8.0.u.a.a.z.b.b.N.Z.D.D.P.P.Y.~.).'.|.|.XX@X*X*X,X,X2X6X6XwXhXhXhXhXhXaXwX6X6X6X2X,X,X6X~.Y S / / ",
"0.8.N S Y / ] | X.+.$.$.;.>.3.8.0.0.u.a.f.z.b.b.N.Z.D.D.P.Y.Y.).).'.|.|.XX@X*X=X,X,X2X6X6XwXaXhXhXhXhXyXwX6X6X6X2X,XwX~.Q S Q Q ",
"u.u.N N H Y Y Q / ] | | | X.$.;.;.>.3.8.0.0.u.a.a.f.z.b.N.Z.Z.D.K.P.P.Y.~.).'.|.|.XXXX@X*X*X=X6XwXwXwXwX,X*X*X*X*X@X,XY.Q Z Y Y ",
"a.a.Z b b N N Z S S H I I Y Y Q Q / ] ] ] | | X.+.+.$.;.;.;.>.3.3.8.0.0.0.u.a.f.f.f.z.b.b.N.N.Z.D.D.D.D.D.N.b.b.b.b.N.b.] N I I ",
"f.N.Z a r a a a a a a d j j j j d d d d d d d a d a r r r r r r r r r w w w w w w w w 7 7 7 7 7 7 7 7 4 4 4 4 > 4 4 4 7 a b H H ",
"z.'.N.a.u.u.u.u.u.u.u.a.a.a.a.a.u.0.0.0.0.0.8.8.3.>.>.;.;.$.+.+.X.| | | ] ] / / Q Y I I I H S Z Z N N b b j j d d d d d N Z S S ",
"8.u.a.a.u.a.a.a.a.f.z.z.z.z.f.a.u.u.u.0.0.8.8.8.3.3.>.;.;.$.+.+.X.| | | ] / / Q Q Y I I I H S Z N N N b b j j d d a a a a r j Z "
};
