/* XPM */
static char *_26aa06d8c3a405fb1f221fb20e823edi8y47GZ6EYLfg4S2[] = {
/* columns rows colors chars-per-pixel */
"64 64 218 2 ",
"   c #000000",
".  c #0C0A09",
"X  c #110907",
"o  c #140A08",
"O  c #1A0B0A",
"+  c #1C150C",
"@  c #131409",
"#  c #141413",
"$  c #1B1D14",
"%  c #181A15",
"&  c #240D0B",
"*  c #2C0D0D",
"=  c #310E0D",
"-  c #2D110E",
";  c #251B0C",
":  c #24160D",
">  c #32100F",
",  c #330F10",
"<  c #241612",
"1  c #2B1311",
"2  c #251B14",
"3  c #2C1B13",
"4  c #281E18",
"5  c #351311",
"6  c #3C1414",
"7  c #331C15",
"8  c #3C1B15",
"9  c #3D1C19",
"0  c #351F19",
"q  c #182619",
"w  c #163413",
"e  c #1B3415",
"r  c #1D3B15",
"t  c #15391D",
"y  c #182109",
"u  c #242215",
"i  c #2D2414",
"p  c #212C16",
"a  c #2A261A",
"s  c #342213",
"d  c #3C2315",
"f  c #33221B",
"g  c #3A251E",
"h  c #36291C",
"j  c #3B2D1E",
"k  c #382A15",
"l  c #223516",
"z  c #233C16",
"x  c #2B3D16",
"c  c #2A3A18",
"v  c #333C18",
"b  c #132F24",
"n  c #0B3426",
"m  c #053B2B",
"M  c #0B3B2A",
"N  c #0B3828",
"B  c #143529",
"V  c #133C2B",
"C  c #143A26",
"Z  c #212121",
"A  c #292828",
"S  c #3D2720",
"D  c #3D2B23",
"F  c #312E20",
"G  c #3C3321",
"H  c #373926",
"J  c #3E3E3E",
"K  c #343434",
"L  c #421615",
"P  c #4A1717",
"I  c #421A16",
"U  c #4C1917",
"Y  c #441B19",
"T  c #4D1A19",
"R  c #541C1A",
"E  c #5A1F1C",
"W  c #422416",
"Q  c #432A16",
"!  c #43251B",
"~  c #4B231B",
"^  c #432A1C",
"/  c #4C2B1B",
"(  c #55221D",
")  c #5D211E",
"_  c #532A1D",
"`  c #4A311C",
"'  c #61221F",
"]  c #442B23",
"[  c #4A2D26",
"{  c #432A24",
"}  c #5D2420",
"|  c #532B23",
" . c #5D2C24",
".. c #582926",
"X. c #433324",
"o. c #4C3226",
"O. c #4E3128",
"+. c #443A28",
"@. c #52332A",
"#. c #55392C",
"$. c #5A3A2D",
"%. c #573424",
"&. c #5E3E32",
"*. c #403F3F",
"=. c #642422",
"-. c #692624",
";. c #642A24",
":. c #6C2A26",
">. c #6D2C29",
",. c #712C26",
"<. c #732E29",
"1. c #792F2A",
"2. c #66382B",
"3. c #75322C",
"4. c #79332D",
"5. c #713C2C",
"6. c #7B3A34",
"7. c #773732",
"8. c #1D461C",
"9. c #244216",
"0. c #2D4319",
"q. c #2D4B19",
"w. c #284417",
"e. c #334C1A",
"r. c #3C4C1B",
"t. c #374418",
"y. c #2F5119",
"u. c #33521A",
"i. c #3B531B",
"p. c #3A5919",
"a. c #2F631E",
"s. c #05422C",
"d. c #0C432B",
"f. c #0D4C2D",
"g. c #0D4427",
"h. c #154B2E",
"j. c #1A4B2E",
"k. c #154528",
"l. c #12532F",
"z. c #1E5529",
"x. c #0B4C30",
"c. c #1F4D31",
"v. c #0A5332",
"b. c #075132",
"n. c #155131",
"m. c #1A5531",
"M. c #0C522F",
"N. c #21482C",
"B. c #394529",
"V. c #215A32",
"C. c #1C6334",
"Z. c #186637",
"A. c #1C713A",
"S. c #346C26",
"D. c #3B6F2A",
"F. c #387927",
"G. c #226231",
"H. c #276836",
"J. c #2C712C",
"K. c #434B1D",
"L. c #48491A",
"P. c #435516",
"I. c #445B16",
"U. c #4B5A17",
"Y. c #45541C",
"T. c #4B5718",
"R. c #525719",
"E. c #504F18",
"W. c #4B6118",
"Q. c #456317",
"!. c #4F7418",
"~. c #564528",
"^. c #454F25",
"/. c #624032",
"(. c #427622",
"). c #464646",
"_. c #4A4A4A",
"`. c #5B5B5B",
"'. c gray33",
"]. c #6B6B6B",
"[. c #7F7F7F",
"{. c #757475",
"}. c #843D33",
"|. c #833E39",
" X c #80332D",
".X c #83413D",
"XX c #8D4439",
"oX c #884034",
"OX c #91453C",
"+X c #944A46",
"@X c #807F7F",
"#X c #3D892A",
"$X c #57821C",
"%X c #7F807F",
"&X c #7F7F80",
"*X c #868686",
"=X c gray58",
"-X c #AAAAAA",
";X c #BEBEBE",
":X c #B1B1B1",
">X c #AFB6AF",
",X c #C5B0AF",
"<X c #CACACA",
"1X c #C0C0C0",
"2X c #D6CFCF",
"3X c #D4D0CF",
"4X c #CEDAD5",
"5X c #D5D2D1",
"6X c #DCD2D2",
"7X c #D6DBD6",
"8X c #CFD0CF",
"9X c #E1D4D3",
"0X c #E6D9D7",
"qX c #D2E1D7",
"wX c #D8E4D4",
"eX c #E7E7E7",
"rX c #F3F3F3",
"tX c #FFFFFF",
/* pixels */
"@.] O.O.$.$.#./.$.#.#.@.] [ ] ] ] O.] O.$.~./.&.&.$.#.@.@.@.#.#.@.] o.{ S D ] #.#.#.#.@.] ] ] ] ] O.] o.D X.#.#./.$.#.@.@.@.#.#.",
":.=.) R T $.6.+X.X.X|.<.<.|.3.3.:.=.) R ~ $.XX+X.X.X|.3.:.;.6.6.>.=.) T T O.6.+X.XoX}.3.:.:.:.:.:.=.( T { #.#.6.+XOX4.3.3.;.6.6.",
"=.) =.R 7 +..X>.:.:.:.-.<.4.:.-.=.) =.R 5 @.XX3.:.:.:.,.>.7.>.-.=.) =.R 5 [ XX3.:.:.:.,.:.;.-.=.=. .! T 5 O.2.}.<.:.-.-.<.7.>.:.",
"=.=.) | j.n.c.9 ) =.=.-.-.=.=.=.=.=.) ) 9 ] 3.=.=.=.,.:.=.:.=.=.=.=.) ) 6 [ 4.-.=.-.,.:.=.=.=.) ! D.G.7 6 #.2.| } =.=.-.-.:.=.=.",
"=.=...c.v.b.m 3 9 ) =.-.R =.=.=.=.=.=.%.N.B.o.( =.=.=.-.R =.=.=.=.=.=.) 5 ] <.-.-.<.=.=.-.-.R P 7 C.A.f 3 j.n.h.g ) =.-.R =.=.=.",
"=.=. .V.f.m M B.j.g ) R T =.=.=.=.=. .H.A.C.B 1 E =.R R R =.=.=.=.=.=.R > [ } =.=.:.R R =.E T 7 4 V V.X.D N b.v.h.d ) R T =.=.=.",
"R } ) 3 + u N C.A.H.` L L ) ) R R =. .D.C.V F 1 5 6 Y P R E R T R ) ) P 5 [ ( T U T T R ) R f h.n.H 2 - O # n f.m.7 T 6 L ) ) R ",
"6 6 5 * 5 f 2 f.F.#X(.7 6 L 9 8 I X.+.k.q % % G +.H N.$ 7 o o > 6 L 5 > 9 @.T > = > 6 L 6 i G.A.Z.n O & & 2 < + < - > > 6 Y Y 6 ",
"] [ [ ] @.[ u k.B.(.!.k S H h.j.H B l.v.f.g.C.H.C.B H j.h.q f ] @.#.@.@.@.@.] S S g { ] f F.#XF.h.q 4 ] O.O.@.[ [ [ [ { [ [ [ { ",
"4.}.4.3.3.>.8 G 3 ; ; 5 / H.A.Z.B $ n f.m.a S.C.N % b B.H.G.u [ 6.+X+XOX6.3.3.;.} R T P d !.F.z.H B.j.+.7.3.6.3.,.,.:.=.) R T #.",
"}.>.-.-.-.=.9 X.3 3 1 P d S.C.V 2 1 1 < 7 5 s 7 < & + B B.F.g.f }. X4.1.:.:.,.<.=.=.R E ) 7 + $ B C.A.H.^ =.:.:.-.-.=.-.=.R 6 O.",
"3.=.=.:.=.) f h.l.k.0 8 7 u $ j 9 5 5 6 R R R R 5 5 i G.H.Z.N f :.=.,.-.-.:.-.-.=.=.=.=.=.P & 2 + V C.S.d =.=.=.=.=.=.=.=.) I @.",
"R =.) =.=.! h.v.b.N H H >X4X7X5X5X6X6X6X6X6X6X6X5X5XwXwXwX4X7X7X5X5X6X9X9X9X9X9X9X9X6X9X9X6X2X5X5X7X5X-X6 ) =.-.R R R ) =.R 5 S ",
"T E =.' =.| V.f.n q h.d.qXtXtXtXtXtXtXtXtXtXtXtXtXtXtXtXtXtXtXtXtXtXtXtXtXtXtXtXtXtXtXtXtXtXtXtXtXtXtX5X7 I } ~ ~ T ) =.) R > ] ",
"T U R E E ) 7 < p G.A.Z.4XtXtXtXtXtXtXtXtXtXtXtXtXtXtXtXtXtXtXtXtXtXtXtXtXtXtXtXtXtXtXtXtXtXtXtXtXtXtX4Xj.H +.N.j.h P R E P > S ",
"P > > 5 6 I 6 3 F.#XF.g.8XtXtXtXtXtXtXtXtXtXtXtXtXtXtXtXtXtXtXtXtXtXtXtXtXtXtXtXtXtXtXtXtXtXtXtXtXtXtXqXZ.N B B.H.G.i 6 5 > 9 o.",
"{ { { { { [ { X.$XF.z.u 5XtXtXtXtXtXtXtXtXtXtXtXtXtXtXtXtXtXtXtXtXtXtXtXtXtXtXtXtXtXtXtXtXtXtXtXtXtXtXqXN % $ k.F.#XF.j [ O.@.@.",
";.<.:.:.=.( T I W j [ ..0XtXtXtXtXtXtXtXtXtXtXtXtXtXtXtXtXtXtXtXtXtXtXtXtXtXtXtXtXtXtXtXtXtXtXtXtXtXtX5X< 2 G u j.F.$X%.<.3.3.=.",
"-.,.' ) E R R L O [ |.>.9XtXtXtXtXtXtXtXtXtXtXtXtXtXtXtXtXtXtXtXtXtXtXtXtXtXtXtXtXtXtXtXtXtXtXtXtXtXtX5X< k.n.H $ u / Y ) ) ) ) ",
"=.) E E E E R R * ] 3.=.9XtXtXtXtXtXtXtXtXtXtXtXtXtXtXtXtXtXtXtXtXtXtXtXtXtXtXtXtXtXtXtXtXtXtXtXtXtXtX5X4 m Z.H.G.f } E E E ) =.",
"L R E E E E E T O ] ( ) 9XtXtXtXtXtXtXtXtXtXtXtXtXtXtXtXtXtXtXtXtXtXtXtXtXtXtXtXtXtXtXtXtXtXtXtXtXtXtX7Xn.b.d.C.S.h L R E E E } ",
"6 R E R R E E L X ] ) =.9XtXtXtXtXtXtXtXtXtXtXtXtXtXtXtXtXtXtXtXtXtXtXtXtXtXtXtXtXtXtXtXtXtXtXtXtXtXtXqXA.C.2 : ; ] T R R E R L ",
"= T R L 6 R T , X ] ) T 5XtXtXtXtXtX-X[.[.[.%X&X[.[.[.@X[.<XtXtXtXtXtXtXtXeX[.@X-XtXtXtXtXtXtXtXtXtXtX4XC.S.7 * * [ P 5 5 U L * ",
"* > > = = - o X 1 @.T 5 2XtXtXtXtXtX`.                    =XtXtXtXtXtXtXtX[.    # tXtXtXtXtXtXtXtXtXtX3X+ < - * 9 @.9 X X o X . ",
"@.[ O.@.O.O.[ [ O.@.] [ 6XtXtXtXtXtX`.  Z @X[.[.[.[.&X[.%X<XtXtXtXtXtXtXtX$       :XtXtXtXtXtXtXtXtXtX5X0 S S S S { ] S { { S S ",
"+XoX|.6.4.6.3.,.,.:.=.) 6XtXtXtXtXtX`.  ).tXtXtXtXtXtXtXtXtXtXtXtXtXtXtX;X  # {.  '.tXtXtXtXtXtXtXtXtX0X:.:.=.( I 6 L T P 9 $.3.",
":.:.3.>.-.:.:.-.-.=.-.=.6XtXtXtXtXtX`.  ).tXtXtXtXtXtXtXtXtXtXtXtXtXtXtX'.  {.7X    eXtXtXtXtXtXtXtXtX9X' =.:.) R L T R 5 o #.oX",
") =.' =.=.=.=.=.=.=.=.=.6XtXtXtXtXtX`.  ).tXtXtXtXtXtXtXtXtXtXtXtXtXtXrX    <XtXK   *XtXtXtXtXtXtXtXtX6X=.) ) E E R E R 5 X ] } ",
"=.) =.=.=.=.-.R R R ) =.6XtXtXtXtXtX`.  ).tXtXtXtXtXtXtXtXtXtXtXtXtXtX=X  A tXtX=X  A tXtXtXtXtXtXtXtX9X) E E E E R E E L o g T ",
"E =.) =.=.=.E R R ) =.) 6XtXtXtXtXtX`.  K ;X;X;X;X;X;X;X;XtXtXtXtXtXtXK   *XtXtXrX    <XtXtXtXtXtXtXtX6XR R E E R E E E R * g T ",
"U R E E ) } E R E R R E 5XtXtXtXtXtX`.                    rXtXtXtXtX5X    eXtXtXtX'.  ].tXtXtXtXtXtXtX6XL U R R R R T T I O g T ",
"= > 5 I 6 I Y L I L L > 3XtXtXtXtXtX`.  # J J J J J J *.J rXtXtXtXtX].  ).tXtXtXtX-X  . rXtXtXtXtXtXtX2X* O - - > > o X o - S T ",
"{ [ [ @.#.@.$.@.@.@.[ { 6XtXtXtXtXtX`.  ).tXtXtXtXtXtXtXtXtXtXtXtXtX#   -XtXtXtXtXtX#   -XtXtXtXtXtXtX6XS o.@.$.@.O.[ [ ] O.@.@.",
"} ) R ~ $.3.XX4.3.3.=.;.9XtXtXtXtXtX`.  ).tXtXtXtXtXtXtXtXtXtXtXtX-X    {.[.&X@X%X[.A   ).tXtXtXtXtXtX6X#.#.6.+XOX4.3.3.;.6.6.<.",
") =.R 5 @.3.>.' ) ) ) =.9XtXtXtXtXtX`.  ).tXtXtXtXtXtXtXtXtXtXtXtX).                      eXtXtXtXtXtX5XO.2.oX<.:.-.-.<.7.>.-.-.",
"=.) ) 6 [ :.) E E ) =.=.6XtXtXtXtXtX`.  ).tXtXtXtXtXtXtXtXtXtXtXeX    ].[.[.[.[.%X&X[.Z   *XtXtXtXtXtX5X@.3.6.-.=.=.-.-.:.=.=.=.",
"=.=.) 5 [ P R E E ) ) P 6XtXtXtXtXtX`.  ).tXtXtXtXtXtXtXtXtXtXtX*X  # tXtXtXtXtXtXtXtX*X  Z tXtXtXtXtX2X{ =.=.=.=.=.-.R =.=.=.=.",
"=.=.R > [ T R R E R L 6 6XtXtXtXtXtX`.  ).tXtXtXtXtXtXtXtXtXtXtX$   ].tXtXtXtXtXtXtXtXeX    ;XtXtXtXtX2XS ( ' ) =.=.R T =.=.=.=.",
"=.) P 5 [ P 5 5 U L * = 6XtXtXtXtXtX`.                    `.tX1X    <XtXtXtXtXtXtXtXtXtXK   `.tXtXtXtX2Xg T R ) ) R 6 L ) ) R T ",
"6 5 = 9 @.9 o X X X X * 2XtXtXtXtXtX`.                    `.tX`.  Z tXtXtXtXtXtXtXtXtXtX=X  . rXtXtXtX5XS T 5 6 5 > > 6 L Y L L ",
"{ { ] O.o.O.[ g S ] { S 6XtXtXtXtXtXtXtXtXtXtXtXtXtXtXtXtXtXtXtXtXtXtXtXtXtXtXtXtXtXtXtXtXtXtXtXtXtXtX6X@.@.@.@.[ [ [ [ ] [ [ [ ",
"$.3.}.4.3.3.<.) >.;.R T 6XtXtXtXtXtXtXtXtXtXtXtXtXtXtXtXtXtXtXtXtXtXtXtXtXtXtXtXtXtXtXtXtXtXtXtXtXtXtX0X|.6.4.6.<.,.:.:.=.) R P ",
"$.6.>.-.-.-.-.=.,.<.=.R 6XtXtXtXtXtXtXtXtXtXtXtXtXtXtXtXtXtXtXtXtXtXtXtXtXtXtXtXtXtXtXtXtXtXtXtXtXtXtX9X3.>.-.:.:.-.-.=.-.=.R = ",
"$.3.=.=.:.=.=.=.=.-.=.) 6XtXtXtXtXtXtXtXtXtXtXtXtXtXtXtXtXtXtXtXtXtXtXtXtXtXtXtXtXtXtXtXtXtXtXtXtXtXtX9X' =.=.=.=.=.=.=.=.=.) 6 ",
"] R =.) =.=.=.=.) =.=.R 6XtXtXtXtXtXtXtXtXtXtXtXtXtXtXtXtXtXtXtXtXtXtXtXtXtXtXtXtXtXtXtXtXtXtXtXtXtXtX6X=.=.=.=.-.R R R ) =.R = ",
"[ T E =.) =.) =.=.=.E R 6XtXtXtXtXtXtXtXtXtXtXtXtXtXtXtXtXtXtXtXtXtXtXtXtXtXtXtXtXtXtXtXtXtXtXtXtXtXtX6X) =.=.=.E R R ) =.) R = ",
"] T U R E E ) E } ) R T 6XtXtXtXtXtXtXtXtXtXtXtXtXtXtXtXtXtXtXtXtXtXtXtXtXtXtXtXtXtXtXtXtXtXtXtXtXtXtX6XE E ) } E R E R R E P = ",
"[ T 5 > 5 I Y I I Y I 6 3XtXtXtXtXtXtXtXtXtXtXtXtXtXtXtXtXtXtXtXtXtXtXtXtXtXtXtXtXtXtXtXtXtXtXtXtXtXtX2X5 I 6 I Y L I L 6 5 > 5 ",
"] ] [ { [ @.$.$.#.$.#.@.6XtXtXtXtXtXtXtXtXtXtXtXtXtXtXtXtXtXtXtXtXtXtXtXtXtXtXtXtXtXtXtXtXtXtXtXtXtXtX6X[ @.#.@.$.#.@.@.[ { ] ] ",
"3.:.=.) R ( $.6.+X.X.X|.9XtXtXtXtXtXtXtXtXtXtXtXtXtXtXtXtXtXtXtXtXtXtXtXtXtXtXtXtXtXtXtXtXtXtXtXtXtXtX6XL 9 $.XX+X.X.X|.<.3.|.3.",
"-.=.) =.R 5 @.XX<.:.:.:.9XtXtXtXtXtXtXtXtXtXtXtXtXtXtXtXtXtXtXtXtXtXtXtXtXtXtXtXtXtXtXtXtXtXtXtXtXtXtX6XL O @.OX3.:.:.:.-.<.4.:.",
"=.=.=.) ) 6 ] 3.=.=.=.,.,X9X9X9X9X9X9X6X6X5X6X0X9X9X9X9X9X9X9X9X6X5X5X3X5X7X4XwXwX5X6X6X9X9X9X6X6X6X6X,XR * [ 3.=.=.=.=.-.-.=.=.",
"=.=.=.=.) 5 [ ( ) =.=.=.-.R =.=.=.=.=.=.) 5 ] <.-.-.<.=.=.-.:.R R I 3 2 G ^.l.p ; 5 R ) ) P E E E E E E T O ] ( ) =.=.=.-.R =.=.",
"=.=.=.=.R > [ ) =.=.-.R R R =.=.=.=.=.=.R > [ } =.=.:.R R =.E R { j.n.d.N C.A.G.7 P E R L 6 R E R E E E L X ] ) =.=.=.=.R T =.=.",
"T R ) E L O ] ( T U T U P ( T R T R ) ) P 5 [ ( T U T T R } | ^ H.A.Z.m % m C.S.3 U R U & * R R L L R T , X ] ( T T E R 6 L E } ",
"6 6 L * O 7 ] T 5 > > 6 5 c @ o * 6 L 5 > 9 @.T 5 = 5 6 f V d.d.J.C.m m m m q @ X * + t.@ & > > = * - o X 1 O.~ 5 = > > > 6 I 6 ",
"h ] [ h g S f g S ] { ] h P.h ] ] @.@.O.@.@.@.@.[ { [ X.h.b.b.s.l.q q n b.b.h.D g { j I.x h { S [ ] [ ] g O.{ O.[ g g g S X.K.] ",
"^.2.%.R._ } 9 5 I ~ ( R 8 U.%.7.5.6.6.3.6.<.:.,.:.} ) ~ C l.s.Z.A.G.u.u b h.k.! I I d K.s ^ ;.R :.>. .;.Y ( Y ~ } ( P 5 5 h ^.2.",
"Y.` Y.R._ >.K.W I L._ L : I.t._ ~.5.:.} ;.} ;.=.( ~ ) ~ 2 u.l.f.J.a.Q.3 Y  .%.E.d L I P.; K.5.T ~ E.W R L R ~ K.( R R 6 o u Y./ ",
"W.c p.W.W _ Y.R.~ Q v 6 & e.l I W L.| ~ K.Q E.! ~ K.Q c t g.d.% t q.p.l Y P _ Y.v I Q r.; r.%.I W T.d I 6 Y 9 r.d Y W t.+ 0.U.Q ",
"W.9.q.W.t.~ Q T.W r.i.d ; r c 8 9 r.c W R.` Y.x s r.i.z.C.g.m # 2 2 z e 9 9 W P.0.d T.i.i 0.r.d W K.d k k E.s r.i t.d r.y I.W.0.",
"e.u.q.p.q.r.d v k 0.I.x P.u.z c k 0.r.Q U.x I.x 8 d e.S.C.n m s.M i c p d t.k l x Q U.e.e.h x k T.i.d d r.U.k I.w.e s I.y.q.p.r ",
"u.9.u.p.9.l k x e.z I.9.p.9.q.r e.q.u.0.I.z 9.e s x e.i + G N b.M.8.e s p q.e.z I.i.z u.w.h x P.p.9.P.x 9.p.z I.w.e l I.r r e.e ",
"r r r u.e e e.r 9.w w.y.r z e e u.r 9.r p.9.w e e.9.e & & X.4 m v.8.w l e u.z p.Q.r w y.r z w r u.r u.z p.r w u.r q.9.u.9.9.r w "
};