/* XPM */
static char *_8f53d4ce16d4296cdf2a7bb572cb85amCQPHnGbIc0OheDJ[] = {
/* columns rows colors chars-per-pixel */
"64 64 221 2 ",
"   c #000000",
".  c #0B0B0B",
"X  c #0D0706",
"o  c #110907",
"O  c #140A08",
"+  c #1A0B0A",
"@  c #1C150C",
"#  c #131409",
"$  c #151A14",
"%  c #1B1D14",
"&  c #1D1D1C",
"*  c #171613",
"=  c #240D0B",
"-  c #2C0D0D",
";  c #310E0D",
":  c #2D110E",
">  c #251B0C",
",  c #24160D",
"<  c #32100F",
"1  c #330F10",
"2  c #241612",
"3  c #2B1311",
"4  c #251B14",
"5  c #2C1B13",
"6  c #281E18",
"7  c #351311",
"8  c #3C1414",
"9  c #331C15",
"0  c #3C1B15",
"q  c #3D1C19",
"w  c #351F19",
"e  c #182619",
"r  c #163413",
"t  c #1B3415",
"y  c #1D3B15",
"u  c #15391D",
"i  c #182109",
"p  c #242215",
"a  c #2D2414",
"s  c #212C16",
"d  c #2A261A",
"f  c #342213",
"g  c #3C2315",
"h  c #33221B",
"j  c #3A251E",
"k  c #36291C",
"l  c #3B2D1E",
"z  c #382A15",
"x  c #223516",
"c  c #233C16",
"v  c #2B3D16",
"b  c #2A3A18",
"n  c #333C18",
"m  c #132F24",
"M  c #0B3426",
"N  c #053B2B",
"B  c #0B3B2A",
"V  c #0B3828",
"C  c #143529",
"Z  c #133C2B",
"A  c #143A26",
"S  c #242424",
"D  c #2B2B2B",
"F  c #3D2720",
"G  c #3D2B23",
"H  c #312E20",
"J  c #3C3321",
"K  c #373926",
"L  c #3A3A3A",
"P  c #323232",
"I  c #421615",
"U  c #4A1717",
"Y  c #421A16",
"T  c #4C1917",
"R  c #441B19",
"E  c #4D1A19",
"W  c #541C1A",
"Q  c #5A1F1C",
"!  c #422416",
"~  c #432A16",
"^  c #43251B",
"/  c #4B231B",
"(  c #432A1C",
")  c #4C2B1B",
"_  c #55221D",
"`  c #5D211E",
"'  c #532A1D",
"]  c #4A311C",
"[  c #61221F",
"{  c #442B23",
"}  c #4A2D26",
"|  c #432A24",
" . c #5D2420",
".. c #532B23",
"X. c #5D2C24",
"o. c #582926",
"O. c #433324",
"+. c #4C3226",
"@. c #4E3128",
"#. c #443A28",
"$. c #52332A",
"%. c #55392C",
"&. c #5A3A2D",
"*. c #573424",
"=. c #5E3E32",
"-. c #642422",
";. c #692624",
":. c #642A24",
">. c #6C2A26",
",. c #6D2C29",
"<. c #712C26",
"1. c #732E29",
"2. c #792F2A",
"3. c #66382B",
"4. c #75322C",
"5. c #79332D",
"6. c #713C2C",
"7. c #7B3A34",
"8. c #773732",
"9. c #1D461C",
"0. c #244216",
"q. c #2D4319",
"w. c #2D4B19",
"e. c #284417",
"r. c #334C1A",
"t. c #3C4C1B",
"y. c #374418",
"u. c #2F5119",
"i. c #33521A",
"p. c #3B531B",
"a. c #3A5919",
"s. c #2F631E",
"d. c #05422C",
"f. c #0C432B",
"g. c #0D4C2D",
"h. c #0D4427",
"j. c #154B2E",
"k. c #1A4B2E",
"l. c #154528",
"z. c #12532F",
"x. c #1E5529",
"c. c #0B4C30",
"v. c #1F4D31",
"b. c #0A5332",
"n. c #075132",
"m. c #155131",
"M. c #1A5531",
"N. c #0C522F",
"B. c #21482C",
"V. c #394529",
"C. c #215A32",
"Z. c #1C6334",
"A. c #186637",
"S. c #1C713A",
"D. c #346C26",
"F. c #3B6F2A",
"G. c #387927",
"H. c #226231",
"J. c #276836",
"K. c #2C712C",
"L. c #434B1D",
"P. c #48491A",
"I. c #435516",
"U. c #445B16",
"Y. c #4B5A17",
"T. c #45541C",
"R. c #4B5718",
"E. c #525719",
"W. c #504F18",
"Q. c #4B6118",
"!. c #456317",
"~. c #4F7418",
"^. c #564528",
"/. c #454F25",
"(. c #624032",
"). c #427622",
"_. c #444444",
"`. c #4B4B4B",
"'. c #484747",
"]. c #5C5C5C",
"[. c gray32",
"{. c #6B6B6B",
"}. c #656565",
"|. c #7A7A7A",
" X c #737373",
".X c #843D33",
"XX c #833E39",
"oX c #80332D",
"OX c #83413D",
"+X c #8D4439",
"@X c #884034",
"#X c #91453C",
"$X c #944A46",
"%X c #3D892A",
"&X c #57821C",
"*X c #8B8B8B",
"=X c #838383",
"-X c #969696",
";X c #A4A4A4",
":X c #ACACAC",
">X c #B4B4B4",
",X c #BCBCBC",
"<X c #AFB6AF",
"1X c #C5B0AF",
"2X c #C4C4C4",
"3X c #CBCBCB",
"4X c #D6CFCF",
"5X c #D4D0CF",
"6X c #CEDAD5",
"7X c #D6D3D2",
"8X c #DCD2D2",
"9X c #D8DBD8",
"0X c #CFD0CF",
"qX c #E1D4D3",
"wX c #E6D9D7",
"eX c #D2E1D7",
"rX c #D8E4D4",
"tX c #E4E4E4",
"yX c #EDEDED",
"uX c #F3F3F3",
"iX c #FFFFFF",
/* pixels */
"$.{ @.@.&.&.%.(.&.%.%.$.{ } { { { @.{ @.&.^.(.=.=.&.%.$.$.$.%.%.$.{ +.| F G { %.%.%.%.$.{ { { { { @.{ +.G O.%.%.(.&.%.$.$.$.%.%.",
">.-.` W E &.7.$XOXOXXX1.1.XX4.4.>.-.` W / &.+X$XOXOXXX4.>.:.7.7.,.-.` E E @.7.$XOX@X.X4.>.>.>.>.>.-._ E | %.%.7.$X#X5.4.4.:.7.7.",
"-.` -.W 9 #.OX,.>.>.>.;.1.5.>.;.-.` -.W 7 $.#X4.>.>.>.<.,.8.,.;.-.` -.W 7 } +X4.>.>.>.<.>.:.;.-.-.X.^ E 7 @.3..X1.>.;.;.1.8.,.>.",
"-.-.` ..k.m.v.q ` -.-.;.;.-.-.-.-.-.` ` q { 4.-.-.-.<.>.-.>.-.-.-.-.` ` 8 } 5.;.-.;.<.>.-.-.-.` ^ F.H.9 8 %.3... .-.-.;.;.>.-.-.",
"-.-.o.v.b.n.N 5 q ` -.;.W -.-.-.-.-.-.*.B.V.+._ -.-.-.;.W -.-.-.-.-.-.` 7 { 1.;.;.1.-.-.;.;.W U 9 Z.S.h 5 k.m.j.j ` -.;.W -.-.-.",
"-.-.X.C.g.N B V.k.j ` W E -.-.-.-.-.X.J.S.Z.C 3 Q -.W W W -.-.-.-.-.-.W < }  .-.-.>.W W -.Q E 9 6 Z C.O.G V n.b.j.g ` W E -.-.-.",
"W  .` 5 @ p V Z.S.J.] I I ` ` W W -.X.F.Z.Z H 3 7 8 R U W Q W E W ` ` U 7 } _ E T E E W ` W h j.m.K 4 : + $ M g.M.9 E 8 I ` ` W ",
"8 8 7 - 7 h 4 g.G.%X).9 8 I q 0 Y O.#.l.e $ $ J #.K B.% 9 O O < 8 I 7 < q $.E < ; < 8 I 8 a H.S.A.M + = = 4 2 * 2 : < < 8 R R 8 ",
"{ } } { $.} p l.V.).~.z F K j.k.K C z.b.g.h.Z.J.Z.C K k.j.e h { $.%.$.$.$.$.{ F F j | { h G.%XG.j.e 6 { @.@.$.} } } } | } } } | ",
"5..X5.4.4.,.0 J 5 > > 7 ) J.S.A.C & M g.M.d D.Z.V % m V.J.H.p } 7.$X$X#X7.4.4.:. .W E U g ~.G.x.K V.k.#.8.4.7.4.<.<.>.-.` W E %.",
".X,.;.;.;.-.q O.5 5 3 U g D.Z.Z 4 3 3 2 9 7 f 9 2 = * C V.G.h.h .XoX5.2.>.>.<.1.-.-.W Q ` 9 @ % C Z.S.J.( -.>.>.;.;.-.;.-.W 8 @.",
"4.-.-.>.-.` h j.z.l.w 0 9 p % l q 7 7 8 W W W W 7 7 a H.J.A.V h >.-.<.;.;.>.;.;.-.-.-.-.-.U = 4 * Z Z.D.g -.-.-.-.-.-.-.-.` Y $.",
"W -.` -.-.^ j.b.n.V K K <X6X7X7X7X8X8X8X8X8X8X8X7X7XrXrXrX6X9X7X7X7X8XqXqXqXqXqXqXqX8XqXqX8X4X7X7X7X7X:X8 ` -.;.W W W ` -.W 7 F ",
"E Q -.[ -...C.g.M e j.f.eXiXiXiXiXiXiXiXiXiXiXiXiXiXiXiXiXiXiXiXiXiXiXiXiXiXiXiXiXiXiXiXiXiXiXiXiXiXiX7X9 Y  ./ / E ` -.` W < { ",
"E T W Q Q ` 9 2 s H.S.A.6XiXiXiXiXiXiXiXiXiXiXiXiXiXiXiXiXiXiXiXiXiXiXiXiXiXiXiXiXiXiXiXiXiXiXiXiXiXiX6Xk.K #.B.k.k U W Q U < F ",
"U < < 7 8 Y 8 5 G.%XG.h.0XiXiXiXiXiXiXiXiXiXiXiXiXiXiXiXiXiXiXiXiXiXiXiXiXiXiXiXiXiXiXiXiXiXiXiXiXiXiXeXA.V C V.J.H.a 8 7 < q +.",
"| | | | | } | O.&XG.x.p 7XiXiXiXiXiXiXiXiXiXiXiXiXiXiXiXiXiXiXiXiXiXiXiXiXiXiXiXiXiXiXiXiXiXiXiXiXiXiXeXV $ % l.G.%XG.l } @.$.$.",
":.1.>.>.-._ E Y ! l } o.wXiXiXiXiXiXiXiXiXiXiXiXiXiXiXiXiXiXiXiXiXiXiXiXiXiXiXiXiXiXiXiXiXiXiXiXiXiXiX7X2 4 J p k.G.&X*.1.4.4.-.",
";.<.[ ` Q W W I + } XX,.qXiXiXiXiXiXiXiXiXiXiXiXiXiXiXiXiXiXiXiXiXiXiXiXiXiXiXiXiXiXiXiXiXiXiXiXiXiXiX7X2 l.m.K % p ) R ` ` ` ` ",
"-.` Q Q Q Q W W - { 4.-.qXiXiXiXiXiXiXiXiXiXiXiXiXiXiXiXiXiXiXiXiXiXiXiXiXiXiXiXiXiXiXiXiXiXiXiXiXiXiX7X6 N A.J.H.h  .Q Q Q ` -.",
"I W Q Q Q Q Q E + { _ ` qXiXiXiXiXiXiXiXiXiXiXiXiXiXiXiXiXiXiXiXiXiXiXiXiXiXiXiXiXiXiXiXiXiXiXiXiXiXiX9Xm.n.f.Z.D.k I W Q Q Q  .",
"8 W Q W W Q Q I o { ` -.qXiXiXiXiXiXiXiXiXiXiXiXiXiXiXiXiXiXiXiXiXiXiXiXiXiXiXiXiXiXiXiXiXiXiXiXiXiXiXeXS.Z.4 , > { E W W Q W I ",
"; E W I 8 W E 1 o { ` E 7XiXiXiXiXiX7X|.]._.[.{.*X,XuXiXiXiXiXiXiXiXiXiX>X*X}.'.}.*X,XiXiXiXiXiXiXiXiX6XZ.D.9 - - } U 7 7 T I - ",
"- < < ; ; : O o 3 $.E 7 4XiXiXiXiX].                S iXiXiXiXiXiXiXyXL               `.uXiXiXiXiXiXiX5X@ 2 : - q $.q o o O o X ",
"$.} @.$.@.@.} } @.$.{ } 8XiXiXiX}.     X2XuXtX:X}.. S iXiXiXiXiXiX3X$   * -X3XuX2X*X.   S 9XiXiXiXiXiX7Xw F F F F | { F | | F F ",
"$X@XXX7.5.7.4.<.<.>.-.` 8XiXiXtX    -XiXiXiXiXiXiXuX>XiXiXiXiXiXiXS   D tXiXiXiXiXiX7X&   L iXiXiXiXiXwX>.>.-._ Y 8 I E U q &.4.",
">.>.4.,.;.>.>.;.;.-.;.-.8XiXiX>X    uXiXiXiXiXiXiXiXiXiXiXiXiXiX*X    tXiXiXiXiXiXiXiX3X    :XiXiXiXiXqX[ -.>.` W I E W 7 O %.@X",
"` -.[ -.-.-.-.-.-.-.-.-.8XiXiX;X    uXiXiXiXiXiXiXiXiXiXiXiXiXyX.   }.iXiXiXiXiXiXiXiXiX_.  & iXiXiXiX8X-.` ` Q Q W Q W 7 o {  .",
"-.` -.-.-.-.;.W W W ` -.8XiXiX3X    |.iXiXiXiXiXiXiXiXiXiXiXiX;X    ,XiXiXiXiXiXiXiXiXiX-X    2XiXiXiXqX` Q Q Q Q W Q Q I O j E ",
"Q -.` -.-.-.Q W W ` -.` 8XiXiXiXL     D =X2XuXiXiXiXiXiXiXiXiX=X    tXiXiXiXiXiXiXiXiXiX2X    ;XiXiXiX8XW W Q Q W Q Q Q W - j E ",
"T W Q Q `  .Q W Q W W Q 7XiXiXiXtX_.          _.-XuXiXiXiXiXiX{.  . iXiXiXiXiXiXiXiXiXiXuX    *XiXiXiX8XI T W W W W E E Y + j E ",
"; < 7 Y 8 Y R I Y I I < 5XiXiXiXiXiX>X]..         & >XiXiXiXiX}.  & iXiXiXiXiXiXiXiXiXiXiX    =XiXiXiX4X- + : : < < O o O : F E ",
"| } } $.%.$.&.$.$.$.} | 8XiXiXiXiXiXiXiXiX7X-X_.    . 9XiXiXiX*X    iXiXiXiXiXiXiXiXiXiXtX    ;XiXiXiX8XF +.$.&.$.@.} } { @.$.$.",
" .` W / &.4.+X5.4.4.-.:.qXiXiXiXiXiXiXiXiXiXiXiX2X    {.iXiXiX:X    9XiXiXiXiXiXiXiXiXiX,X    3XiXiXiX8X%.%.7.$X#X5.4.4.:.7.7.1.",
"` -.W 7 $.4.,.[ ` ` ` -.qXiXiXiXiXiXiXiXiXiXiXiXiX`.  L iXiXiX7X    -XiXiXiXiXiXiXiXiXiX X    uXiXiXiX7X@.3.@X1.>.;.;.1.8.,.;.;.",
"-.` ` 8 } >.` Q Q ` -.-.8XiXiXiXiXiXiXiXiXiXiXiXiX].  D iXiXiXiXD   S iXiXiXiXiXiXiXiXuX.   `.iXiXiXiX7X$.4.7.;.-.-.;.;.>.-.-.-.",
"-.-.` 7 } U W Q Q ` ` U 8XiXiXyXiXiXiXiXiXiXiXiXuX&   ].iXiXiXiX,X    *XiXiXiXiXiXiXiX{.    7XiXiXiXiX4X| -.-.-.-.-.;.W -.-.-.-.",
"-.-.W < } E W W Q W I 8 8XiXiX;XD ;XuXiXiXiXiX3X'.    3XiXiXiXiXiX_.    |.iXiXiXiXiX].    }.iXiXiXiXiX4XF _ [ ` -.-.W E -.-.-.-.",
"-.` U 7 } U 7 7 T I - ; 8XiXiX;X      P ].{.S       |.iXiXiXiXiXiXyX].    # '. X_..      XuXiXiXiXiXiX4Xj E W ` ` W 8 I ` ` W E ",
"8 7 ; q $.q O X o o o - 4XiXiXtX XP             P :XiXiXiXiXiXiXiXiXiX>XP .       . L 2XiXiXiXiXiXiXiX7XF E 7 8 7 < < 8 I R I I ",
"| | { @.+.@.} j F { | F 8XiXiXiXiXiXiX3X,X2X9XuXiXiXiXiXiXiXiXiXiXiXiXiXiXiXtX2XtXiXiXiXiXiXiXiXiXiXiX8X$.$.$.$.} } } } { } } } ",
"&.4..X5.4.4.1.` ,.:.W E 8XiXiXiXiXiXiXiXiXiXiXiXiXiXiXiXiXiXiXiXiXiXiXiXiXiXiXiXiXiXiXiXiXiXiXiXiXiXiXwXXX7.5.7.1.<.>.>.-.` W U ",
"&.7.,.;.;.;.;.-.<.1.-.W 8XiXiXiXiXiXiXiXiXiXiXiXiXiXiXiXiXiXiXiXiXiXiXiXiXiXiXiXiXiXiXiXiXiXiXiXiXiXiXqX4.,.;.>.>.;.;.-.;.-.W ; ",
"&.4.-.-.>.-.-.-.-.;.-.` 8XiXiXiXiXiXiXiXiXiXiXiXiXiXiXiXiXiXiXiXiXiXiXiXiXiXiXiXiXiXiXiXiXiXiXiXiXiXiXqX[ -.-.-.-.-.-.-.-.-.` 8 ",
"{ W -.` -.-.-.-.` -.-.W 8XiXiXiXiXiXiXiXiXiXiXiXiXiXiXiXiXiXiXiXiXiXiXiXiXiXiXiXiXiXiXiXiXiXiXiXiXiXiX8X-.-.-.-.;.W W W ` -.W ; ",
"} E Q -.` -.` -.-.-.Q W 8XiXiXiXiXiXiXiXiXiXiXiXiXiXiXiXiXiXiXiXiXiXiXiXiXiXiXiXiXiXiXiXiXiXiXiXiXiXiX8X` -.-.-.Q W W ` -.` W ; ",
"{ E T W Q Q ` Q  .` W E 8XiXiXiXiXiXiXiXiXiXiXiXiXiXiXiXiXiXiXiXiXiXiXiXiXiXiXiXiXiXiXiXiXiXiXiXiXiXiX8XQ Q `  .Q W Q W W Q U ; ",
"} E 7 < 7 Y R Y Y R Y 8 5XiXiXiXiXiXiXiXiXiXiXiXiXiXiXiXiXiXiXiXiXiXiXiXiXiXiXiXiXiXiXiXiXiXiXiXiXiXiX4X7 Y 8 Y R I Y I 8 7 < 7 ",
"{ { } | } $.&.&.%.&.%.$.8XiXiXiXiXiXiXiXiXiXiXiXiXiXiXiXiXiXiXiXiXiXiXiXiXiXiXiXiXiXiXiXiXiXiXiXiXiXiX8X} $.%.$.&.%.$.$.} | { { ",
"4.>.-.` W _ &.7.$XOXOXXXqXiXiXiXiXiXiXiXiXiXiXiXiXiXiXiXiXiXiXiXiXiXiXiXiXiXiXiXiXiXiXiXiXiXiXiXiXiXiX8XI q &.+X$XOXOXXX1.4.XX4.",
";.-.` -.W 7 $.+X1.>.>.>.qXiXiXiXiXiXiXiXiXiXiXiXiXiXiXiXiXiXiXiXiXiXiXiXiXiXiXiXiXiXiXiXiXiXiXiXiXiXiX8XI + $.#X4.>.>.>.;.1.5.>.",
"-.-.-.` ` 8 { 4.-.-.-.<.1XqXqXqXqXqXqX8X8X7X8XwXqXqXqXqXqXqXqXqX8X7X7X5X7X9X6XrXrX7X8X8XqXqXqX8X8X8X8X1XW - } 4.-.-.-.-.;.;.-.-.",
"-.-.-.-.` 7 } _ ` -.-.-.;.W -.-.-.-.-.-.` 7 { 1.;.;.1.-.-.;.;.W W Y 5 4 J /.z.s > 7 W ` ` U Q Q Q Q Q Q E + { _ ` -.-.-.;.W -.-.",
"-.-.-.-.W < } ` -.-.;.W W W -.-.-.-.-.-.W < }  .-.-.>.W W -.Q W | k.m.f.V Z.S.H.9 U Q W I 8 W Q W Q Q Q I o { ` -.-.-.-.W E -.-.",
"E W ` Q I + { _ E T E T U _ E W E W ` ` U 7 } _ E T E E W  ...( J.S.A.N $ N Z.D.5 T W T = - W W I I W E 1 o { _ E E Q W 8 I Q  .",
"8 8 I - + 9 { E 7 < < 8 7 b # O - 8 I 7 < q $.E 7 ; 7 8 h Z f.f.K.Z.N N N N e # o - @ y.# = < < ; - : O o 3 @./ 7 ; < < < 8 Y 8 ",
"k { } k j F h j F { | { k I.k { { $.$.@.$.$.$.$.} | } O.j.n.n.d.z.e e M n.n.j.G j | l U.v k | F } { } { j @.| @.} j j j F O.L.{ ",
"/.3.*.E.'  .q 7 Y / _ W 0 Y.*.8.6.7.7.4.7.1.>.<.>. .` / A z.d.A.S.H.i.p m j.l.^ Y Y g L.f ( :.W >.,.X.:.R _ R /  ._ U 7 7 k /.3.",
"T.] T.E.' ,.L.! Y P.' I , U.y.' ^.6.>. .:. .:.-._ / ` / 4 i.z.g.K.s.!.5 R X.*.W.g I Y I.> L.6.E / W.! W I W / L._ W W 8 O p T.) ",
"Q.b a.Q.! ' T.E./ ~ n 8 = r.x Y ! P.../ L.~ W.^ / L.~ b u h.f.$ u w.a.x R U ' T.n Y ~ t.> t.*.Y ! R.g Y 8 R q t.g R ! y.@ q.Y.~ ",
"Q.0.w.Q.y./ ~ R.! t.p.g > y b 0 q t.b ! E.] T.v f t.p.x.Z.h.N * 4 4 c t q q ! I.q.g R.p.a q.t.g ! L.g z z W.f t.a y.g t.i U.Q.q.",
"r.i.w.a.w.t.g n z q.U.v I.i.c b z q.t.~ Y.v U.v 0 g r.D.Z.M N d.B a b s g y.z x v ~ Y.r.r.k v z R.p.g g t.Y.z U.e.t f U.u.w.a.y ",
"i.0.i.a.0.x z v r.c U.0.a.0.w.y r.w.i.q.U.c 0.t f v r.a @ J V n.N.9.t f s w.r.c U.p.c i.e.k v I.a.0.I.v 0.a.c U.e.t x U.y y r.t ",
"y y y i.t t r.y 0.r e.u.y c t t i.y 0.y a.0.r t r.0.t = = O.6 N b.9.r x t i.c a.!.y r u.y c r y i.y i.c a.y r i.y w.0.i.0.0.y r "
};