/* XPM */
static char *wall_g[] = {
/* columns rows colors chars-per-pixel */
"64 64 214 2 ",
"   c #2C5D21",
".  c #325D2A",
"X  c #325D2B",
"o  c #316226",
"O  c #316326",
"+  c #316227",
"@  c #316625",
"#  c #316725",
"$  c #306726",
"%  c #316727",
"&  c #316826",
"*  c #326B26",
"=  c #326A27",
"-  c #336A27",
";  c #336B27",
":  c #34632C",
">  c #35632E",
",  c #34692B",
"<  c #336F29",
"1  c #346E28",
"2  c #356F29",
"3  c #366E2C",
"4  c #357029",
"5  c #34702A",
"6  c #35702B",
"7  c #36702A",
"8  c #36712A",
"9  c #35722B",
"0  c #35732B",
"q  c #36722A",
"w  c #36732A",
"e  c #37722B",
"r  c #36732B",
"t  c #37732B",
"y  c #36742B",
"u  c #37742B",
"i  c #37752B",
"p  c #36762B",
"a  c #36742C",
"s  c #36752C",
"d  c #37772C",
"f  c #37762D",
"g  c #37772D",
"h  c #38742C",
"j  c #38752C",
"k  c #38762C",
"l  c #38772C",
"z  c #38772D",
"x  c #39772D",
"c  c #38772E",
"v  c #38782C",
"b  c #38792C",
"n  c #38782D",
"m  c #39782D",
"M  c #38792D",
"N  c #39792D",
"B  c #387A2D",
"V  c #397A2D",
"C  c #397B2D",
"Z  c #3A782F",
"A  c #397A2E",
"S  c #397A2F",
"D  c #3A7A2E",
"F  c #3A7B2E",
"G  c #3A7C2E",
"H  c #3A7D2E",
"J  c #3A7C2F",
"K  c #3A7D2F",
"L  c #3B7D2F",
"P  c #3A7E2E",
"I  c #3A7E2F",
"U  c #3B7E2F",
"Y  c #3B7F2F",
"T  c #396A32",
"R  c #3B7F30",
"E  c #3B7E31",
"W  c #3C7F30",
"Q  c #3C7F31",
"!  c #3B802F",
"~  c #3B812F",
"^  c #3C8030",
"/  c #3C8130",
"(  c #3C8031",
")  c #3D8031",
"_  c #3D8131",
"`  c #3C8230",
"'  c #3C8330",
"]  c #3D8231",
"[  c #3D8331",
"{  c #3C8032",
"}  c #3E8332",
"|  c #3D8431",
" . c #3E8432",
".. c #3E8532",
"X. c #3E8433",
"o. c #3F8433",
"O. c #3F8533",
"+. c #3E8632",
"@. c #3E8732",
"#. c #3F8633",
"$. c #3F8733",
"%. c #3E8833",
"&. c #3F8833",
"*. c #3E8933",
"=. c #3F8933",
"-. c #3F8A33",
";. c #3F8B33",
":. c #408634",
">. c #408734",
",. c #408834",
"<. c #408934",
"1. c #418935",
"2. c #408A34",
"3. c #408B34",
"4. c #418A35",
"5. c #418B35",
"6. c #418A36",
"7. c #428B36",
"8. c #408C34",
"9. c #408C35",
"0. c #418C35",
"q. c #418D35",
"w. c #418E35",
"e. c #418F35",
"r. c #428C36",
"t. c #428D36",
"y. c #438D37",
"u. c #428E36",
"i. c #428F36",
"p. c #438E37",
"a. c #428F37",
"s. c #438F37",
"d. c #448F38",
"f. c #429036",
"g. c #429136",
"h. c #439037",
"j. c #439137",
"k. c #429236",
"l. c #439237",
"z. c #439337",
"x. c #439437",
"c. c #449038",
"v. c #459039",
"b. c #459139",
"n. c #449238",
"m. c #449338",
"M. c #459339",
"N. c #449438",
"B. c #449538",
"V. c #459439",
"C. c #459539",
"Z. c #469439",
"A. c #449638",
"S. c #459639",
"D. c #459739",
"F. c #46943A",
"G. c #46953A",
"H. c #47953B",
"J. c #46963A",
"K. c #46973A",
"L. c #47963B",
"P. c #47973B",
"I. c #48973C",
"U. c #46983A",
"Y. c #46993A",
"T. c #47983B",
"R. c #47993B",
"E. c #479A3B",
"W. c #479B3B",
"Q. c #48983C",
"!. c #48993C",
"~. c #489A3C",
"^. c #489B3C",
"/. c #499B3D",
"(. c #489C3C",
"). c #499C3C",
"_. c #499C3D",
"`. c #499D3D",
"'. c #499E3D",
"]. c #4A9D3E",
"[. c #4A9E3E",
"{. c #4A9F3E",
"}. c #4A9E3F",
"|. c #4B9F3F",
" X c #4BA03F",
".X c #4BA13F",
"XX c #4BA23F",
"oX c #4CA040",
"OX c #4CA140",
"+X c #4CA240",
"@X c #4CA340",
"#X c #4DA341",
"$X c #4DA441",
"%X c #4DA541",
"&X c #4EA442",
"*X c #4EA542",
"=X c #4EA642",
"-X c #4EA742",
";X c #4FA643",
":X c #4FA743",
">X c #4FA843",
",X c #4FA943",
"<X c #50A944",
"1X c #50AA44",
"2X c #51AB45",
"3X c #51AC45",
"4X c #52AC46",
"5X c #52AD46",
"6X c #52AE46",
"7X c #53AE46",
"8X c #53AE47",
"9X c #53AF47",
"0X c #53B047",
"qX c #54B048",
/* pixels */
"5.H.p./ / p.b.H.H.H.H.H.H.p.b.p.L +.d.b.b.b.+.5.+.b.H.+.+.+.H.p.5.H.p./ / p.b.H.H.H.H.H.H.p.b.p.L +.d.b.b.b.+.5.+.b.H.+.+.+.H.f.",
"$X5X'.H.E.5X5X5X5X5X0X0X$XE.'.H.+.x.'.$X$X@XH.p.5.H..XH.f.H.'.p.'.5X'.H.E.5X5X5X5X5X0X0X$XE.'.H.+.x.'.$X$X@XH.p.5.H..XH.f.H.'.p.",
"/.@XH.H.H.2X@XE.$X,X5X$XH.E.'.p.+.f.H..X'.H.5./ L / E.E.f.'..X/ H.$XH.H.H.2X@XE.$X,X5X$XH.E.'.p.+.f.H..X'.H.5./ L / E.E.f.'..X+.",
"p.H.+.f.H.'.x.x.@X5X5XE.f.@X,X+./ x.f.f.f.f./ t t k p.f.f.E.E./ 5.H.+.f.H.'.x.f.@X5X5XE.f..X,X+./ x.f.f.f.f./ t t k p.f.f.E.E.+.",
"m.f.k L f.E.H.'.5X5X5X.XE.5X$X+./ x.f.S S S k i t t k / p.x.x.+.p.f.k L f.E.x.'.5X0X5X.XE.5X$X+./ x.f.S k S k i t t k / p.H.f.+.",
"5.f.k i +././.,X5X5X2XH./.5X$X+./ H.f.L L i S +.k j L / %.f.x./ +.f.k g +./.E.,X5X5X2XH./.5X$X+./ H.f.L L i S +.k i L / %.x.f.+.",
"H.E.+.p.f.$X/.E.E./..XH.'.5X$X%.p.E.f.p.L S +.f./ j 5.+.+.x.x.+.b.E.+.p.p.$X/.E.E./..XH.'.5X$X%.p.E.f.p.L S +.f./ i 5.+.+.x.x.+.",
"5.p.%.%.p.oX/.p.p.p.p.p.b.'.p.~ / p.%.+.t t t S i t %.%.+.%./ t +.p.%.%.p.oX/.p.p.p.p.p.b.'.p.~ / p.%.+.t t t S i t %.%.+.%./ 3 ",
"i g S E / L g t S ~ ~ S S 5.5.Q i S E +.5.+.~ S S L / ~ / 5.+.Q i g S E / S g t S ~ ~ S S 5.5.Q i S E +.5.+./ S S L / / / 5.>./ ",
"E.'.@X$XE.H.H.5.f.H.E.E..X5X5X$XH.'.$X,X'.'.H.H.H.H.'.'.$X0X5X$XE.'.@X$XE.H.H.p.f.H.E.E..X5X5X$XH.'.$X,X'.'.H.H.H.E..X'.$XqX5X$X",
"E.H.'.E.f.f.x.5.p.x.H.E..X5X'./.E.E.'.E.x.f.H.E.b.H.'.'.$X5X'.E.E.H.'.E.f.f.H.5.p.H.H.E..X5X'./.E.E.'.E.x.f.H.E.f.H.'.'.$X5X'.H.",
"E.E.f.p.f.p.x./ / x.'.2X5X5X'.'.H.E.f.p.f.p.H.+.+.H.@X5X5X5X/.'.E.E.f.p.f.p.x./ +.x.'.2X5X5X'.'.H.E.f.p.f.p.H.+.+.H.@X5X5X2X/.'.",
"E.f.p.+.f.f.H.5./ x..X5X5X@X@X'./.f.p.5.x.f.H.p.+.H.$X5X5X$X$X.X/.f.p.+.f.f.H.5./ f..X5X5X@X@X'.~.f.p.5.x.x.H.p.+.H.$X5X5X$X$X.X",
"f./ L S / %.H.p.p.H.$X0X5XH.'.'.m.L k L / p.H.f.f.H.2X0X5X.X'.'.f./ L S / %.H.p.p.H.$X5X5XH./.'.f.L k L / p.H.f.f.H.<X0X5X.X'.'.",
"f.S t j k p.5.L H.E..X5X,XH.H.E.f.S t t S p.p.Q E.'.$X5X2X/.E./.f.S i i k p.5.L H.E..X5X,XH.H.E.f.S t t S p.p.L E.'.$X5X2X/.E.'.",
"S 3 o o o @ @   S / E +./ L / L L i t t t i t - 5.b.5.p.+.L / L S 3 o o @ @ @   S / E +./ L / L L k t t t t t - 5.b.5.p.+.L / L ",
"X T > : , t t g g k g t t t g @ - S L L +.>.L S L / L L i < t @ X T > > , t t a g k k t t t g @ - S L L +.>.L S L / L L i < t - ",
"H.5X'.H.E.5X5X0X5X5X5X5X$XE.E.5.+.x.H..X$X$XE.p.+.H.E.H.x.x.'.5.b.5X'.H.E.5X5X5X5X5X5X5X$XE.E.5.+.H.H.XX$X$XE.p.+.H.E.H.x.x.'.p.",
"H.$XH.H.E.5X$X$X2X$X5X$XE.H.E.p.+.f.x..X'.H.f./ i / /.E.f.E.E./ d.$XH.H.E.5X$X$X2X$X5X$XE.H.E.p.+.x.H..X'.H.f./ i / /.E.f.E.E.+.",
"p.E.5.p.E.$XH.x.'.5X5XE.f.'.@X+./ x.f.f.f.f.+.i i k %.f.f./.E./ 5.E.5.p.E.$XH.f.'.5X5XE.f.'.@X+./ x.f.f.f.f.+.i i k %.f.f./.E.+.",
"5.f.k / H.E.H.E.2X5X5XoXH.2X,X+./ x.f.L S %./ t t t i L f.x.H./ >.f.S / H.E.H.E.2X0X5X@XH.2X,X+./ x.f.L S %./ t t t i L f.x.x.+.",
"5.f.k k 5.'.E.$X5X5X2X/.'.5X$X+.+.x.f.S S k L k t t k S %.f.x./ 5.f.k k 5.'.E.$X5X5X2X'.'.5X$X+.+.x.f.S S k L k t t k S %.f.f.+.",
"p.E./ / p.$X/.H./.@X$XH.'.5X$X%.f.H.f.%.S / +.p./ S p.+.+.x.x./ 5.E.~ / p.$X/.H./.@X$XH.'.5X$X%.f.H.f.%.S / +.p./ S p.+.+.x.x.+.",
"5.E.p.p.H.$X'.f.f.H./.f.E.@XH.%.p.H.p.p.k i S %.L S %.+./ p.p.S >.E.p.p.H.$X'.f.f.H./.f.E.@XH.%.p.H.p.p.k i S %.L S %.+./ p.p.S ",
"S L S / 5.+.L k i S S S / p.5.+./ / %.5.+.L L L L S L S / 5.%.L S L S / 5.+.L k i S S S / p.5.+./ / %.5.+.L L L L S L S / 5.%.L ",
"H.E.'.@XE.H.f.+.+.f.f.H./.2X5XXXH.E.@X$X'.E.H.H.H.f.H.H..X5X5X@XH.E.'.@XE.H.f.+.+.p.f.H./.2X5X.XH.E.@X$X'.E.H.H.H.f.H.H..X5X5X@X",
"E.H.'.E.f.x.H.5.%.x.E.E..X5X.X/.H.E..XE.f.f.E.E.b.H.'.'.@X5X.XE.H.E.'.E.f.f.H.5.%.H.E.E..X5X.XE.H.E..XE.f.f.E.E.H.H.'.'.@X5X.XE.",
"E.E.H.f.f.p.x./ / H.'.$X5X5XE.'.H.E.H.f.p.p.H.+.+.H.'.$X2X5XE.H.E.E.H.f.f.p.x./ / H.'.$X5X5XE.'.H.E.H.f.p.p.H.+.+.H..X$X2X5XE.H.",
"/.E.p.%.H.f.H.+./ H.@X5X5X$X.X/.E.H.p.%.H.f.H.p.+.x..X5X5X$X.XE.E.E.p.%.H.f.H.+./ H.@X5X5X$X.X/.E.H.p.%.H.f.x.p.+.x..X5X5X$X.X/.",
"f.+.L L %.p.H.5.+.H.$X0X5XE./.'.f.+.L L p.p.H.H.p.H.$X5X2XH.E.H.f.+.L L %.p.H.5.+.H.$X0X5XE./.'.f.+.L L p.p.H.H.p.H.$X5X2XE.E.H.",
"f.L i t L f.f.+.b.H.$X0X5XE.H./.f.k t t L f.f.+.H.H.$XqX2XH.H.E.f.L i t L f.f.+.b.H.$XqX5XE.H./.f.k t t L f.f.+.H.H.$X0X2XH.H./.",
"p.%./ S i / S - p.'.E.'.H.p.f.f.p.S t k k / / i b.'.E.'.E.f.f.f.p.%./ S i / S - p.'.E.'.H.p.f.f.p.S t k i / / i b.'.E.'.E.f.f.f.",
"p.H.p./ / 5.p.d.H.I.H.H.H.p.b.p./ +.p.d.p.p.+.+.+.H.H.+.+.+.H.p.5.H.p./ / 5.p.d.H.I.H.H.H.p.b.p./ +.p.d.p.p.+.+.+.H.H.+.+.+.H.f.",
"$X5X'.H.E.5X5X5X0X5XqXqX$XE.'.H.+.x.'.$X$X@XH.p.5.H..XH.f.H.'.p.'.5X'.H.E.5X5X5X0X5XqXqX$XE.'.H.+.x.'.$X$X@XH.p.5.H..XH.f.H.'.p.",
"/.@XH.H.H.2X@XE.$X,X5X$XH.E.'.p.+.x.H..X'.H.5./ L +.E.E.f.'..X+.H.$XH.H.H.2X@XE.$X,X5X$XH.E.'.p.+.x.H..X'.H.5./ L +.E.E.f.'..X+.",
"p.H.+.f.H.'.x.x.@X5X5XE.f..X,X+./ x.f.f.f.f./ t t k p.f.f.E.E./ 5.H.+.f.H.'.x.x.@X5X5XE.f..X,X+./ x.f.f.f.f./ t t k p.f.f.E.E.+.",
"f.f.k L f.E.H.'.5X5X5X.XE.5X$X+./ x.f.S k S k i t t k / p.x.x.+.p.f.k L f.E.H.'.5X5X5X.XE.5X$X+./ x.f.S k S k i t t k / p.x.x.+.",
"5.f.k k +././.,X5X5X2XH.'.5X$X+./ H.p.L L i S +.k i L / %.f.x./ +.f.k k +././.,X5X5X2XH.'.5X$X+./ H.p.L L i S +.k i L / %.f.f.+.",
"H.E.+.p.f.$X/.E.E./..XH.'.5X$X%.p.E.f.p.L S +.f./ i 5.+./ x.x./ f.E.+.p.f.$X/.E.E./..XH.'.5X$X%.p.E.f.p.L S +.f./ i 5.+./ x.x.+.",
"5.p.%.%.p.oX/.p.p.p.p.p.b.'.p.~ / p.%.+.t t t S i t %.%.+.%./ t +.p.%.%.p.oX/.p.p.p.p.p.b.'.p.~ / p.%.+.t t t S i t %.%.+.%./ 3 ",
"i g S E / L g t S ~ ~ S S 5.5.E i S E +.5.+./ S S L / / / 5.+.Q g g S E / L g t S ~ ~ S S 5.5.E i S E +.5.+./ S S L / / / 5.+./ ",
"E.'.@X$XE.H.H.5.f.H.E.E..X5X5X$XH.'.$X,X'.'.H.H.H.H..X'.$XqX5X$XE.'.@X$XE.H.H.5.f.H.E.E..X5X5X$XH.'.$X,X'.'.H.H.H.H..X'.$XqX5X$X",
"E.H.'.E.f.f.x.5.p.H.H.E..X5X'./.E.E.'.E.x.f.H.E.b.H.'.'.$X5X'.E.E.H.'.E.f.f.x.5.p.H.H.E..X5X'./.E.E.'.E.x.f.H.E.b.H.'.'.$X5X'.H.",
"E.E.f.p.f.p.x./ +.x.'.2X5X5X'.'.H.E.f.p.f.p.H.+.+.H.@X5X5X5X/.'.E.E.f.p.f.p.x./ +.x.'.2X5X5X'.'.H.E.f.p.f.p.H.+.+.H.@X5X5X5X/.'.",
"E.f.p.+.f.f.H.5./ f..X5X5X@X@X'.~.f.p.5.x.f.H.p.+.H.$X5X5X$X$X'.E.f.p.+.f.f.H.5./ f..X5X5X@X@X'.~.f.p.5.x.f.H.p.+.H.$X5X5X$X$X.X",
"f./ L S / %.H.p.p.H.$X0X5XH./.'.f.L k L / p.H.f.f.E.2X0X5X.X'.'.f./ L S / %.H.p.p.H.$X0X5XH./.'.f.L k L / p.H.f.f.E.2X0X5X'.'.'.",
"f.S i i k p.5.L H.E..X5X,XH.H.E.f.S t t S p.p.L E.'.$X5X2X/.E./.f.S t i k p.5.L H.E..X5X,XH.H.E.f.S t t S p.p.L E.'.$X5X2X/.E.'.",
"S 3 o o @ @ @   S / E +./ L / L L i t t t i t - 5.f.5.p.+.L / L S 3 o o @ @ @   S / E +./ L / L L i t t t i t - 5.f.5.p.+.L / L ",
"X T > > , t t a k S k t t t g @ - S L L +.5.L L L / L L i < t @ X T > > , t t g k S k t t t g @ - S L L +.5.L L L / L L i < t - ",
"H.5X'.H.E.5X5X5X5X5X5X5X$XE.E.5.+.x.H..X$X$XE.p.+.H.E.H.x.x.'.5.b.5X'.H.E.5X5X5X5X5X5X5X$XE.E.5.+.x.H..X$X$XE.p.+.H.E.H.x.x.'.p.",
"H.$XH.H.E.5X$X$X2X$X5X$XE.H.E.p.+.f.H..X'.H.f./ t / /.E.f.E.E./ b.$XH.H.E.5X$X$X2X$X5X$XE.H.E.p.+.f.H..X'.H.f./ t / /.E.f.E.E.+.",
"p.E.5.p.E.$XH.f.'.5X5XE.f.'.@X+./ f.f.f.f.f.+.i t k %.f.f./.E./ 5.E.5.p.E.$XH.f.'.5X5XE.f.'.@X+./ f.f.f.f.f.+.i t k %.f.f./.E.+.",
"5.f.S / H.E.H.E.2X5X5X.XH.2X,X+./ x.f.L S %./ t t t i L f.x.H./ 5.f.S / H.E.H.E.2X5X5X.XH.2X,X+./ x.f.L S %./ t t t i L f.x.x.+.",
"5.f.k i 5./.E.$X5X5X2X/.'.5X$X+.+.x.f.S S k L k t i k S %.f.f./ 5.f.k i 5./.E.$X5X5X2X/.'.5X$X+.+.x.f.S S k L k t i k S %.f.f.+.",
"p.E./ / p.$X/.H./.@X$XH.'.5X$X%.f.H.f.%.S / +.p./ S p.+.+.x.x./ 5.E./ / p.$X/.H./.@X$XH.'.5X$X%.f.H.f.%.S / +.p./ S p.+.+.x.x.+.",
"5.E.p.p.H.$X'.f.f.H./.f.E.@XH.%.p.H.p.p.k i S %.L S %.+./ p.p.S >.E.p.p.H.$X'.f.f.H./.f.E.@XH.%.p.H.p.p.k i S %.L S %.+./ p.p.S ",
"S L S / 5.+.L k i S S S / 5.5.+./ / %.5.+.L L L L S L S / 5.%.L S L S / 5.+.L k i S L S / 5.5.+./ / %.5.+.L L L L S L S / 5.%.L ",
"H.E.'.@XE.H.f.+.+.f.f.H./.2X5X.XH.E.@X$X'.E.H.H.H.f.H.H..X5X5X@XH.E.'.@XE.H.f.+.+.f.f.H./.2X5X.XH.E.@X$X'.E.H.H.H.f.H.H..X5X5X@X",
"E.H.'.E.f.x.H.5.%.H.E.E..X5X.X/.H.E..XE.f.f.E.E.x.H.'.'.@X5X.XE.H.H.'.E.f.x.H.5.%.H.E.E..X5X.X/.H.E..XE.f.f.E.E.x.H.'.'.@X5X.XE.",
"E.E.H.f.f.p.x./ / H.'.$X5X5XE.'.H.E.H.f.p.p.H.+.+.H..X$X2X5XE.H.E.E.H.f.f.p.x./ / H.'.$X5X5XE.'.H.E.H.f.p.p.H.+.+.H..X$X2X5XE.H.",
"/.E.p.%.H.f.H.+./ H.@X5X5X$X@X/.E.H.p.%.H.f.x.p.+.x..X5X5X$X.XE.~.E.p.%.H.f.H.+./ H.@X5X5X$X@X/.E.H.p.%.H.f.x.p.+.x..X5X5X$X.X/.",
"f.+.L L %.p.H.5.+.H.$X0X5XE./.'.b.+.L L p.p.H.H.p.H.$X5X2XE.E.H.f.+.L L %.p.H.5.+.H.$X0X5XE./.'.b.+.L L p.p.H.H.p.H.$X5X2XE.E.H.",
"f.L i t L f.f.+.b.H.$X0X5XE.H./.f.k t t L f.f.+.H.H.$X0X2XH.H.E.f.L i t L f.f.+.b.H.$X0X5XE.H./.f.k t t L f.f.+.H.H.$X0X2XH.H.E.",
"x.p./ L k +.L - H.@X'.XX'.x.f.x.f.L i S k +./ t H.@X/..X'.H.f.x.f.p./ L k +.L - H.@X'.XX'.x.f.x.f.L i S k +./ t H.@X/..X'.H.f.x."
};
