/* XPM */
static char *wall_r[] = {
/* columns rows colors chars-per-pixel */
"64 64 155 2 ",
"   c #660D0D",
".  c #7C0606",
"X  c #710B06",
"o  c #7A0B06",
"O  c #770C0C",
"+  c #7B0B0B",
"@  c #6A130F",
"#  c #6C1614",
"$  c #751515",
"%  c #7C1616",
"&  c #771818",
"*  c #7D1A1A",
"=  c #850606",
"-  c #8B0505",
";  c #850C0C",
":  c #8C0D0D",
">  c #930505",
",  c #9D0505",
"<  c #930C0C",
"1  c #9B0B0B",
"2  c #841414",
"3  c #861515",
"4  c #871515",
"5  c #841717",
"6  c #851717",
"7  c #841414",
"8  c #881111",
"9  c #8B1010",
"0  c #8A1111",
"q  c #891212",
"w  c #881313",
"e  c #891313",
"r  c #8A1212",
"t  c #8E1010",
"y  c #8F1010",
"u  c #881414",
"i  c #8A1212",
"p  c #801919",
"a  c #821818",
"s  c #82191A",
"d  c #811A1A",
"f  c #811919",
"g  c #921010",
"h  c #A00000",
"j  c #A10303",
"k  c #A30202",
"l  c #A20303",
"z  c #A30303",
"x  c #A40101",
"c  c #A50101",
"v  c #A60000",
"b  c #A70000",
"n  c #A60101",
"m  c #A70101",
"M  c #A50202",
"N  c #A40203",
"B  c #A40303",
"V  c #A60202",
"C  c #A70202",
"Z  c #A60303",
"A  c #A00505",
"S  c #A20404",
"D  c #A20606",
"F  c #A60505",
"G  c #A70505",
"H  c #A50606",
"J  c #A40707",
"K  c #A70606",
"L  c #A40202",
"P  c #A80000",
"I  c #A90000",
"U  c #A80101",
"Y  c #A90101",
"T  c #AA0000",
"R  c #AB0000",
"E  c #AA0101",
"W  c #AB0101",
"Q  c #A80202",
"!  c #A90202",
"~  c #A90303",
"^  c #AB0303",
"/  c #AC0000",
"(  c #AD0000",
")  c #AC0101",
"_  c #AD0101",
"`  c #AE0000",
"'  c #AF0000",
"]  c #AE0101",
"[  c #AF0101",
"{  c #AF0303",
"}  c #A80606",
"|  c #A90606",
" . c #AA0606",
".. c #AC0606",
"X. c #AF0606",
"o. c #AB0101",
"O. c #A00808",
"+. c #A10808",
"@. c #A20909",
"#. c #A30909",
"$. c #A00B0B",
"%. c #A10B0B",
"&. c #A30A0A",
"*. c #A40808",
"=. c #A50808",
"-. c #A50B0B",
";. c #A30C0C",
":. c #A40C0C",
">. c #A50C0C",
",. c #A60C0C",
"<. c #A70C0C",
"1. c #A20B0B",
"2. c #A90909",
"3. c #AA0C0C",
"4. c #AA0B0B",
"5. c #B00000",
"6. c #B10000",
"7. c #B20000",
"8. c #B30000",
"9. c #B20101",
"0. c #B00303",
"q. c #B40000",
"w. c #B50000",
"e. c #B40101",
"r. c #B50101",
"t. c #B60000",
"y. c #B70000",
"u. c #B40101",
"i. c #B80000",
"p. c #B90000",
"a. c #B80101",
"s. c #BA0000",
"d. c #BB0000",
"f. c #BB0101",
"g. c #BC0000",
"h. c #BD0000",
"j. c #BE0000",
"k. c #BF0000",
"l. c #BB0000",
"z. c #C00000",
"x. c #C10000",
"c. c #C20000",
"v. c #C30000",
"b. c #C40000",
"n. c #C50000",
"m. c #C60000",
"M. c #C70000",
"N. c #C30000",
"B. c #C80000",
"V. c #C90000",
"C. c #CA0000",
"Z. c #CB0000",
"A. c #CC0000",
"S. c #CD0000",
"D. c #CA0000",
/* pixels */
"1 3.$.- < :.:.3.3.3.3.3.3.:. ., r 1 :.:.:.:.1 , < H  .1 1 1 X., < 3.$.< < :.-.4.3.3.3.3.3.:. ., r 1 :.:.:.:.1 , < H  .1 1 1 X., ",
"y.C.d.R y.C.C.C.A.C.A.A.m.d.h.R < R d.m.z.z.9.A > R z.9.( y.h.$.9.C.d.R y.C.C.C.C.C.A.A.m.d.h.R < R d.m.m.z.9.l > R h.9.9.y.h.$.",
"X.z.( 9.9.C.z.d.m.m.C.z.y.d.h.$.< m ( h.d.( , ; w < y.y.( h.h.< 4.z.( 9.9.C.z.d.m.m.C.z.y.d.h.$.< m ( h.d.( , ; w < y.y.( h.h.< ",
"-.9.< l 9.d.( 9.z.C.C.y.9.h.m.1 < m m m m R < & & 2 A ( ( y.y.< 1 9.< l 9.d.( 9.z.C.C.y.9.z.m.1 < m m m m R < & & % A R ( y.y.< ",
"R l % r R d.9.h.C.C.C.h.d.C.m.1 : R l 6 6 w 2 % $ $ 2 : A 9.( < A l % r R d.( h.C.C.C.h.d.C.m.1 : R l 6 6 6 2 % $ $ 2 : A 9.( < ",
"1 l % p < d.d.m.C.C.m.y.d.C.m.1 < R l r r % 2 < % % w r 1 ( R < 1 l % p < d.d.m.C.C.m.y.d.C.m.1 < R l u r % 2 < % % w r 1 ( R 1 ",
" .y.< , H z.d.d.d.d.h.y.h.C.z.1 $.y.R , r 2 < m : * , < < ( R < -.y.< , H z.d.d.d.d.h.y.h.C.z.1 $.y.m , r 2 < m : * 1 < < ( R < ",
", R , , m d.y.R R R R R ( d.R < < m , < * $ % w % * > , > l > $ , R , , m d.y.R ( R R R ( d.R < < R , < & $ & w % % > , > l > $ ",
"- - > > , > - ; ; > > - > , , > - > > , 1 < < ; ; - > > > , , > - - > > > > - ; ; > > - > , , > - > > , 1 < < ; ; - > > > , , > ",
"d.h.z.m.d.9.( $.H ( y.y.h.C.C.z.y.h.m.m.h.d.9.( ( 9.h.h.m.A.A.m.d.h.z.m.d.9.( $.H ( y.y.h.C.C.z.y.h.m.m.h.d.9.( ( 9.h.h.m.A.A.m.",
"y.9.h.y.m m ( 1 , ( y.y.h.C.h.d.y.9.h.y.m m 9.( R 9.h.h.m.C.h.d.y.9.h.y.m m ( 1 , ( y.d.h.C.h.d.y.9.h.y.m m 9.( R 9.h.h.m.C.h.y.",
"y.y.m A m , R < < R d.m.C.C.h.h.9.y.m , m A R < < ( z.C.C.C.d.d.y.y.m A m , R < < R d.m.C.C.h.h.9.y.m , m , R < < ( z.C.C.C.d.h.",
"y.R , < R m ( 1 < R h.C.C.z.z.h.y.m , , R m ( $.< ( z.C.C.z.z.h.y.R , < R m ( 1 < R h.C.C.z.z.h.y.m , , R m ( -.< ( z.C.C.z.z.z.",
"m y w 6 y 1 ( $., ( z.C.C.y.d.h.m r p r < , ( H l 9.m.A.C.h.h.d.R y r 6 y 1 ( $., ( z.C.C.y.d.h.m r p r < , ( H l 9.m.A.C.h.h.h.",
"m 6 * p p , 1 ; R y.z.C.m.y.9.d.m 6 * * 6 , A : ( d.m.C.C.d.y.y.m 6 * p p , 1 ; R y.z.C.m.y.9.y.m 6 * * 6 , A : ( d.z.C.C.d.y.d.",
"; $ # # # $ $   ; 1 < 1 < < < - ; % & & % % % $ , A 1 $.1 < < ; ; $ # # # $ $   ; 1 < 1 < < < - ; % & & % % % $ , H 1 $.1 < < - ",
"@ o o X o = - - - - - - - - - O O - - < > 1 - ; - > < - = . = O # o o X o = - - - - - - - - - O O - - < > 1 - - - > < - = . = + ",
"4.C.h.R 9.C.C.A.A.C.C.C.z.d.d.1 < R 9.z.m.m.y., < ( d.R R R d.1 :.A.h.R 9.C.C.A.C.C.C.C.z.d.d.1 < R 9.z.m.m.y., < ( d.R R R d.;.",
"3.z.9.( 9.C.m.z.m.z.C.m.y.y.d.$.< m ( h.h.9.m : * < d.9.m 9.y.< :.m.9.( 9.C.m.z.m.m.C.m.d.y.d.$.< m ( h.h.9.m : * < d.9.m 9.y.< ",
";.y., l y.z.9.9.h.C.C.y.9.d.z.1 : R R R m m < % $ % 1 R m y.y.< 1 y., l y.z.9.9.h.C.C.y.9.d.z.1 : m R R m m < % $ % 1 R m y.y.< ",
";.m 2 < R y.( d.C.C.C.z.y.m.m.1 < R l y 6 < : $ $ $ * r l R R < 1 m 2 < R y.( d.C.C.C.h.y.m.m.1 < R l y 6 < : $ $ $ * r l R R < ",
";.l % * 1 d.d.z.C.C.C.d.h.C.m.1 < R l 6 2 % 2 2 $ $ % 2 1 ( R < 1 l % * 1 d.d.z.C.C.C.d.h.C.m.1 < R l 6 2 % 2 2 $ $ % 2 1 ( R < ",
";.9.y < A z.d.y.d.z.z.y.h.C.m.1 H 9.m 1 6 ; < A : 2 , < < R R < 1 9.y < A z.d.y.d.z.z.y.h.C.m.1 A 9.m 1 6 ; < A : 2 , < < R R < ",
"1 9., l ( x.d.9.9.y.y.( y.h.y.1 $.9.l , % % 2 < w 2 1 1 < l , % 1 9., l ( z.d.( 9.y.y.( e.f.e.1 $.9.l , % % w < r 2 1 1 < l , ; ",
"; r w : 1 g u 6 2 u u 6 g 1 1 < : g 1 1 < - ; r w 6 r 6 : 1 < - ; r w : 1 g u 6 2 u u 6 g 1 1 < : g 1 1 < ; ; w w 6 r 6 : 1 < - ",
"9.y.a.h.y.9.R 1 1 m R ( d.m.C.h.( y.z.z.d.y.9.R R ( 9.9.h.C.C.h.9.y.d.h.y.9.R 1 1 m R ( d.m.m.h.( y.z.z.d.y.9.R R ( 9.y.h.C.m.h.",
"y.y.h.y.R R ( 1 1 ( d.d.h.C.h.d.y.y.z.y.R R 9.9.R 9.h.h.z.C.h.d.y.y.h.y.R R ( 1 1 ( d.d.h.C.h.d.y.y.z.y.R R 9.9.R 9.h.h.z.C.h.d.",
"y.y.( m l A R < < ( h.m.C.C.d.d.y.d.9.m , , R < < ( h.m.C.C.d.y.y.y.( m l A R < < ( h.m.C.C.d.d.y.d.9.m , , R < < ( h.m.C.C.d.y.",
"d.9., 1 ( m ( < : ( z.C.C.m.z.d.d.( , 1 ( m ( 1 < ( h.C.C.m.h.d.d.9., 1 ( m ( < : ( z.C.C.m.z.d.d.( , 1 ( R ( 1 < ( h.C.C.m.h.d.",
"R < u r 1 , 9.1 < ( z.C.C.d.d.h.R < u r , A 9.( A 9.z.C.m.y.d.y.R < u r 1 , 9.1 < 9.z.C.C.d.d.h.R < u r A A 9.( A 9.z.C.m.y.d.y.",
"m r * * r m m < H 9.z.A.C.d.y.d.l p * * y R R < ( y.z.A.m.y.y.d.R r * * r m m < H 9.z.A.C.d.y.d.l p * * y R m < ( y.z.A.m.y.y.d.",
"l , ; 6 p : r $ $.d.y.e.0. .( R , 6 * p p < : % -.d.y.a.y. .( m l 1 : 6 p : r $ $.d.y.y.9. .( R A u * p p < : $ -.d.y.a.y.R ( R ",
"1 4.1 < < 1 ;.;.3.4.4.4.4.-. ., : 1 ;.;.;.;.1 1 1  . .1 1 1 X., < 4.1 < < 1 ;.;.3.4.4.4.4.-. ., : 1 ;.;.;.;.1 1 1  . .1 1 1 X.A ",
"d.C.d.R y.C.A.C.A.C.A.A.m.d.h.R < R d.m.m.z.9.l > R z.9.9.y.h.$.9.C.d.R y.C.A.C.A.C.A.A.m.d.h.R < R d.m.m.z.9.l > R z.9.9.y.h.$.",
"X.z.( 9.9.C.z.d.m.m.C.z.y.d.h.$.< m ( h.d.( , ; w < y.y.( h.h.< 4.z.( 9.9.C.z.d.m.m.C.z.y.d.h.$.< m ( h.d.( , ; w < y.y.( h.h.< ",
"-.9.< l 9.d.( 9.z.C.C.y.9.z.m.1 < R m m m R < & & % A R ( y.y.< 1 9.< l 9.d.( 9.z.C.C.y.9.z.m.1 < R m m m R < & & % A R ( y.9.< ",
"m l % r R d.( h.C.C.C.h.d.C.m.1 : R l u 6 6 2 % & $ % : A 9.( < A l % r R d.( h.C.C.C.h.d.C.m.1 : R l u 6 6 2 % & $ % : A 9.( < ",
"1 l % p < d.d.m.C.C.m.y.d.C.m.1 < R l r r % 2 < % % w r 1 ( R < 1 m % p < d.d.m.C.C.m.y.d.C.m.1 < R l r r % 2 < % % w r 1 ( R 1 ",
" .y.< , H z.d.d.d.d.h.y.h.C.z.1 $.y.m , r 2 < m : * 1 < < ( R < -.y.< , H z.d.d.d.d.h.y.h.C.z.1 $.y.m , r 2 < m : * 1 < < ( R < ",
", R , , R d.y.R ( R R R ( d.R < < m , < & $ % w % % > , > l > $ , R , , m d.y.R ( R R R ( d.R < < m , < & $ % w % % > , > l > $ ",
"- - > > > > - ; ; > > - > , , > - > > , 1 < < ; ; - > > > , , > - - > > > > - ; ; > > - > , , > - > > , 1 < < ; ; - > > > , , > ",
"d.h.z.m.d.9.( $.H ( y.y.h.C.C.z.y.h.m.m.h.d.9.( ( 9.h.h.m.A.A.m.d.h.z.m.d.9.( $.H ( y.y.h.C.C.z.y.h.m.m.h.d.9.( ( 9.h.h.m.A.A.m.",
"y.9.h.y.m m ( 1 , ( y.y.h.C.h.d.y.y.h.y.m m 9.( R 9.h.h.m.C.h.d.y.9.h.y.m m ( 1 , ( y.y.h.C.h.d.y.y.h.y.m m 9.( R 9.h.h.m.C.h.y.",
"y.y.m A m , R < < R d.m.C.C.h.h.y.y.m , l , R < < ( z.C.C.C.d.d.y.y.m A m , R < < R d.m.C.C.h.h.y.y.m , l , R < < ( z.C.C.C.d.h.",
"y.R , < R m ( 1 < R h.C.C.z.z.h.y.m , , R m ( -.< ( z.C.C.z.z.h.y.R , < R m ( 1 < R h.C.C.z.z.h.y.m , , R m ( -.< ( z.C.C.z.z.h.",
"m y r u y 1 ( $., ( z.A.C.y.d.h.m r p r < , ( H l 9.m.C.C.h.h.h.R y r u y 1 ( $., ( z.A.C.y.d.h.m r p r < , ( H l 9.m.C.C.h.h.h.",
"m 6 * p p , 1 ; R y.z.A.m.y.9.y.m 6 * * 6 , A : ( d.m.C.m.d.y.y.m 6 * p p , 1 ; R y.z.A.m.y.9.y.m 6 * * 6 , A : ( d.m.C.m.d.y.d.",
"; $ # # # $ $   - 1 < 1 < < < - ; % & & % % % $ , H 1 $.1 < < ; ; $ # # # $ $   - 1 < 1 < < < - ; % & & % % % $ , H 1 $.1 < < - ",
"@ o o X o = - - - - - - - - - O O - - > > 1 - - - > < - = . = O # o o X o = - - - - - - - - - O O - - > > 1 - - - > < - = . = + ",
"3.C.h.R 9.C.C.A.C.C.C.C.z.d.d.1 < R 9.z.m.m.y., < ( d.R R R d.1 :.C.h.R 9.C.C.A.C.C.C.C.z.d.d.1 < R 9.z.m.m.y., < ( d.R R R d.;.",
"3.z.9.( 9.C.m.z.m.m.C.m.d.y.d.$.< m ( h.h.9.m : * < d.9.m 9.y.< ;.z.9.( 9.C.m.z.m.m.C.m.d.y.d.$.< m ( h.h.9.m : * < d.9.m 9.y.< ",
";.y., l y.z.9.9.h.C.C.y.9.d.z.1 : R R R m m < % $ % 1 R m y.y.< 1 y., l y.z.9.9.h.C.C.y.9.d.z.1 : R R R m m < % $ % 1 R m y.y.< ",
";.m 2 < R y.( d.C.C.C.h.y.m.m.1 < R l y 6 < : $ $ $ * r l R R < 1 m 2 < R y.( d.C.C.C.h.y.m.m.1 < R l y 6 < : $ $ $ * r l ( R < ",
";.l % * 1 d.d.z.C.C.C.d.h.C.m.1 < R l 6 2 % 2 2 $ $ % 2 1 ( R < 1 l % * 1 d.d.z.C.C.C.d.h.C.m.1 < R l 6 2 % 2 2 $ $ % 2 1 ( R < ",
":.9.y < A z.d.y.d.z.z.y.h.C.m.1 H 9.R 1 6 ; < A : 2 , < < R R < 1 9.y < A z.d.y.d.z.z.y.h.C.m.1 H 9.R 1 6 ; < A : 2 , < < R R < ",
"1 9., l ( z.d.9.9.e.y.( y.h.y.1 $.9.l , % % 2 < w 2 1 1 < l , % 1 9., l ( z.d.9.9.e.y.( y.h.y.1 $.9.l , % % 2 < w 2 1 1 < l , ; ",
"; r w : 1 g u 6 2 u w 6 g 1 1 < : g 1 1 < - ; r w 6 r 6 : 1 < - ; u w : 1 g u 6 2 u w 6 g 1 1 < : g 1 1 < - ; r w 6 r 6 : 1 < - ",
"9.e.a.h.y.9.R 1 1 m R ( d.m.m.h.( y.z.z.d.y.9.R R ( 9.0.h.m.C.h.9.e.a.h.y.9.R 1 1 m R ( d.m.m.h.( y.z.z.d.y.9.R R ( 9.0.h.C.m.h.",
"y.y.h.y.R R ( 1 1 ( d.d.h.C.h.d.y.y.h.y.R R 9.9.R 9.h.h.z.C.h.d.y.y.h.y.R R ( 1 1 ( d.d.h.C.h.d.y.y.h.y.R R 9.9.R 9.h.h.z.C.h.d.",
"y.y.( m l A R < < ( h.m.C.C.d.d.y.d.9.m , , R < < ( h.m.m.C.d.y.y.y.( m l A R < < ( h.m.C.C.d.d.y.d.9.m , , R < < ( h.m.m.C.d.y.",
"d.9., 1 ( m ( < : ( z.C.C.m.z.d.d.( , 1 ( m ( 1 < ( h.C.C.m.h.d.d.9., 1 ( m ( < : ( z.C.C.m.z.d.d.( , 1 ( m ( 1 < ( h.C.C.m.h.d.",
"R < u r 1 , 9.1 < 9.z.C.C.d.d.h.R < u r , A 9.( A 9.z.C.m.d.d.y.R < u r 1 , 9.1 < 9.z.C.C.d.d.h.R < u r , A 9.( A 9.z.C.m.d.d.y.",
"m r * * r m m < H 9.z.A.C.d.y.d.l p * * y R m < ( y.z.A.m.y.y.d.R r * * u m m < H 9.z.A.C.d.y.d.l p * * y R m < ( y.z.A.m.y.y.d.",
"m , : 6 p < r $ H z.h.h.d.9.9.( m r * 2 p < < %  .z.d.z.h.9.9.( m , : 6 p < y $ H z.h.h.d.9.9.( m r * 2 p < < %  .z.d.z.h.9.9.( "
};
