/* XPM */
static char *wall_gray[] = {
/* columns rows colors chars-per-pixel */
"64 64 61 1 ",
"  c #2E2E2E",
". c #303030",
"X c #313131",
"o c #333333",
"O c #343434",
"+ c #353535",
"@ c #363636",
"# c #373737",
"$ c #383838",
"% c #393939",
"& c #3A3A3A",
"* c #3B3B3B",
"= c #3C3C3C",
"- c #3D3D3D",
"; c #3E3E3E",
": c #3F3F3F",
"> c #404040",
", c #414141",
"< c #424242",
"1 c #434343",
"2 c #444444",
"3 c #454545",
"4 c #464646",
"5 c #474747",
"6 c #484848",
"7 c #494949",
"8 c #4A4A4A",
"9 c #4B4B4B",
"0 c #4C4C4C",
"q c #4D4D4D",
"w c #4E4E4E",
"e c #4F4F4F",
"r c #505050",
"t c #515151",
"y c #525252",
"u c #535353",
"i c #545454",
"p c #555555",
"a c #565656",
"s c #575757",
"d c #585858",
"f c #595959",
"g c #5A5A5A",
"h c #5B5B5B",
"j c #5C5C5C",
"k c #5D5D5D",
"l c #5E5E5E",
"z c #5F5F5F",
"x c #606060",
"c c #616161",
"v c #626262",
"b c #636363",
"n c #646464",
"m c #656565",
"M c #666666",
"N c #676767",
"B c #686868",
"V c #696969",
"C c #6A6A6A",
"Z c #6B6B6B",
"A c #6C6C6C",
/* pixels */
"wgy22ysggggggsy92wsssswwwssywwsw9gy22ysggggggsy92wsssswwwssyywsw",
"lCgysCCCCCCCNlgy9ygvvvsw9svgsgvygCgysCCCCCCANlgy9ygvvlsw9svgsgly",
"gvysgCvlNNCNggly9wslgsw219ggsvv9svysgCvlNNCNggly9wslgsw219ggsvv9",
"ys9wslsgvCClgvNw9wwwwy9-%1wssgg2ws9wslsgvCClgvNw9wwwwy2-%1wssgg2",
"yw12ygsvCCCvlCvw2ww2221-%-12yss9yw12ygsvCCCvlCvw2ww2221-%%12wss9",
"ww119glNCCNllCNw2yw22-19--12wsywww119glNCCNllCvw2yw22-19--12wsyw",
"ys99yvllllvglCvwwsyw219y2-w99sy9yg99yvllllvglCvwwgyw219y21w99sy9",
"wy99yvgsssssgls99y92-%-11-99292%9s99yvgsssssgls99y921%-11-99292%",
"1129991-12212ww21129w92111119w921129991-12212ww21129w92111129w92",
"gglNlgswyygglCCvggvNlgssssggvACvgglNlgswyygglCCvggvNlgssssggvACN",
"gsggywywwsglvClgssgswwssysllvCllgsgsywywwsglvCllssgswyssysllvCll",
"sgywwww99ylCCClgsgywwwy99ylCCClgsgywwww99ylCCClgsgywwwy99ylCCClg",
"gyw9ywsy9ylCCvvgsywwywsy9svCCvvggyw9ywsy9ylCCvvgsywwywsy9svCCvvg",
"w22299yywsvCClggw2229wsywsNAClggy22299yywsvCClggw2229wsywsNCClgg",
"w2122ww2ygvCNgsgw2112ww2sgvCNggsw2122ww2ygvCNgsgw2112ww2sgvCNggg",
"-%oo+++ 2w9999221------+9ywww991-%oo+++ 2w9992221------+9ywww991",
"o%+o+-111111111%%122992-1221-%-%o%+o+-111222111%%122992-1221-%-%",
"gClysCCCCCCCNllw2yslvvgw9sgyyygwsClysCCCCCCCNllw2yslvvgw9sgyyygy",
"gvsysCNvNvCNlglw2wsllsw219gswsg9svsysCNvNvCNlglw2wsllsw219gswsg9",
"ygwwsvgglCClgvvw2wyyyw9-%1wywgs2wgwwsvgglCClgvvw2wyyyw9-%1wywgs9",
"yy12ygslCCCvgNNw2ww2292-%%12wyy9wy19ygslCCCvgNNw2ww2292-%%12wyy9",
"ww-1wggNCCNllCvw9yw22-11-%12wsy9ww-19ggNCCNllCNw9yw21-11-%12wsy9",
"ys22yvlllvvglCvwysy9229w21ww9yy9ws22wvlllvvglCvyysy9229w21ww9yy9",
"ygwwsNvggggglvgwwsww1-19219w2w9-wgw9sNvggggglvgwwgww1-1921992w91",
"1222w99112229ww929w92111112229911222w99112229ww929w9211111222991",
"gglvgsywwyysgNClsglvggsyyssglCCvgglvgsywwyysgNNlsglvggsyysgglCNv",
"gglgyyswwsggvCvlgglgyyssysggvCvlgglgyyswwsggvCvggglgyyssysggvCvl",
"ggswwwy99slvCClgggswwwy99slvNClgggswwwy99slvCClgglswwwy99slvNClg",
"lsw9ywy92ylCCNlggyw9yysw9yvCCvlglsw9ywy92ylCCNlggyw9yysw9ylCCvlg",
"y9229wsy9svCCllgy922wwsswsvCNgggy922wwsy9svCCllgy922wwsswsvCNlgg",
"y2112wy9yyvAClggw1112yy9ygvANgggy2112wy9yyvAClggw2112yy9ygvANggg",
"w921192+ygglgssyw212292-slglgssyw921192+ygglgssyw211192-slglgssy",
"wgy22yysgggggyy99wyyyywwwssyywswwgy22yysgggggsy99wyyyywwwssyywsw",
"lClysCCCCCCANlgy9ygvvvsw9svgslvygCgysCCCCCCANlgy9ygvvvsw9svgslvy",
"gvysgCvlNNCNggly9wslgsw219ggsvv9svyssCvlNNCNggly9wslgsw219ggsvv9",
"ys9wslsgvCClgvNw9wwwwy9-%1wssgg2ws9wslsgvCClgvNw9wwwwy9-%1wssgg2",
"yw12ygsvCCCvlCNw2yw2221-%%12ygs9yw12ygsvCCCvlCNw2yw2221-%%12ygs9",
"ww119glNCCNllCNw2yw22-19--12wsywww119glNCCNllCvw2yw22-19--12wsyw",
"yg9wyvllllvglCvwwgyw219y2-w99sy9yg9wyvllllvglCvwwgyw219y2-w99sy9",
"wy99yvgsssssgls99y92-%-11-99292%9s99yvgsssssgls99y92-%-11-99292%",
"1129991-12212ww21129w92111129w921129991-12212ww21129w92111129w92",
"gglNlgswyygglCCvggvNlgssssggvACvgglNlgswyygglCCvggvNlgssssggvACN",
"gsgswwywwsglvClggsgswyssysllvClggsgswwywwsglvClggsgswyssysllvClg",
"sgywwww99ylCCClgsgywwwy99ylCCClgsgywwww99ylCCClgsgywwwy99ylCCClg",
"gyw9ywsy9yvCCvvgsywwywsy9svCCvvggyw9ywsy9yvCCvvgsywwywsy9svCCvvg",
"w22299yywsvCClggw2229wyywsNCClggy22299yywsvCClggw2229wyywsNCClgg",
"w2122ww1ygvCNgsgw2112ww2sgvCNgggw2122ww1ygvCNgsgw2112ww2sgvCNggg",
"-%o++++ 2w9w99221------+9ywww991-%o++++ 2w9w99221------+9ywww991",
"o%+o+-111221111%%1229w2-1221-%-%o%+o+-111221111%%1229w2-1221-%-%",
"gClysCCCCCCCNllw2yslvvgw9sgyyygwsClysCCCCCCCNllw2yslvvgw9sgyyygy",
"gvsysCNvNNCNlglw2wsllsw219gswsg9svsysCNvNNCNlglw2wsllsw219gswsg9",
"ygwwsvgglCClgvvw2wyyyw9-%1wywgs2wgwwsvgglCClgvvw2wyyyw9-%1wywgs9",
"yy12ygslCCCvgNNw2ww2292-%%12wyy9wy12ygslCCCvgNNw2ww2292-%%12wyy9",
"ww-1wggNCCNllCvw9yw22-11-%12wsy9ww-1wggNCCNllCvw9yw22-11-%12wsy9",
"ys22yvlllvvglCvwysw9229w21999yy9ws22yvlllvvglCvwysw9229w21ww9yy9",
"ygwwsNvggggglvgwwsww1-19219w2w9-wgwwsNvggggglvgwwsww1-1921992w91",
"1222w99112229ww929w92111112229911222w99112229ww929w9211111222991",
"gglvgsywwyysgNClsglvggsyyssglCNvgglvgsywwyysgNClsglvggsyyssglCNv",
"gglgyyswwsggvCvggglgyyssysggvCvlgglgyyswwsggvCvggglgyyssysggvCvl",
"ggswwwy92slvCClgglswwwy99slvNClgggswwwy92slvCClgglswwwy99slvNClg",
"lsw9ywy92yvCCNlggyw9yysw9ylCCvlglsw9ywy92yvCCNlggyw9yysw9ylCCvlg",
"y922wwsy9svCClggy922wwsswsvCNllgy922wwsy9svCClggy922wwsswsvCNllg",
"y2112wy9ysvCClggw1112yy9ygvCNgggy2112wy9ysvCClggw1112yy9ygvCNggg",
"ww22292+sllvlsgsw212299-svlvlsgsww22292+sllvlsgsw212299-svlvlsgs"
};
