/* XPM */
static char *wall_b[] = {
/* columns rows colors chars-per-pixel */
"64 64 104 2 ",
"   c #000067",
".  c #03036B",
"X  c #03036C",
"o  c #02026E",
"O  c #09096A",
"+  c #0B0B6A",
"@  c #09096D",
"#  c #000073",
"$  c #000074",
"%  c #000076",
"&  c #0B0B72",
"*  c #000078",
"=  c #000079",
"-  c #00007A",
";  c #00007B",
":  c #01017B",
">  c #03037A",
",  c #050578",
"<  c #00007D",
"1  c #00007E",
"2  c #00007F",
"3  c #0B0B7B",
"4  c #000080",
"5  c #000081",
"6  c #000082",
"7  c #000083",
"8  c #000084",
"9  c #000085",
"0  c #000086",
"q  c #000087",
"w  c #010187",
"e  c #000088",
"r  c #000089",
"t  c #00008A",
"y  c #00008B",
"u  c #00008C",
"i  c #00008D",
"p  c #03038D",
"a  c #00008E",
"s  c #00008F",
"d  c #03038E",
"f  c #000090",
"g  c #000091",
"h  c #000092",
"j  c #000093",
"k  c #000094",
"l  c #000095",
"z  c #000096",
"x  c #000097",
"c  c #000098",
"v  c #000099",
"b  c #00009A",
"n  c #00009B",
"m  c #00009C",
"M  c #00009D",
"N  c #00009E",
"B  c #00009F",
"V  c #0000A0",
"C  c #0000A1",
"Z  c #0000A2",
"A  c #0000A3",
"S  c #0000A4",
"D  c #0000A5",
"F  c #0000A6",
"G  c #0000A7",
"H  c #0000A8",
"J  c #0000A9",
"K  c #0000AA",
"L  c #0000AB",
"P  c #0000AC",
"I  c #0000AD",
"U  c #0000AE",
"Y  c #0000AF",
"T  c #0000B0",
"R  c #0000B1",
"E  c #0000B2",
"W  c #0000B3",
"Q  c #0000B4",
"!  c #0000B5",
"~  c #0000B6",
"^  c #0000B7",
"/  c #0000B8",
"(  c #0000B9",
")  c #0000BA",
"_  c #0000BB",
"`  c #0000BC",
"'  c #0000BD",
"]  c #0000BE",
"[  c #0000BF",
"{  c #0000C0",
"}  c #0000C1",
"|  c #0000C2",
" . c #0000C3",
".. c #0000C4",
"X. c #0000C5",
"o. c #0000C6",
"O. c #0000C7",
"+. c #0000C8",
"@. c #0000C9",
"#. c #0000CA",
"$. c #0000CB",
"%. c #0000CC",
"&. c #0000CD",
"*. c #0000CE",
/* pixels */
"n P D n n L L L L L L L L L P N p N L L L L Z Z n L L N N N P N n P D n n L L L L L L L L L P N p N L L L L Z Z N L L N N N P Z ",
"^ $. .^ ' %.%.$.$.$.%.%...' ..P N ^  .%.%.$.( L n P  .^ R ^  .D R %. .^ ' %.%.$.$.$.%.%. .' ..P N ^  .%.%.$.( L n P  .^ R ^  .L ",
"R ..( ^ ^ $. .' ....$. .^ ' $.L n ^ ^ .. .^ D g y l ( ' R '  .n L ..( ^ ^ $. .' ....$. .^ ' $.L n ^ ^ .. .^ D g y l ( ' R '  .N ",
"P ( N L ( ' ^ ^ ..$.$.^ ^ ..$.Z n ^ R R P R n 4 4 9 Z P R ' ( n D ( N L ( ' ^ ^ ..%.$.^ ^ ..$.Z n ^ R R P P n 4 4 y Z R R ' ( N ",
"P P 9 g R  .^ ' $.$.$. .( $.$.N n ^ P p y y 9 4 4 1 9 p D ^ R n D P 9 g R  .^ ' $.$.$. .( $.$.N n ^ P p y y 9 4 4 1 9 g D ^ R n ",
"D P 9 9 N ..' ..$.$.$.(  .$.$.Z n ^ P p y 4 y l 9 4 y p Z ^ ^ n Z P 9 9 N ..' ..$.$.$.(  .$.$.Z n ^ P p y 4 y l 9 4 y p Z ^ ^ N ",
"R ' N D P $.' ( ( '  .^  .%...Z L  .R D p 9 n P l 4 N n n ^ ^ n P ' N D P $.' ( ( '  .^  .%...Z L  .R D p 9 n P l 4 N n n ^ ^ n ",
"D P D D R ' ( L P L L L R ( L g n P D N 1 % 1 y 4 4 n Z n D n > N P D D R ' ( L P L P L R ( L g n P D N 1 % 1 y 4 4 N Z n D n > ",
"g l n n n l g 9 p l n g l N n l g l n n N n g y p l n n l n l g g l n n n l g 9 p l n g l N n l g l n n N n g y p l n n l n l g ",
"' ..%.$.( ( ^ L P ^ ' ' $.%.$...( ..%.$... .^ R ( ( ..$.$.%.%.$.' ..%.$.( ( ^ L P ^ ' ' $.%.$...( $.%.$... .( R ( ( ..$.$.%.%.$.",
"' ( ..' P R ^ Z Z ^ ( (  .$. . .' ' ..' P R ( ^ R ( $.$.$.$. .( ' ( ..' P R ^ Z Z ^ ( (  .$. . .' ' ..' P R ( ^ R ^ ..$.$.$. .( ",
"' ' R L P L ^ n n ^ ' ..$.$. .$.' ' P L P D ^ N N ^ $.$.$.$.' ..' ' R L P L ^ n n ^ ' ..$.$. .$.( ' P L P D ^ N N ^ $.$.$.$.' ..",
" .^ D N R R ^ Z n ^  .%.$...$.$. .R L Z R R ^ P N ^ $.$.$...$.$. .^ D N R R ^ Z n ^  .%.$...$.$. .R L Z ^ R ^ P N ^ $.$.$...$.$.",
"R l p p l Z ^ D D ( ..$.$.(  .$.R p y p n D ^ R L ( $.$.$.$.$...R l p p l Z ^ D D ( ..$.$.(  .$.P p y p n D ^ P L ( $.$.$.$.$...",
"P y 9 9 9 L D p P ( ..%.$.^ ( ' P y 4 4 y L L l ^  .$.%.$. . . .R y 9 9 9 L D p P ( ..%.$.^ ( ' P y 4 4 y L L l ^  .$.%.$. . . .",
"p > . X X # #   p n n Z n l n l l 9 1 1 1 4 4 % N D D D Z l n l p > . X X # #   p n n Z n l n l l y 1 1 1 4 4 % N D D D Z l n l ",
"+ 3 & @ , 9 p p g g g y y p g > > p g l n n g g g n g g y 1 p > + 3 & @ , y p p g l g y y p g > > p g l n n g p g n g g y 1 y 1 ",
"P %...^ ( $.%.%.%.%.%.$...( ' D N ^ ( $.$.$.' D N ^ ' ^ ^ R  .D D %...^ ( $.%.%.%.%.%.$...( ' D N ^ ( $.$.%.' D N R ' ^ ^ R  .L ",
"P $.( ^ ( $... .$...$...( ^ ' L n ^ ^ ....( P g 4 l ' ' R ( ' n D $.( ^ ( $... .$...$...( ^ ( L N ^ ^ ....( P g 4 l ' ' R ( ' N ",
"L ( Z P ' ..^ ^  .$.$.^ R ' ..Z n ^ ^ R P R N 1 > 4 Z R R ' ' n D ( Z P ' ..^ ^  .$.$.^ R ' ..Z n ^ ^ R P R N 1 > 4 D R R ' ' N ",
"L P 9 l ^ ' ^ ( $.$.$. .( $.$.Z n ^ L g y n g 1 1 4 9 p L ^ ^ l D P 9 l R ' ^ ( $.$.$. .( $.$.Z n ^ P g y n g 1 1 4 9 p L ^ R n ",
"L L 9 9 Z ..' ..$.$.$.' ' $.$.N n ^ L y 9 1 y y 4 4 9 9 Z ^ ^ n D L 9 9 Z ..' ..$.$.$.'  .%.$.N n ^ L y 9 1 y y 4 4 9 y D ^ R N ",
"P ' l l D $.' ^ ' ..$.(  .%.$.N L ( R Z y p l L g y Z n N ^ ^ n D ' l l D $.' ^  ...$.(  .%.$.N L ( R Z y p l L g y Z n N ^ ^ N ",
"D ^ D P R  .( R R ' ' R ^  .( N D ( P L 9 4 y N p 9 N N n P D 4 N ^ D P R  .( R R ' ' R (  .( N D ( P L 9 4 y N p 9 N N n P D 9 ",
"y p 9 l Z l g y 9 p g p l D D N p l Z Z N g g g p p p p l D N y y p 9 l Z l g y 9 p g p l D D N p l Z Z N g g g p p p p l Z N y ",
"^  . . .' ^ R N n P R ^ ' $.$. .^ ' $... .' ( R R ^ ^ (  .$.$. .^ '  . .' ^ R Z n P R ^ ' $.$. .^ ' $... .' ( R R R ^ (  .$.$. .",
"' ' ..' R ^ ^ D N ^ '  . .$. . .( ' $.' R ^ ' ( R ( $.....$. .' ' ' ..' R ^ ^ D N ^ '  . .$. . .( ' $.' R R ' ( R ( $.....$. .( ",
"( ' ^ P P L ^ n n ^ ..$.$.$.' ..( ' ( P L L ^ N n ^ $.$.$.$.( ' ' ' ^ P P L ^ n n ^ ..$.$.$.' ..( ' ( P L L ^ N n ^ $.$.$.$.( ( ",
"' ( D Z ( R ^ N n ^ $.$.$.$.$. . .^ D Z ^ R ^ D n ^ ..$.$.$... .' ( D Z ^ R ^ N n ^ $.$.$.$.$. . .^ L Z ^ R ^ D n ^ ..$.$.$... .",
"R N p g Z L ^ Z N ( $.$.$.(  .$.R N p g D L ^ R P ( $.$.$.( ' ^ R N p g Z L ^ Z N ( $.$.$.(  .$.R N p g L L ^ R L ( $.$.$.( ' ^ ",
"P p 4 4 p P R l P ' $.%.$.' '  .L 9 4 4 g P R n ( ' ..%.$.^ (  .R p 4 4 y P R l P ' $.%.$.' '  .P 9 4 4 g P R n ( ' ..%.$.^ (  .",
"P Z g 9 9 l p % Z  .' ( ^ P P P L p 4 9 9 n g > L  .( ( ( R P P L Z g 9 9 l p % Z  .' ( ^ P P P L p 4 9 9 n g > L  .( ( ( R P P ",
"N P D n n D D Z L P P P P L P Z g N D L D D N N N P L N N Z P N n P D n n D D Z L P P P P L P Z g N D L D D N N N P L N Z Z P Z ",
"^ %. .^ ' %.%.%.%.$.%.%...' ..P N ^  .%.%.$.( L n P  .^ R ^  .D R %. .^ ' %.%.%.%.$.%.%...' ..P N ^  .%.%.$.( L n P  .^ R ^  .L ",
"R ..( ^ ^ $. .' ....$. .^ ' $.L n R ^ .. .^ D g y l ( ' R '  .n L ..( ^ ^ $. .' ....$. .^ ' $.L n R ^ .. .^ D g y l ( ' R ' ' N ",
"P ( N L ( ' ^ ^ ..$.$.^ ^ ..$.Z n ^ R R P R n 4 4 9 Z P R ' ( n D ( N L ( ' ^ ^ ..$.$.^ ^ ..$.Z n ^ R R P R n 4 4 9 Z P R ' ( N ",
"P P 9 g R  .^ ' $.$.$. .( $.$.N n ^ P p y y 9 9 4 1 9 g D ^ R n D P 9 g R  .^ ' $.$.$. .( $.$.N n ^ P p y y 9 9 4 1 9 g D ^ R n ",
"D P 9 9 N ..' ..$.$.$.(  .%.$.Z n ^ P p y 4 y l 9 4 y p Z ^ ^ n Z P 9 9 N ..' ..$.$.$.(  .%.$.Z n ^ P p y 4 y l 9 4 y p Z ^ R N ",
"R ' N D P $.' ( ( '  .^  .%...Z L  .R D p 9 n P l 9 Z N n ^ ^ n P ' N D P $.' ( ( '  .^  .%...Z L  .R D p 9 n P l 9 Z N n ^ R n ",
"D P D D R ' ( L P L L L R ( L g n P D N 1 % 1 y 4 4 N Z n D n > N P D D R ' ( L P L L L R ( L g n P D N 1 % 1 y 4 4 N Z n D n > ",
"g l n n n l g y p l n g l N n l p l n n N n g y p l n n l n l g g l n n n l g y p l n g l N n l p l n n N n g y p l n n l n l g ",
"' ..%.$.( ( ^ L P ^ ' ' $.%.%...( $.%.$... .( R ( ( ..$.$.%.%.$.' ..%.$.( ( ^ L P ^ ' ' $.%.%...( $.%.$... .( R ( ( ..$.$.%.%.$.",
"' ( ..( P R ^ Z Z ^ ( (  .$. . .' ' ..' P R ( ^ R ^ ..$.$.$. .( ' ( ..( P R ^ Z Z ^ ( (  .$. . .' ' ..' P R ( ^ R ^ ..$.$.$. .( ",
"' ' R L P D ^ n n ^ ' ..$.$. .$.( ' P L P D ^ N n ^ $.$.$.$.' ..' ' R L P D ^ n n ^ ' ..$.$. .$.' ' P L P D ^ N N ^ $.$.$.$.' ..",
" .^ D N R R ^ Z n ^  .$.$...$.$. .R L Z ^ R ^ P N ^ $.$.$...$.$. .R D N R R ^ Z n ^  .$.$...$.$. .R L Z R R ^ P N ^ $.$.$...$.$.",
"R l p p l Z ^ D D ^ ..$.$.^  .$.P p 9 p n D ^ P L ( $.$.$.$.$...R l p p l Z ^ D D ^ ..$.$.^  .$.P p 9 p n D ^ P L ( $.$.$.$.$...",
"P y 9 9 9 L D p P ( ..%.$.^ ( ' P y 4 4 y L L l ^  .%.%.%. . . .R y 9 9 9 L D p P ( ..%.$.^ ( ' P y 4 4 y L L l ^  .$.%.%. . ...",
"p > . X X # %   p n n Z n l n l l y 1 1 1 4 4 % N D D D Z n n l p > . X X # %   p n n Z n l n l l y 1 1 1 4 4 % N D D D Z n n l ",
"+ 3 & @ , y p p g g g y y p g > > p g l n n g p g n g g y 1 p > + 3 & @ , y p p g g g y y p g > > p g l n n g p g n g g y 1 y 4 ",
"P %...^ ( $.%.%.%.%.%.$...( ' D N ^ ( $.$.$.' D N R ' ^ ^ R  .D D %...^ ( $.%.%.%.%.%.$...( ' D N ^ ( $.$.$.' D N R ' ^ ^ R  .L ",
"L ..( ^ ( $.....$...$...( ^ ' L n ^ ^ ....( P g 4 l ' ' R ( ' n D $.( ^ ( $.....$...$...( ^ ' L n ^ ^ ....( P g 4 l ' ' R ( ' N ",
"L ( Z P ' ..^ ^  .$.$.^ R ' ..Z n ^ ^ R P R N 1 > 4 D R R ' ' n D ( Z P ' ..^ ^  .$.$.^ R ' ..Z n ^ ^ R P R N 1 > 4 D R R ' ' N ",
"L P 9 l R ' ^ ( $.$.$. .( $.$.Z n ^ P g y n g 1 1 4 9 p L ^ ^ l D P 9 l R ' ^ ( $.$.$. .( $.$.Z n ^ P g y n g 1 1 4 9 p L ^ ^ n ",
"L L 9 9 Z ..' ..$.$.$.' ' $.$.N n ^ L y 9 1 y y 1 4 9 y Z R R n D L 9 9 Z ..' ..$.$.$.' ' $.$.N n ^ L y 9 1 y y 1 4 9 y Z R R N ",
"P ' l l D $.' ^  .....(  .%.$.N L ( R D y p l L g y Z n N ^ ^ n D ' l l D $.' ^  .....(  .%.$.N L ( R D y p l L g y Z n N ^ ^ N ",
"D ^ D P R  .( R R ' ' R (  .( N D ( P L 9 4 y N p 9 N N n P D 4 N ^ D P R  .( R R ' ' R (  .( N D ( P L 9 4 y N p 9 N N n P D 9 ",
"y p 9 l Z l g y 9 p g p l D D N p l Z Z N g g g p p p p l D N y y p 9 l Z l g y 9 p g p l D D N p l Z Z N g g g p p p p l Z N y ",
"^  . . .' ^ R N n P R ( ' $.$. .^ ' $.....' ( R R R ^ (  .$.$. .^  . . .' ^ R N n P R ( ' $.$. .^ ' $.....' ( R R R ^ (  .$.$. .",
"' ' ..' R ^ ^ D N ^  . . .$. .' ( ' $.' R ^ ' ( R ( $.....$. .' ' ' ..' R ^ ^ D N ^  . . .$. .' ( ' $.' R ^ ' ( R ( $.....$. .( ",
"( ' R P P L ^ n n ^ ..$.$.$.' ..( ' ( P L L ^ N n ^ $.$.$.$.( ( ' ' ^ P P L ^ n n ^ ..$.$.$.' ..( ' ( P L L ^ N n ^ $.$.$.$.( ( ",
"' ( D Z ( R ^ N n ^ $.$.$.$... . .^ D Z ^ R ^ D n ^ ..$.$.$... .' ( D Z ( R ^ N n ^ $.$.$.$... . .^ D Z ^ R ^ D n ^ ..$.$.$... .",
"R N p g Z L ^ Z N ( $.$.$.(  .$.R N p g L L ^ R P ( $.$.$.( ' ^ R N p g Z L ^ Z N ( $.$.$.(  .$.R N p g L L ^ R P ( $.$.$.( ' ^ ",
"P p 9 4 p P R l P ( $.$.$.' (  .L 9 4 4 g P R n ^ ( ..$.$.^ ( ' R p 4 4 p P R l P ( $.$.$.' (  .L 9 4 4 g P R n ^ ( ..$.$.^ (  .",
"R D l y 9 n g % L $... .( ^ R ^ R g 9 9 y N l > P $. . . .( R ^ R D l y 9 n g % L $... .( ^ R ^ R g 9 9 y N l > P $. . . .( R ^ "
};
